<svg xmlns="http://www.w3.org/2000/svg" width="585" height="19" viewBox="0 0 585 19" fill="none">
  <path
    d="M582.795 1C582.795 2.89664 584 4.80003 584 6.77358C584 8.40784 583.558 10.044 583.398 11.5849C583.11 14.3455 585.658 17.6262 578.58 17.6792C560.419 17.8155 542.492 16.8591 524.376 17.0377C517.354 17.107 510.395 17.6792 503.297 17.6792C495.253 17.6792 487.219 18 479.139 18C463.417 18 447.509 17.6044 431.794 17.1981C415.939 16.7882 400.11 17.5398 384.249 17.2872C360.302 16.9059 336.268 17.1154 312.345 16.5566C306.165 16.4122 301.289 17.1278 294.98 16.8952C274.913 16.1553 254.877 15.5343 234.787 14.9528C210.622 14.2534 186.314 14.1509 162.114 14.1509C144.072 14.1509 126.051 14.4717 108.01 14.4717C96.1751 14.4717 84.2211 14.2139 72.4097 14.6499C58.0975 15.1782 43.6586 15.7547 29.3143 15.7547C23.9832 15.7547 18.652 15.7547 13.3208 15.7547C11.8494 15.7547 0.661979 16.212 1.00789 16.3962"
    stroke="#000" stroke-width="2" stroke-linecap="round"/>
</svg>
