<svg xmlns="http://www.w3.org/2000/svg" width="587" height="19" viewBox="0 0 587 19" fill="none">
    <path d="M2.20866 18C2.20866 16.1034 1 14.2 1 12.2264C1 10.5922 1.44305 8.95597 1.60433 7.41509C1.89329 4.65447 -0.663223 1.37385 6.43898 1.32075C24.662 1.18453 42.6505 2.14094 60.8287 1.96226C67.8748 1.89301 74.858 1.32075 81.9803 1.32075C90.0518 1.32075 98.113 1 106.221 1C121.997 1 137.959 1.39561 153.728 1.80189C169.637 2.21179 185.521 1.46021 201.436 1.71279C225.465 2.09413 249.582 1.8846 273.587 2.4434C279.788 2.58775 284.681 1.8722 291.012 2.10482C311.147 2.8447 331.252 3.46566 351.411 4.04717C375.659 4.74662 400.05 4.84906 424.334 4.84906C442.437 4.84906 460.52 4.5283 478.623 4.5283C490.498 4.5283 502.493 4.78608 514.345 4.3501C528.707 3.82182 543.195 3.24528 557.589 3.24528C562.938 3.24528 568.287 3.24528 573.637 3.24528C575.113 3.24528 586.339 2.788 585.992 2.60377" stroke="#E1E91B" stroke-width="2" stroke-linecap="round"/>
</svg>