<svg xmlns="http://www.w3.org/2000/svg" viewBox="0 0 1580 1190">
  <g>
    <path fill="rgba(31, 32, 33, 0.88)" d="M142 301.5 c-6.5 -2.1 -11.9 -5.2 -16.8 -9.9 -14.9 -14.1 -21.8 -43 -16.2 -67.1 3.8 -16.8 14.1 -33.8 26.4 -43.9 5.9 -4.8 18.8 -12.3 22.7 -13.1 2.5 -0.6 2.9 -1.2 3.4 -5.3 3 -23.6 18.6 -43.2 40.5 -50.8 15.4 -5.4 32.1 -4 47.8 3.8 l8.5 4.2 2.6 -3.5 c5.2 -7.1 18.2 -18.9 25.8 -23.4 4.3 -2.5 12.1 -6 17.3 -7.7 9 -3 10.4 -3.2 25 -3.2 18 -0.1 23.3 1 37.6 7.9 25.4 12.3 40.8 33.2 46.9 64.1 0.4 1.8 1.4 2.2 7.2 2.7 22.3 1.8 41.9 18.9 47.8 41.2 0.8 3.3 1.9 6.3 2.3 6.7 0.4 0.4 3.5 1 6.7 1.3 16.7 1.6 26 5.8 36.5 16.4 8.7 8.8 12.2 14.8 15 25.7 2.4 9.3 2.5 16 0.5 23.9 -3.2 12.3 -11.5 22.1 -23.5 27.9 l-6.5 3.1 -176.5 0.2 c-149 0.1 -177.2 0 -181 -1.2z"/>
  </g>
</svg>
