<svg xmlns="http://www.w3.org/2000/svg" width="238" height="24" viewBox="0 0 238 24" fill="none">
  <path d="M42.5968 12.9705C102.859 12.9705 163.122 12.9705 223.385 12.9705C225.205 12.9705 238.395 12.9705 230.497 12.9705C202.216 12.9705 173.936 12.9705 145.655 12.9705C121.412 12.9705 97.1697 12.9705 72.927 12.9705C69.1491 12.9705 65.3712 12.9705 61.5933 12.9705C52.1306 12.9705 67.977 12.9705 70.2656 12.9705C103.663 12.9705 137.558 11.2161 170.892 12.9705C177.797 13.3339 180.852 19.578 187.594 19.578C192.397 19.578 197.2 19.578 202.002 19.578C205.617 19.578 208.552 20.0239 211.959 20.4498C219.993 21.4541 228.121 21.8231 235.957 19.2109C236.545 19.015 234.831 18.6241 234.214 18.5685C227.756 17.9867 221.304 17.3637 214.85 16.7331C193.663 14.6631 172.611 12.9226 151.345 14.8059C113.559 18.1523 75.5432 17.1002 37.6412 17.1002C32.7725 17.1002 32.3545 17.5969 37.9624 18.3391C51.8843 20.1817 65.8232 21.029 79.8557 21.4134C95.8684 21.8521 111.889 22.4589 127.898 21.597C141.757 20.8507 155.352 18.8104 169.148 17.6049C181.221 16.5501 193.469 17.1002 205.581 17.1002C212.036 17.1002 192.671 17.0606 186.218 16.9167C139.212 15.8678 92.2891 13.0665 45.2582 12.9705C31.5386 12.9425 17.8187 12.9705 4.09912 12.9705C-1.68628 12.9705 7.56243 13.8406 8.54999 13.98C31.1055 17.1643 54.5816 15.4483 77.2861 15.4483C103.268 15.4483 129.145 14.4797 155.107 13.7965C172.12 13.3488 189.06 12.9705 206.086 12.9705C208.457 12.9705 210.827 12.9705 213.198 12.9705C215.159 12.9705 206.429 11.0004 205.765 10.8139C184.756 4.92108 159.655 -0.880123 137.809 4.3441C132.859 5.52785 128.938 8.79183 123.814 9.66679C112.374 11.62 100.626 13.0489 89.0327 13.6129C74.551 14.3174 59.8099 15.3409 45.35 13.98C45.1499 13.9612 41.0367 14.083 41.0367 13.3835C41.0367 12.1844 65.0642 13.3856 66.5489 13.4753C97.9721 15.3733 129.555 18.8404 161.027 19.5321C168.966 19.7066 176.821 19.6962 184.749 20.2204C187.97 20.4333 190.669 20.3466 193.743 19.578" stroke="#E1E91B" stroke-width="3" stroke-linecap="round"/>
</svg>
