<svg xmlns="http://www.w3.org/2000/svg" width="983" height="7" viewBox="0 0 983 7" fill="none">
  <path
    d="M981.5 4.90581C950.972 5.04203 911.226 4.08563 880.774 4.2643C868.97 4.33355 857.272 4.90581 845.341 4.90581C831.819 4.90581 818.315 5.22656 804.733 5.22656C778.304 5.22656 751.564 4.83096 725.148 4.42468C698.497 4.01477 671.888 4.76636 645.226 4.51377C604.972 4.13243 564.572 4.34197 524.359 3.78317C513.971 3.63881 505.774 4.35436 495.169 4.12174C461.437 3.38186 427.758 2.7609 393.987 2.17939C353.366 1.47994 312.506 1.37751 271.826 1.37751C241.499 1.37751 211.206 1.69826 180.88 1.69826C160.985 1.69826 140.891 1.44048 121.037 1.87646C96.9785 2.40474 72.7074 2.98128 48.5952 2.98128C39.6337 2.98128 30.6722 2.98128 21.7107 2.98128C19.2372 2.98128 0.431669 3.43857 1.01312 3.62279"
    stroke="black" stroke-width="2" stroke-linecap="round"/>
</svg>
