<svg width="37" height="46" viewBox="0 0 37 46" fill="none" xmlns="http://www.w3.org/2000/svg">
<g filter="url(#filter0_d_253_2434)">
<path d="M17.5 6C11.695 6 7 10.695 7 16.5C7 24.375 17.5 36 17.5 36C17.5 36 28 24.375 28 16.5C28 10.695 23.305 6 17.5 6Z" fill="white"/>
</g>
<path d="M17.5 25.5C12.532 25.5 8.5 21.468 8.5 16.5C8.5 11.532 12.532 7.5 17.5 7.5C22.468 7.5 26.5 11.532 26.5 16.5C26.5 21.468 22.468 25.5 17.5 25.5Z" fill="#BB2C14"/>
<path d="M15.8295 21H13.2727L16.1534 12.2727H19.392L22.2727 21H19.7159L17.8068 14.6761H17.7386L15.8295 21ZM15.3523 17.5568H20.1591V19.3295H15.3523V17.5568Z" fill="white"/>
<defs>
<filter id="filter0_d_253_2434" x="0.7" y="0.7" width="35.6" height="44.6" filterUnits="userSpaceOnUse" color-interpolation-filters="sRGB">
<feFlood flood-opacity="0" result="BackgroundImageFix"/>
<feColorMatrix in="SourceAlpha" type="matrix" values="0 0 0 0 0 0 0 0 0 0 0 0 0 0 0 0 0 0 127 0" result="hardAlpha"/>
<feOffset dx="1" dy="2"/>
<feGaussianBlur stdDeviation="3.65"/>
<feComposite in2="hardAlpha" operator="out"/>
<feColorMatrix type="matrix" values="0 0 0 0 0 0 0 0 0 0 0 0 0 0 0 0 0 0 0.25 0"/>
<feBlend mode="normal" in2="BackgroundImageFix" result="effect1_dropShadow_253_2434"/>
<feBlend mode="normal" in="SourceGraphic" in2="effect1_dropShadow_253_2434" result="shape"/>
</filter>
</defs>
</svg>
