<svg width="37" height="46" viewBox="0 0 37 46" fill="none" xmlns="http://www.w3.org/2000/svg">
<g filter="url(#filter0_d_253_2433)">
<path d="M17.5 6C11.695 6 7 10.695 7 16.5C7 24.375 17.5 36 17.5 36C17.5 36 28 24.375 28 16.5C28 10.695 23.305 6 17.5 6Z" fill="white"/>
</g>
<path d="M17.5 25.5C12.532 25.5 8.5 21.468 8.5 16.5C8.5 11.532 12.532 7.5 17.5 7.5C22.468 7.5 26.5 11.532 26.5 16.5C26.5 21.468 22.468 25.5 17.5 25.5Z" fill="#BB2C14"/>
<path d="M14.5625 21V12.2727H18.3295C18.9773 12.2727 19.544 12.4006 20.0298 12.6562C20.5156 12.9119 20.8935 13.2713 21.1634 13.7344C21.4332 14.1974 21.5682 14.7386 21.5682 15.358C21.5682 15.983 21.429 16.5241 21.1506 16.9815C20.875 17.4389 20.4872 17.7912 19.9872 18.0384C19.4901 18.2855 18.9091 18.4091 18.2443 18.4091H15.9943V16.5682H17.767C18.0455 16.5682 18.2827 16.5199 18.4787 16.4233C18.6776 16.3239 18.8295 16.1832 18.9347 16.0014C19.0426 15.8196 19.0966 15.6051 19.0966 15.358C19.0966 15.108 19.0426 14.8949 18.9347 14.7188C18.8295 14.5398 18.6776 14.4034 18.4787 14.3097C18.2827 14.2131 18.0455 14.1648 17.767 14.1648H16.9318V21H14.5625Z" fill="white"/>
<defs>
<filter id="filter0_d_253_2433" x="0.7" y="0.7" width="35.6" height="44.6" filterUnits="userSpaceOnUse" color-interpolation-filters="sRGB">
<feFlood flood-opacity="0" result="BackgroundImageFix"/>
<feColorMatrix in="SourceAlpha" type="matrix" values="0 0 0 0 0 0 0 0 0 0 0 0 0 0 0 0 0 0 127 0" result="hardAlpha"/>
<feOffset dx="1" dy="2"/>
<feGaussianBlur stdDeviation="3.65"/>
<feComposite in2="hardAlpha" operator="out"/>
<feColorMatrix type="matrix" values="0 0 0 0 0 0 0 0 0 0 0 0 0 0 0 0 0 0 0.25 0"/>
<feBlend mode="normal" in2="BackgroundImageFix" result="effect1_dropShadow_253_2433"/>
<feBlend mode="normal" in="SourceGraphic" in2="effect1_dropShadow_253_2433" result="shape"/>
</filter>
</defs>
</svg>
