<svg width="37" height="46" viewBox="0 0 37 46" fill="none" xmlns="http://www.w3.org/2000/svg">
<g filter="url(#filter0_d_253_2439)">
<path d="M17.5 6C11.695 6 7 10.695 7 16.5C7 24.375 17.5 36 17.5 36C17.5 36 28 24.375 28 16.5C28 10.695 23.305 6 17.5 6Z" fill="white"/>
</g>
<path d="M17.5 25.5C12.532 25.5 8.5 21.468 8.5 16.5C8.5 11.532 12.532 7.5 17.5 7.5C22.468 7.5 26.5 11.532 26.5 16.5C26.5 21.468 22.468 25.5 17.5 25.5Z" fill="#BB2C14"/>
<path d="M18.767 15C18.7443 14.7159 18.6378 14.4943 18.4474 14.3352C18.2599 14.1761 17.9744 14.0966 17.5909 14.0966C17.3466 14.0966 17.1463 14.1264 16.9901 14.1861C16.8366 14.2429 16.723 14.321 16.6491 14.4205C16.5753 14.5199 16.5369 14.6335 16.5341 14.7614C16.5284 14.8665 16.5469 14.9616 16.5895 15.0469C16.6349 15.1293 16.706 15.2045 16.8026 15.2727C16.8991 15.3381 17.0227 15.3977 17.1733 15.4517C17.3239 15.5057 17.5028 15.554 17.7102 15.5966L18.4261 15.75C18.9091 15.8523 19.3224 15.9872 19.6662 16.1548C20.0099 16.3224 20.2912 16.5199 20.5099 16.7472C20.7287 16.9716 20.8892 17.2244 20.9915 17.5057C21.0966 17.7869 21.1506 18.0937 21.1534 18.4261C21.1506 19 21.0071 19.4858 20.723 19.8835C20.4389 20.2812 20.0327 20.5838 19.5043 20.7912C18.9787 20.9986 18.3466 21.1023 17.608 21.1023C16.8494 21.1023 16.1875 20.9901 15.6222 20.7656C15.0597 20.5412 14.6222 20.196 14.3097 19.7301C14 19.2614 13.8438 18.6619 13.8409 17.9318H16.0909C16.1051 18.1989 16.1719 18.4233 16.2912 18.6051C16.4105 18.7869 16.5781 18.9247 16.794 19.0185C17.0128 19.1122 17.2727 19.1591 17.5739 19.1591C17.8267 19.1591 18.0384 19.1278 18.2088 19.0653C18.3793 19.0028 18.5085 18.9162 18.5966 18.8054C18.6847 18.6946 18.7301 18.5682 18.733 18.4261C18.7301 18.2926 18.6861 18.1761 18.6009 18.0767C18.5185 17.9744 18.3821 17.8835 18.1918 17.804C18.0014 17.7216 17.7443 17.6449 17.4205 17.5739L16.5511 17.3864C15.7784 17.2187 15.169 16.9389 14.723 16.5469C14.2798 16.152 14.0597 15.6136 14.0625 14.9318C14.0597 14.3778 14.2074 13.8935 14.5057 13.4787C14.8068 13.0611 15.223 12.7358 15.7543 12.5028C16.2884 12.2699 16.9006 12.1534 17.5909 12.1534C18.2955 12.1534 18.9048 12.2713 19.419 12.5071C19.9332 12.7429 20.3295 13.0753 20.608 13.5043C20.8892 13.9304 21.0313 14.429 21.0341 15H18.767Z" fill="white"/>
<defs>
<filter id="filter0_d_253_2439" x="0.7" y="0.7" width="35.6" height="44.6" filterUnits="userSpaceOnUse" color-interpolation-filters="sRGB">
<feFlood flood-opacity="0" result="BackgroundImageFix"/>
<feColorMatrix in="SourceAlpha" type="matrix" values="0 0 0 0 0 0 0 0 0 0 0 0 0 0 0 0 0 0 127 0" result="hardAlpha"/>
<feOffset dx="1" dy="2"/>
<feGaussianBlur stdDeviation="3.65"/>
<feComposite in2="hardAlpha" operator="out"/>
<feColorMatrix type="matrix" values="0 0 0 0 0 0 0 0 0 0 0 0 0 0 0 0 0 0 0.25 0"/>
<feBlend mode="normal" in2="BackgroundImageFix" result="effect1_dropShadow_253_2439"/>
<feBlend mode="normal" in="SourceGraphic" in2="effect1_dropShadow_253_2439" result="shape"/>
</filter>
</defs>
</svg>
