<svg xmlns="http://www.w3.org/2000/svg" width="1400" height="221" fill="none">
  <path fill="#27933F"
        d="m503.195 197.273-9.105 20.486h100.154l-8.346-20.486h11.381l-11.381-30.35h11.381L544.926 0 494.09 166.923h9.105l-13.657 30.35h13.657Z"/>
  <path fill="#0C6523" d="m502.437 197.273-9.105 20.486h50.836V0l-50.836 166.923h9.105l-13.657 30.35h13.657Z"/>
  <path stroke="#fff" stroke-width="2"
        d="M544.168 220.035v-9.864m0-154.783v33.385m0 99.395-31.867-16.693m31.867 16.693v22.003m0-22.003v-25.797m0 47.8 34.902-15.175m-34.902-32.625 27.315-28.074m-27.315 28.074v-40.214m0 0-21.245-18.209m21.245 18.209V88.773m0 0 13.658-11.381"/>
  <path fill="#27933F"
        d="m330.195 197.273-9.105 20.486h100.154l-8.346-20.486h11.381l-11.381-30.35h11.381L371.926 0 321.09 166.923h9.105l-13.657 30.35h13.657Z"/>
  <path fill="#0C6523" d="m329.437 197.273-9.105 20.486h50.836V0l-50.836 166.923h9.105l-13.657 30.35h13.657Z"/>
  <path stroke="#fff" stroke-width="2"
        d="M371.168 220.035v-9.864m0-154.783v33.385m0 99.395-31.867-16.693m31.867 16.693v22.003m0-22.003v-25.797m0 47.8 34.902-15.175m-34.902-32.625 27.315-28.074m-27.315 28.074v-40.214m0 0-21.245-18.209m21.245 18.209V88.773m0 0 13.658-11.381"/>
  <path fill="#27933F"
        d="m394.597 201.725-7.325 16.479h81.007l-7.155-16.479h9.155l-9.155-24.414h9.155L428.165 43.035 387.272 177.31h7.325l-10.987 24.414h10.987Z"/>
  <path fill="#0C6523" d="m393.986 201.725-7.324 16.479h40.893V43.034l-40.893 134.277h7.324L383 201.725h10.986Z"/>
  <path stroke="#fff" stroke-width="2"
        d="M427.555 220.035V212.1m0-124.51v26.855m0 79.955-25.635-13.427m25.635 13.427v17.7m0-17.7v-20.751m0 38.451 28.076-12.206m-28.076-26.245 21.972-22.583m-21.972 22.583V141.3m0 0-17.09-14.648m17.09 14.648v-26.855m0 0 10.986-9.155"/>
  <path fill="#27933F"
        d="m221.597 201.725-7.325 16.479h81.007l-7.155-16.479h9.155l-9.155-24.414h9.155L255.165 43.035 214.272 177.31h7.325l-10.987 24.414h10.987Z"/>
  <path fill="#0C6523" d="m220.986 201.725-7.324 16.479h40.893V43.034l-40.893 134.277h7.324L210 201.725h10.986Z"/>
  <path stroke="#fff" stroke-width="2"
        d="M254.555 220.035V212.1m0-124.51v26.855m0 79.955-25.635-13.427m25.635 13.427v17.7m0-17.7v-20.751m0 38.451 28.076-12.206m-28.076-26.245 21.972-22.583m-21.972 22.583V141.3m0 0-17.09-14.648m17.09 14.648v-26.855m0 0 10.986-9.155"/>
  <path fill="#27933F" d="m459.279 203.035-6 15h66l-5.5-15h7.5l-7.5-20h7.5l-34.5-110-33.5 110h6l-9 20h9Z"/>
  <path fill="#0C6523" d="m458.779 203.035-6 14.5h33.5v-144.5l-33.5 110h6l-9 20h9Z"/>
  <path stroke="#fff" stroke-width="2"
        d="M486.279 218.035v-6.5m0-102v22m0 65.5-21-11m21 11v14.5m0-14.5v-17m0 31.5 23-10m-23-21.5 18-18.5m-18 18.5v-26.5m0 0-14-12m14 12v-22m0 0 9-7.5"/>
  <path fill="#27933F" d="m286.279 203.035-6 15h66l-5.5-15h7.5l-7.5-20h7.5l-34.5-110-33.5 110h6l-9 20h9Z"/>
  <path fill="#0C6523" d="m285.779 203.035-6 14.5h33.5v-144.5l-33.5 110h6l-9 20h9Z"/>
  <path stroke="#fff" stroke-width="2"
        d="M313.279 218.035v-6.5m0-102v22m0 65.5-21-11m21 11v14.5m0-14.5v-17m0 31.5 23-10m-23-21.5 18-18.5m-18 18.5v-26.5m0 0-14-12m14 12v-22m0 0 9-7.5"/>
  <path fill="#27933F"
        d="m900.084 197.273 9.105 20.486H809.035l8.346-20.486H806l11.381-30.35H806L858.353 0l50.836 166.923h-9.105l13.657 30.35h-13.657Z"/>
  <path fill="#0C6523" d="m900.842 197.273 9.105 20.486h-50.836V0l50.836 166.923h-9.105l13.657 30.35h-13.657Z"/>
  <path stroke="#fff" stroke-width="2"
        d="M859.111 220.035v-9.864m0-154.783v33.385m0 99.395 31.867-16.693m-31.867 16.693v22.003m0-22.003v-25.797m0 47.8-34.902-15.175m34.902-32.625-27.315-28.074m27.315 28.074v-40.214m0 0 21.245-18.209m-21.245 18.209V88.773m0 0-13.657-11.381"/>
  <path fill="#27933F"
        d="m1073.08 197.273 9.11 20.486H982.035l8.346-20.486H979l11.381-30.35H979L1031.35 0l50.84 166.923h-9.11l13.66 30.35h-13.66Z"/>
  <path fill="#0C6523" d="m1073.84 197.273 9.11 20.486h-50.84V0l50.84 166.923h-9.11l13.66 30.35h-13.66Z"/>
  <path stroke="#fff" stroke-width="2"
        d="M1032.11 220.035v-9.864m0-154.783v33.385m0 99.395 31.87-16.693m-31.87 16.693v22.003m0-22.003v-25.797m0 47.8-34.901-15.175m34.901-32.625-27.31-28.074m27.31 28.074v-40.214m0 0 21.25-18.209m-21.25 18.209V88.773m0 0-13.66-11.381"/>
  <path fill="#27933F"
        d="m1008.68 201.725 7.33 16.479H935l7.155-16.479H933l9.155-24.414H933l42.114-134.276 40.896 134.276h-7.33l10.99 24.414h-10.99Z"/>
  <path fill="#0C6523" d="m1009.29 201.725 7.33 16.479h-40.895V43.034l40.895 134.277h-7.33l10.99 24.414h-10.99Z"/>
  <path stroke="#fff" stroke-width="2"
        d="M975.724 220.035V212.1m0-124.51v26.855m0 79.955 25.636-13.427M975.724 194.4v17.7m0-17.7v-20.751m0 38.451-28.076-12.206m28.076-26.245-21.972-22.583m21.972 22.583V141.3m0 0 17.09-14.648m-17.09 14.648v-26.855m0 0-10.986-9.155"/>
  <path fill="#27933F"
        d="m1181.68 201.725 7.33 16.479H1108l7.16-16.479H1106l9.16-24.414H1106l42.11-134.276 40.9 134.276h-7.33l10.99 24.414h-10.99Z"/>
  <path fill="#0C6523" d="m1182.29 201.725 7.33 16.479h-40.9V43.034l40.9 134.277h-7.33l10.99 24.414h-10.99Z"/>
  <path stroke="#fff" stroke-width="2"
        d="M1148.72 220.035V212.1m0-124.51v26.855m0 79.955 25.64-13.427m-25.64 13.427v17.7m0-17.7v-20.751m0 38.451-28.07-12.206m28.07-26.245-21.97-22.583m21.97 22.583V141.3m0 0 17.09-14.648m-17.09 14.648v-26.855m0 0-10.98-9.155"/>
  <path fill="#27933F" d="m944 203.035 6 15h-66l5.5-15H882l7.5-20H882l34.5-110 33.5 110h-6l9 20h-9Z"/>
  <path fill="#0C6523" d="m944.5 203.035 6 14.5H917v-144.5l33.5 110h-6l9 20h-9Z"/>
  <path stroke="#fff" stroke-width="2"
        d="M917 218.035v-6.5m0-102v22m0 65.5 21-11m-21 11v14.5m0-14.5v-17m0 31.5-23-10m23-21.5-18-18.5m18 18.5v-26.5m0 0 14-12m-14 12v-22m0 0-9-7.5"/>
  <path fill="#27933F" d="m1117 203.035 6 15h-66l5.5-15h-7.5l7.5-20h-7.5l34.5-110 33.5 110h-6l9 20h-9Z"/>
  <path fill="#0C6523" d="m1117.5 203.035 6 14.5H1090v-144.5l33.5 110h-6l9 20h-9Z"/>
  <path stroke="#fff" stroke-width="2"
        d="M1090 218.035v-6.5m0-102v22m0 65.5 21-11m-21 11v14.5m0-14.5v-17m0 31.5-23-10m23-21.5-18-18.5m18 18.5v-26.5m0 0 14-12m-14 12v-22m0 0-9-7.5"/>
  <path fill="#27933F"
        d="m1220.88 203.856 6.47 14.561h-71.19l5.93-14.561H1154l8.09-21.573H1154l37.21-118.65 36.14 118.65h-6.47l9.7 21.573h-9.7Z"/>
  <path fill="#0C6523" d="m1221.41 203.856 6.48 14.561h-36.14V63.634l36.14 118.649h-6.48l9.71 21.573h-9.71Z"/>
  <path stroke="#fff" stroke-width="2"
        d="M1191.75 220.035v-7.011m0-110.02v23.73m0 70.65 22.65-11.865m-22.65 11.865v15.64m0-15.64v-18.337m0 33.977-24.81-10.786m24.81-23.191-19.41-19.955m19.41 19.955v-28.584m0 0 15.1-12.943m-15.1 12.943v-23.729m0 0-9.71-8.09"/>
  <path fill="#27933F"
        d="m1343.84 203.856 6.48 14.561h-71.19l5.93-14.561h-8.09l8.09-21.573h-8.09l37.21-118.65 36.14 118.65h-6.48l9.71 21.573h-9.71Z"/>
  <path fill="#0C6523" d="m1344.38 203.856 6.47 14.561h-36.13V63.634l36.13 118.649h-6.47l9.71 21.573h-9.71Z"/>
  <path stroke="#fff" stroke-width="2"
        d="M1314.72 220.035v-7.011m0-110.02v23.73m0 70.65 22.65-11.865m-22.65 11.865v15.64m0-15.64v-18.337m0 33.977-24.81-10.786m24.81-23.191-19.41-19.955m19.41 19.955v-28.584m0 0 15.1-12.943m-15.1 12.943v-23.729m0 0-9.71-8.09"/>
  <path fill="#27933F"
        d="m1298.07 207.02 5.2 11.713h-57.58l5.09-11.713h-6.51l6.51-17.353h-6.51l29.94-95.444 29.06 95.444h-5.2l7.81 17.353h-7.81Z"/>
  <path fill="#0C6523" d="m1298.5 207.02 5.21 11.713h-29.07V94.223l29.07 95.444h-5.21l7.81 17.353h-7.81Z"/>
  <path stroke="#fff" stroke-width="2"
        d="M1274.64 220.035v-5.64m0-88.502v19.089m0 56.832 18.22-9.544m-18.22 9.544v12.581m0-12.581v-14.75m0 27.331-19.96-8.677m19.96-18.654-15.62-16.052m15.62 16.052V164.07m0 0 12.15-10.412m-12.15 10.412v-19.088m0 0-7.81-6.508"/>
  <path fill="#27933F"
        d="m1421.04 207.02 5.2 11.713h-57.58l5.09-11.713h-6.51l6.51-17.353h-6.51l29.93-95.444 29.07 95.444h-5.2l7.8 17.353h-7.8Z"/>
  <path fill="#0C6523" d="m1421.47 207.02 5.21 11.713h-29.07V94.223l29.07 95.444h-5.21l7.81 17.353h-7.81Z"/>
  <path stroke="#fff" stroke-width="2"
        d="M1397.61 220.035v-5.64m0-88.502v19.089m0 56.832 18.22-9.544m-18.22 9.544v12.581m0-12.581v-14.75m0 27.331-19.96-8.677m19.96-18.654-15.62-16.052m15.62 16.052V164.07m0 0 12.15-10.412m-12.15 10.412v-19.088m0 0-7.81-6.508"/>
  <path fill="#27933F"
        d="m1252.09 207.951 4.26 10.662h-46.91l3.91-10.662h-5.33l5.33-14.216h-5.33l24.52-78.188 23.81 78.188h-4.26l6.4 14.216h-6.4Z"/>
  <path fill="#0C6523" d="m1252.45 207.951 4.26 10.307h-23.81V115.547l23.81 78.188h-4.26l6.39 14.216h-6.39Z"/>
  <path stroke="#fff" stroke-width="2"
        d="M1232.9 218.613v-4.62m0-72.502v15.638m0 46.558 14.92-7.819m-14.92 7.819v10.306m0-10.306v-12.084m0 22.39-16.35-7.108m16.35-15.282-12.8-13.15m12.8 13.15v-18.836m0 0 9.95-8.53m-9.95 8.53v-15.638m0 0-6.4-5.331"/>
  <path fill="#27933F"
        d="m1375.06 207.951 4.26 10.662h-46.91l3.91-10.662h-5.33l5.33-14.216h-5.33l24.52-78.188 23.81 78.188h-4.26l6.4 14.216h-6.4Z"/>
  <path fill="#0C6523" d="m1375.41 207.951 4.27 10.307h-23.81V115.547l23.81 78.188h-4.27l6.4 14.216h-6.4Z"/>
  <path stroke="#fff" stroke-width="2"
        d="M1355.87 218.613v-4.62m0-72.502v15.638m0 46.557 14.92-7.818m-14.92 7.818v10.307m0-10.307v-12.083m0 22.39-16.35-7.108m16.35-15.282-12.8-13.15m12.8 13.15v-18.836m0 0 9.95-8.53m-9.95 8.53v-15.638m0 0-6.4-5.331"/>
  <path fill="#27933F"
        d="m38.875 203.856 6.472 14.561h-71.19l5.933-14.561H-28l8.09-21.573H-28L9.213 63.633l36.134 118.65h-6.472l9.708 21.573h-9.708Z"/>
  <path fill="#0C6523" d="m39.414 203.856 6.472 14.561H9.752V63.634l36.134 118.649h-6.472l9.708 21.573h-9.708Z"/>
  <path stroke="#fff" stroke-width="2"
        d="M9.752 220.035v-7.011m0-110.02v23.73m0 70.65 22.651-11.865M9.752 197.384v15.64m0-15.64v-18.337m0 33.977-24.809-10.786m24.809-23.191-19.415-19.955m19.415 19.955v-28.584m0 0 15.1-12.943m-15.1 12.943v-23.729m0 0-9.708-8.09"/>
  <path fill="#27933F"
        d="m161.844 203.856 6.472 14.561h-71.19l5.932-14.561h-8.09l8.09-21.573h-8.09l37.213-118.65 36.135 118.65h-6.472l9.707 21.573h-9.707Z"/>
  <path fill="#0C6523" d="m162.383 203.856 6.472 14.561h-36.134V63.634l36.134 118.649h-6.472l9.708 21.573h-9.708Z"/>
  <path stroke="#fff" stroke-width="2"
        d="M132.721 220.035v-7.011m0-110.02v23.73m0 70.65 22.651-11.865m-22.651 11.865v15.64m0-15.64v-18.337m0 33.977-24.809-10.786m24.809-23.191-19.416-19.955m19.416 19.955v-28.584m0 0 15.1-12.943m-15.1 12.943v-23.729m0 0-9.708-8.09"/>
  <path fill="#27933F"
        d="m116.067 207.02 5.206 11.713h-57.58l5.086-11.713h-6.507l6.507-17.353h-6.507l29.934-95.444 29.067 95.444h-5.206l7.809 17.353h-7.809Z"/>
  <path fill="#0C6523" d="m116.502 207.02 5.206 11.713H92.641V94.223l29.067 95.444h-5.206l7.809 17.353h-7.809Z"/>
  <path stroke="#fff" stroke-width="2"
        d="M92.64 220.035v-5.64m0-88.502v19.089m0 56.832 18.221-9.544m-18.221 9.544v12.581m0-12.581v-14.75m0 27.331-19.956-8.677m19.956-18.654-15.618-16.052m15.618 16.052V164.07m0 0 12.147-10.412M92.64 164.07v-19.088m0 0-7.809-6.508"/>
  <path fill="#27933F"
        d="m239.036 207.02 5.206 11.713h-57.58l5.086-11.713h-6.508l6.508-17.353h-6.508l29.935-95.444 29.067 95.444h-5.206l7.809 17.353h-7.809Z"/>
  <path fill="#0C6523" d="m239.47 207.02 5.206 11.713h-29.067V94.223l29.067 95.444h-5.206l7.809 17.353h-7.809Z"/>
  <path stroke="#fff" stroke-width="2"
        d="M215.609 220.035v-5.64m0-88.502v19.089m0 56.832 18.221-9.544m-18.221 9.544v12.581m0-12.581v-14.75m0 27.331-19.957-8.677m19.957-18.654-15.618-16.052m15.618 16.052V164.07m0 0 12.147-10.412m-12.147 10.412v-19.088m0 0-7.809-6.508"/>
  <path fill="#27933F"
        d="m70.09 207.951 4.264 10.662H27.441l3.91-10.662H26.02l5.33-14.216h-5.33l24.522-78.188 23.812 78.188H70.09l6.398 14.216h-6.398Z"/>
  <path fill="#0C6523" d="m70.445 207.951 4.265 10.307H50.898V115.547l23.812 78.188h-4.264l6.397 14.216h-6.398Z"/>
  <path stroke="#fff" stroke-width="2"
        d="M50.897 218.613v-4.62m0-72.502v15.638m0 46.558 14.927-7.819m-14.927 7.819v10.306m0-10.306v-12.084m0 22.39-16.348-7.108m16.348-15.282-12.794-13.15m12.794 13.15v-18.836m0 0 9.952-8.53m-9.952 8.53v-15.638m0 0-6.397-5.331"/>
  <path fill="#27933F"
        d="m193.058 207.951 4.265 10.662H150.41l3.909-10.662h-5.331l5.331-14.216h-5.331l24.523-78.188 23.812 78.188h-4.265l6.397 14.216h-6.397Z"/>
  <path fill="#0C6523" d="m193.412 207.951 4.265 10.307h-23.812V115.547l23.812 78.188h-4.265l6.398 14.216h-6.398Z"/>
  <path stroke="#fff" stroke-width="2"
        d="M173.866 218.613v-4.62m0-72.502v15.638m0 46.557 14.927-7.818m-14.927 7.818v10.307m0-10.307v-12.083m0 22.39-16.348-7.108m16.348-15.282-12.794-13.15m12.794 13.15v-18.836m0 0 9.951-8.53m-9.951 8.53v-15.638m0 0-6.397-5.331"/>
  <path fill="#27933F"
        d="m754.875 203.856 6.472 14.561h-71.19l5.933-14.561H688l8.09-21.573H688l37.213-118.65 36.134 118.65h-6.472l9.708 21.573h-9.708Z"/>
  <path fill="#0C6523" d="m755.414 203.856 6.472 14.561h-36.134V63.634l36.134 118.649h-6.472l9.708 21.573h-9.708Z"/>
  <path stroke="#fff" stroke-width="2"
        d="M725.752 220.035v-7.011m0-110.02v23.73m0 70.65 22.651-11.865m-22.651 11.865v15.64m0-15.64v-18.337m0 33.977-24.809-10.786m24.809-23.191-19.415-19.955m19.415 19.955v-28.584m0 0 15.101-12.943m-15.101 12.943v-23.729m0 0-9.708-8.09"/>
  <path fill="#27933F"
        d="m877.844 203.856 6.472 14.561h-71.19l5.932-14.561h-8.089l8.089-21.573h-8.089l37.212-118.65 36.135 118.65h-6.472l9.707 21.573h-9.707Z"/>
  <path fill="#0C6523" d="m878.383 203.856 6.472 14.561h-36.134V63.634l36.134 118.649h-6.472l9.708 21.573h-9.708Z"/>
  <path stroke="#fff" stroke-width="2"
        d="M848.721 220.035v-7.011m0-110.02v23.73m0 70.65 22.651-11.865m-22.651 11.865v15.64m0-15.64v-18.337m0 33.977-24.809-10.786m24.809-23.191-19.416-19.955m19.416 19.955v-28.584m0 0 15.1-12.943m-15.1 12.943v-23.729m0 0-9.708-8.09"/>
  <path fill="#27933F"
        d="m832.067 207.02 5.206 11.713h-57.58l5.086-11.713h-6.508l6.508-17.353h-6.508l29.935-95.444 29.067 95.444h-5.206l7.809 17.353h-7.809Z"/>
  <path fill="#0C6523" d="m832.502 207.02 5.206 11.713h-29.067V94.223l29.067 95.444h-5.206l7.809 17.353h-7.809Z"/>
  <path stroke="#fff" stroke-width="2"
        d="M808.64 220.035v-5.64m0-88.502v19.089m0 56.832 18.221-9.544m-18.221 9.544v12.581m0-12.581v-14.75m0 27.331-19.956-8.677m19.956-18.654-15.618-16.052m15.618 16.052V164.07m0 0 12.147-10.412M808.64 164.07v-19.088m0 0-7.809-6.508"/>
  <path fill="#27933F"
        d="m955.036 207.02 5.206 11.713h-57.58l5.086-11.713h-6.508l6.508-17.353h-6.508l29.935-95.444 29.067 95.444h-5.206l7.809 17.353h-7.809Z"/>
  <path fill="#0C6523" d="m955.47 207.02 5.206 11.713h-29.067V94.223l29.067 95.444h-5.206l7.809 17.353h-7.809Z"/>
  <path stroke="#fff" stroke-width="2"
        d="M931.609 220.035v-5.64m0-88.502v19.089m0 56.832 18.221-9.544m-18.221 9.544v12.581m0-12.581v-14.75m0 27.331-19.957-8.677m19.957-18.654-15.618-16.052m15.618 16.052V164.07m0 0 12.147-10.412m-12.147 10.412v-19.088m0 0-7.809-6.508"/>
  <path fill="#27933F"
        d="m786.089 207.951 4.265 10.662h-46.913l3.91-10.662h-5.331l5.331-14.216h-5.331l24.522-78.188 23.812 78.188h-4.265l6.397 14.216h-6.397Z"/>
  <path fill="#0C6523" d="m786.446 207.951 4.264 10.307h-23.812V115.547l23.812 78.188h-4.264l6.397 14.216h-6.397Z"/>
  <path stroke="#fff" stroke-width="2"
        d="M766.897 218.613v-4.62m0-72.502v15.638m0 46.558 14.927-7.819m-14.927 7.819v10.306m0-10.306v-12.084m0 22.39-16.348-7.108m16.348-15.282-12.794-13.15m12.794 13.15v-18.836m0 0 9.952-8.53m-9.952 8.53v-15.638m0 0-6.397-5.331"/>
  <path fill="#27933F"
        d="m909.058 207.951 4.265 10.662H866.41l3.909-10.662h-5.331l5.331-14.216h-5.331l24.523-78.188 23.812 78.188h-4.265l6.397 14.216h-6.397Z"/>
  <path fill="#0C6523" d="m909.412 207.951 4.265 10.307h-23.812V115.547l23.812 78.188h-4.265l6.398 14.216h-6.398Z"/>
  <path stroke="#fff" stroke-width="2"
        d="M889.866 218.613v-4.62m0-72.502v15.638m0 46.557 14.927-7.818m-14.927 7.818v10.307m0-10.307v-12.083m0 22.39-16.348-7.108m16.348-15.282-12.794-13.15m12.794 13.15v-18.836m0 0 9.951-8.53m-9.951 8.53v-15.638m0 0-6.397-5.331"/>
  <path fill="#27933F"
        d="m547.875 203.856 6.472 14.561h-71.19l5.933-14.561H481l8.09-21.573H481l37.213-118.65 36.134 118.65h-6.472l9.708 21.573h-9.708Z"/>
  <path fill="#0C6523" d="m548.414 203.856 6.472 14.561h-36.134V63.634l36.134 118.649h-6.472l9.708 21.573h-9.708Z"/>
  <path stroke="#fff" stroke-width="2"
        d="M518.752 220.035v-7.011m0-110.02v23.73m0 70.65 22.651-11.865m-22.651 11.865v15.64m0-15.64v-18.337m0 33.977-24.809-10.786m24.809-23.191-19.415-19.955m19.415 19.955v-28.584m0 0 15.101-12.943m-15.101 12.943v-23.729m0 0-9.708-8.09"/>
  <path fill="#27933F"
        d="m670.844 203.856 6.472 14.561h-71.19l5.932-14.561h-8.089l8.089-21.573h-8.089l37.212-118.65 36.135 118.65h-6.472l9.707 21.573h-9.707Z"/>
  <path fill="#0C6523" d="m671.383 203.856 6.472 14.561h-36.134V63.634l36.134 118.649h-6.472l9.708 21.573h-9.708Z"/>
  <path stroke="#fff" stroke-width="2"
        d="M641.721 220.035v-7.011m0-110.02v23.73m0 70.65 22.651-11.865m-22.651 11.865v15.64m0-15.64v-18.337m0 33.977-24.809-10.786m24.809-23.191-19.416-19.955m19.416 19.955v-28.584m0 0 15.1-12.943m-15.1 12.943v-23.729m0 0-9.708-8.09"/>
  <path fill="#27933F"
        d="m625.067 207.02 5.206 11.713h-57.58l5.086-11.713h-6.508l6.508-17.353h-6.508l29.935-95.444 29.067 95.444h-5.206l7.809 17.353h-7.809Z"/>
  <path fill="#0C6523" d="m625.502 207.02 5.206 11.713h-29.067V94.223l29.067 95.444h-5.206l7.809 17.353h-7.809Z"/>
  <path stroke="#fff" stroke-width="2"
        d="M601.64 220.035v-5.64m0-88.502v19.089m0 56.832 18.221-9.544m-18.221 9.544v12.581m0-12.581v-14.75m0 27.331-19.956-8.677m19.956-18.654-15.618-16.052m15.618 16.052V164.07m0 0 12.147-10.412M601.64 164.07v-19.088m0 0-7.809-6.508"/>
  <path fill="#27933F"
        d="m748.036 207.02 5.206 11.713h-57.58l5.086-11.713h-6.508l6.508-17.353h-6.508l29.935-95.444 29.067 95.444h-5.206l7.809 17.353h-7.809Z"/>
  <path fill="#0C6523" d="m748.47 207.02 5.206 11.713h-29.067V94.223l29.067 95.444h-5.206l7.809 17.353h-7.809Z"/>
  <path stroke="#fff" stroke-width="2"
        d="M724.609 220.035v-5.64m0-88.502v19.089m0 56.832 18.221-9.544m-18.221 9.544v12.581m0-12.581v-14.75m0 27.331-19.957-8.677m19.957-18.654-15.618-16.052m15.618 16.052V164.07m0 0 12.147-10.412m-12.147 10.412v-19.088m0 0-7.809-6.508"/>
  <path fill="#27933F"
        d="m579.089 207.951 4.265 10.662h-46.913l3.91-10.662h-5.331l5.331-14.216h-5.331l24.522-78.188 23.812 78.188h-4.265l6.397 14.216h-6.397Z"/>
  <path fill="#0C6523" d="m579.446 207.951 4.264 10.307h-23.812V115.547l23.812 78.188h-4.264l6.397 14.216h-6.397Z"/>
  <path stroke="#fff" stroke-width="2"
        d="M559.897 218.613v-4.62m0-72.502v15.638m0 46.558 14.927-7.819m-14.927 7.819v10.306m0-10.306v-12.084m0 22.39-16.348-7.108m16.348-15.282-12.794-13.15m12.794 13.15v-18.836m0 0 9.952-8.53m-9.952 8.53v-15.638m0 0-6.397-5.331"/>
  <path fill="#27933F"
        d="m702.058 207.951 4.265 10.662H659.41l3.909-10.662h-5.331l5.331-14.216h-5.331l24.523-78.188 23.812 78.188h-4.265l6.397 14.216h-6.397Z"/>
  <path fill="#0C6523" d="m702.412 207.951 4.265 10.307h-23.812V115.547l23.812 78.188h-4.265l6.398 14.216h-6.398Z"/>
  <path stroke="#fff" stroke-width="2"
        d="M682.866 218.613v-4.62m0-72.502v15.638m0 46.557 14.927-7.818m-14.927 7.818v10.307m0-10.307v-12.083m0 22.39-16.348-7.108m16.348-15.282-12.794-13.15m12.794 13.15v-18.836m0 0 9.951-8.53m-9.951 8.53v-15.638m0 0-6.397-5.331"/>
</svg>
