<svg xmlns="http://www.w3.org/2000/svg" width="1257" height="1600" version="1.0"
  style="background-color: oklch(96.2% 0.013 255.505)" fill="rgb(222, 231, 245)">
  <path
    d="M0 1596.3c0-3.1 1.2-5.4 6.8-12.9 7.8-10.3 16.7-24.9 27.1-44.1 8.5-15.8 11.8-21.3 24.4-40 10.7-16.1 17.9-29.9 20.1-38.9 3.7-14.5 1.2-22.6-14.7-48.1-9-14.3-12-20.1-18.2-35.3-11.1-27.3-22.4-46.5-37.4-64l-8.1-9.4v-9.3c0-8.5.2-9.3 1.9-9.3 3.2 0 23.3 23.2 33.4 38.5 6.7 10.2 17.6 31.9 23.7 47.4 5.3 13.3 6.6 16 16.5 31.6 10.1 16 12.7 21 15.5 30.3 2 6.4 2.2 8.9 1.7 20-.7 19.6-4.8 29.5-25.2 60.2-6.7 10.2-16.6 26.6-22 36.5-11.2 20.6-19.4 34-26.8 43.8l-5.1 6.7H0v-3.7z"/>
  <path
    d="M33.2 1597.8c.2-1.3 9.8-16.4 21.3-33.5 27.5-41 32.2-48.8 37.3-61.7 9.2-23.4 12.6-44.1 12.6-76.6 0-20.4-.3-24.9-2.2-33.7-8.9-41.2-33.8-77.2-85.1-123.3L0 1253.7v-8.3c0-7.8.1-8.4 2.1-8.4 4.8 0 52.6 44.9 69.8 65.5 17.6 21.1 32 45.8 38.5 65.7 6 18.6 6.9 25.9 6.9 57.8 0 28.9-.6 36.4-4.4 55.7-4 20.1-12.4 41.2-22.6 56.4-2.7 4.1-13.1 19.7-23.1 34.7L49 1600h-8.1c-7.8 0-8-.1-7.7-2.2z"/>
  <path
    d="M99 1598.1c0-1 2.7-7.5 6.1-14.5 6.8-14.3 20-48.8 24.7-64.6 14.3-47.8 13.8-87.1-1.6-132-7.5-21.8-15.4-37.8-38.2-77.5-32.5-56.5-39.9-74.8-45.2-112-1.7-11.7-1.6-59.2.1-74.5 1.5-14.2 5.5-41.6 8.2-57C70 969 80.7 893.9 87.5 823.5c4.3-44.9 5-66.2 3.6-116.5-2.1-78.5-4.9-96.9-21.5-138.2-15.6-38.9-27.3-59.5-47.8-84.2-6-7.2-13.4-16.7-16.4-21.1l-5.4-8v-15.7C0 424.9.1 424 1.9 424c1.5 0 2.1 1 2.6 3.9.8 4.6 5.9 15.7 10.8 23.3 1.8 2.9 9.1 12.3 16.1 20.8 17 20.6 25 32.9 35.6 54.5 18.8 38.2 28.4 67.3 32.5 98.9 1.6 12.6 2.7 31.6 4.6 83.6 1.9 52.4-.5 101.1-8.2 161.5-4.2 33-19 138.5-21.3 152C58 1118.4 55 1142.9 56.4 1172c2.2 44.6 8.3 61.7 45.8 127.9 31.2 54.9 41.8 80.3 48.4 116.1 2.6 13.8 2.7 58.9.1 74.5-5.1 31.2-16 65.2-31 96.8l-6 12.7h-7.4c-6.4 0-7.3-.2-7.3-1.9z"/>
  <path
    d="M132 1598c0-1.1 1.9-5.7 4.1-10.3 12.4-24.6 19-52.9 26.5-113.7 3.2-25.9 3.8-33.6 3.8-51 .1-19.1-.1-21.2-2.6-31.2-5.4-21-13.3-38.1-33.2-71.6-15.9-26.9-19.2-33.1-26.1-48.6-14.5-33-27.8-83.3-31.6-119.6-1.4-13.9-.7-39.9 1.6-52.5.9-4.9 4-19.1 7-31.5 7.9-32.7 9.1-38.6 11.9-58.5 7.9-56.3 12.7-100.8 20.1-186.5 6.6-78.1 7.1-84.7 8.5-130.6 1.7-53.3 4.6-76.3 13.1-102.3 6.9-21.2 15.2-36.7 32.9-61.6 36.3-51 43.5-64.7 55.9-106.4 11.8-39.3 16.9-64.2 19.1-93.2 2.4-32.6-4.4-67.6-19.4-98.4-11.4-23.6-19.6-34.8-47-64.2-10.6-11.5-22-23.9-25.3-27.8C122.8 105 110.2 77.8 107 43c-1.1-12.7-1.3-33.4-.4-39.2l.7-3.8h12.2v20.8c.1 15.7.5 22.9 1.9 29.7 5.9 30 21.4 55.8 55.5 92.5 26.2 28.2 35.7 39.7 46 55.5 17.3 26.5 28.9 58.1 32 86.7 1.4 12.4 1.4 45.5.1 58.9-2.3 22.4-7.4 47.6-15.5 75.8-14.8 51.3-21.1 64.4-51.5 106.6-35.2 48.9-45.9 74.1-50.5 119.3-1.5 15.5-4 76.1-3 77 .3.3.5-.3.5-1.4 0-4.1 8.1-34.9 13.3-50.5 11.2-33.9 22.4-57 49.2-101.4 25.8-42.8 36.3-64.6 47.9-100 12.4-38.1 20.6-74.2 25.2-111.5 2.4-18.9 2.4-59.5 0-79-4.2-35.4-14.2-73.7-25.1-96.6-9.3-19.3-19.2-30.7-51.8-59.3-29.2-25.6-41.1-38.5-49-53.1-7.6-13.9-12.7-35.2-14.2-58.8l-.7-11.3 6.8.3 6.9.3.2 4c.7 10.7 2.6 24.8 4.4 32.5 6.2 27 16.9 40.9 60.4 78.7 18.5 16.1 32.8 30.8 39.6 41 16.6 24.5 29.6 68.2 35.5 118.8 2.2 18.5 2.5 63.1.6 81.5-4.1 39.9-13 82.4-24.8 118.5-11.6 35.2-20.8 54.4-48.9 101.5-21.1 35.3-30.2 52.3-37.3 69-10.4 24.7-19.2 52.9-24.7 79.3-6.5 31.7-8.3 49.1-9.5 95.2-1.5 53.8-4.3 86.8-12.6 147.5-20 145.9-20.6 153.7-14.3 189.5 2 11.4 9.8 40.9 10.6 40.1.3-.2-.2-4-1.1-8.3-2.8-14.1-3.6-23.2-3.6-39.6 0-34.7 7.5-98.6 24.1-206.2 6.5-42.5 9.4-61.4 14-92 6.1-40.8 8.7-54 15.4-76 8.6-28.3 22.1-59.7 47.2-110 37-73.9 48.9-100.8 60.1-135.5 9.9-30.8 17.1-65.1 20.9-100 3-28.4 2.4-70.3-1.7-110-6.2-58.9-18.2-112.8-34.1-152.7-14.6-36.7-30.6-63.9-58-98.8C190.1 48.4 184.2 40 178.2 29c-4.6-8.5-9.2-21.4-9.2-25.9V0h6.5c5.4 0 6.7.3 7.2 1.8 5.3 15.4 13.4 28.3 39.5 63 9.7 12.8 21 29 25.1 36 24.7 41.4 40.8 85.1 51.6 139.7 23.8 120.3 21.1 212-8.9 301.5-10.5 31.5-20.3 53.6-53.7 120.5-29.1 58.5-38.6 79.8-48.6 109.5-9.4 28.1-13.3 46.2-19.7 91-2.3 15.7-7.9 53-12.5 83-24.6 159.4-28.3 201.7-21.1 237.7 5.9 29.6 15.7 57.5 40.8 116.3 28.2 66.1 37.8 100.2 44.2 157.5 3.6 31.6 4.8 79.1 2.6 95-1.3 8.9-6 27.5-9.7 38.5l-2.9 8.5-6.7.3c-6.4.3-6.7.2-6.7-2 0-1.3 1.6-6.8 3.4-12.4 4.7-13.6 7.4-24.5 9.1-36.7 4.1-28.7-1.2-97.6-10.6-138.7-2.9-12.7-6.2-25.1-6.5-24.7-.2.2.7 5.9 2.1 12.8 11.6 59.6 11.2 108.6-1.2 144.2-3.5 10.1-7 18.2-18.7 43.2l-6.6 14-7 .3c-6.4.3-7 .1-7-1.7 0-1.1 4.3-11.3 9.6-22.8 12.4-26.9 16.8-37.9 19.8-50 4.6-18.6 5.1-23.5 5-50.3 0-25.6-.8-35.1-5.2-61l-1.7-10.5-.6 21.5c-.7 23.3-5.9 73.1-10.5 100.3-4.5 26.7-12.7 55.4-20 70l-2.4 4.7h-7.5c-6.9 0-7.5-.2-7.5-2zm37.5-242.1c-5.8-20.6-10.6-32.7-38.5-96.4-34.9-79.6-40.7-114.6-31.5-191 2.7-22.8 3.7-33.1 2.9-30-2.5 9.4-13.6 60.2-14.9 68.5-4.4 28.2-2.7 47.7 8.6 94 10.1 41.3 21.7 68.8 45 106.6 12.9 21 24.1 41.7 28 52.1 1.3 3.4 2.5 6 2.7 5.9.2-.2-.9-4.6-2.3-9.7zm-51.8-429.1c-.2-1.3-.4-.5-.4 1.7-.1 2.2.1 3.2.4 2.3.2-1 .2-2.8 0-4zm4.8-41.3c.8-9.3 1.4-18.6 1.4-20.5-.1-3.5-4.2 36.5-5.3 51.5-.9 13 2.1-10.8 3.9-31z"/>
  <path
    d="M259 1597.5c0-1.4 1.2-6.4 2.6-11.2 3.5-11.6 3.5-22.3.1-45.3-1.4-9.6-3.7-28.1-5.2-41-7.3-67.1-11.5-82.2-38.3-137-37.2-76.1-58-146.3-63.3-214-1.4-18.3-.6-70.1 1.5-86 8.9-70.4 29-134.1 71.5-226.8 22.1-48.1 25.9-58.7 37.2-103.5 10.3-41.1 16.3-59.1 28.4-85.7 5.4-11.8 12.4-27.2 15.6-34.2 11.9-26 18.4-47.9 21-70.8.9-7.7 1-19.1.3-43-1.2-46.4-1.1-97 .4-130 1.4-32.2.7-55-2.8-82.2-10.3-81.2-33-158.1-77.4-262.5C245.9 13.2 242 3.1 242 2c0-1.8.6-2 7.3-2h7.2l3.9 9.3c45.7 108.1 68 181.5 79 260.2 2.4 17.3 3.6 32 5.3 63.5.4 8 .9 12.7 1 10.5 1-14.4 2.7-31.9 4.4-43.7 1.5-10.4 1.8-16.4 1.3-24.5-.5-8.9-.3-12.6 1.5-21 1.4-6.9 2.1-13.9 2.1-21.5 0-6.2.9-21.6 2-34.3 5.1-58.6 4.2-110.7-3-175.7-2.8-25-3.3-22.8 4.4-22.8h6.5l.6 5.3c.3 2.8 1 8.1 1.4 11.7l.7 6.5.8-9c1.2-15.4.7-14.5 8.3-14.5h6.5l-.6 6.3c-3.6 36.6-4.2 113.2-1.2 165.2 7 124.9 9.7 158 19.7 249.5 9.2 84.7 12.6 120 14.4 148.5 6.4 101.5 13.5 155.7 26.1 197.7 8.4 28.1 18.3 49.1 37.4 79.4 29.8 47.2 36.1 58.4 44.2 79.4 2.5 6.3 6.4 16.4 8.7 22.4 6.8 17.5 15.2 36.7 24.6 56.1 26.3 54.2 31.5 72.6 31.5 111.6 0 30.3-4.6 58.1-15.7 93.9-8.5 27.5-16.9 48.6-48.1 120.5-43.6 100.5-68.7 178.6-81.1 252.5l-2.8 16.5-6.6.3c-6.7.3-6.7.3-6.7-2.4 0-9.9 9.3-58.6 16.6-87.2 13.4-52.3 38.7-120.9 75.4-204.7 33.6-76.8 45.7-112 52.4-152.9 5.5-33 5.2-50.3-1-74.6-4.5-17.7-11.7-35.3-28-69.3-15.8-32.7-19.4-41.2-27.9-64.4-10.7-29.2-13.7-34.9-35.5-68.3-18.3-28-22.4-34.8-29.3-48.7-19.1-38-30.9-81.5-37.7-138.9-2.2-19.1-5.2-54.9-7.5-91.9-2.3-37.1-6.5-80.9-15.5-161.5-8.6-77.9-13.7-137-17-200.5-.7-12.1-1.6-23.1-2-24.5-.7-2.2-.9-2-.9 1.5-.6 21.7-2.3 45.2-3.6 50.9-1.3 5.8-1.4 7.9-.4 14 1.1 6.3 1 8.9-.9 21.1-7.6 50.4-8.3 94.5-2.7 182 3.6 57.1 4.5 72.8 5.6 99.5 2.9 76.2-5.5 139.6-28.2 212.5-8.2 25.9-15.9 45.5-37.6 94.3-7.4 16.8-15.9 36.9-18.9 44.6-10.7 27.7-11.7 30.2-15.2 36.6-1.9 3.6-9 14.6-15.7 24.5-20.2 29.9-27.7 43.8-40.2 75-23 57.3-26.1 93.3-11.7 136.7 5 14.9 15.7 37.7 24.6 52.3 3 5 11.7 20 19.2 33.5 25.8 45.9 36.1 61.9 53.3 83.1 16.5 20.2 25.6 32.9 33.5 46.2 17.7 30 27.6 61.4 32.3 103.2 1.8 15.1 3.1 64.3 2.1 72.8l-.7 5.7H352v-23.9c0-55.3-6.1-89.6-22.5-126.2-9.8-21.8-19.1-36.3-41-63.4-21.9-27.2-27.8-36.6-77.3-123-22.2-38.8-31.2-65.5-33.1-98.3-1.9-31.5 4-62.6 19.7-104.7 11.3-29.9 21.3-49 40.8-77 14.8-21.4 19.7-30.6 26.8-50.2 7-19.4 12.7-33.3 21.6-52.3 42.3-90.9 62.2-161.9 67-239 1.7-28.5.7-65.3-3.5-125.5-4.1-58.8-4.8-74.2-5.4-115.5-.5-38.5-.7-42.3-1.3-28.5-.4 8.8-1.3 25.2-1.9 36.5-.9 16.2-.8 25.8.2 46 .8 14 1.4 40.6 1.4 59-.1 30.3-.3 34.7-2.4 46.4-4 22.5-10.4 40.9-26.1 74.6-20.3 43.5-26.1 60-39 112-10.5 42.3-14 52.2-34.3 95.5-49.1 105.1-70.7 180.4-75.2 261.5-1.2 21.1 2.6 62.5 8.5 91.8 5.1 25.9 14.4 58.5 24.5 86.5 8.4 22.9 15.8 40.2 28.2 65.7 6.4 12.9 13.6 28.2 16.2 34 11.2 24.9 17.9 51.3 22.6 90.2 1.4 11.7 4.4 35.3 6.6 52.3 3.6 27.5 4 32.7 3.6 46-.2 9.2-1.1 17.8-2.1 22.3l-1.8 7.2h-6.9c-6.7 0-6.9-.1-6.9-2.5z"/>
  <path
    d="M466.5 1593.8c4.2-37.8 18.2-84 40.5-133.4 8.6-19 17.1-35.3 32-61.5 13.4-23.5 18.5-33.9 24.5-50.5 4.2-11.6 6.8-20 20.1-64.9 2.6-8.8 8.3-25.9 12.7-38 24.7-68.3 30.6-90.3 33.7-125.5 3.7-42.1-8-83.6-41.7-147.4-33.8-63.9-37.8-72-50.1-101.6-11.3-27.2-18.9-44.5-33-74.5-18.9-40.5-25.2-55.6-32.7-78-15.1-45-21.4-80.2-26.5-147.5-7.9-103.8-9.6-118.9-27.9-250.5-10.9-78.2-15.9-122.1-19.7-172.5-1.8-24.5-3-106.2-1.9-131.7l.7-16.3h14l-.6 3.3c-1.4 8.2-2.8 56.1-2.2 77.7 2 69.7 7.2 123.2 23.1 237.5 16.8 120.1 19.6 144.9 26.5 236 8.5 111.3 16 140.7 60 234 12.6 26.9 16.7 36 35 79.5 9.2 21.7 18.5 40.8 35 71.5 34.8 64.9 48.2 98.2 53.6 133.1 2 13.2 2.3 46.9.5 62.4-3.1 26.6-9.9 52.5-24.7 93.6-13.5 37.5-16.9 48-25.4 77.4-7.5 26.2-14.3 47.4-18.8 58.7-3.4 8.2-14.2 29.4-24.7 47.8-36.5 64.7-60.7 128-67.8 178l-1.3 9-6.8.3-6.8.3.7-6.3z"/>
  <path
    d="M513 1596.6c0-8.5 9.9-51.3 17.9-77.7 13.3-43.7 31.7-90.6 65.1-165.9 55.3-124.5 75.5-190.6 81-264 4.2-56.4-5.2-122.8-24.2-172-6.6-17.1-15.3-34.4-36.5-73-50.8-92.5-69.3-132.1-90.4-193.8-13.7-39.9-19.9-65.4-28-114.9-5.2-31.9-9-50.6-18.3-89.8-8.6-36.4-12.2-55.5-14.6-76.8-1.5-14.5-3.6-77.2-6-180.2-1.3-57.8-3.8-136.7-5-161-.5-10.4-1-20.9-1-23.2V0h13v3.3c0 1.7.7 17.8 1.5 35.7.8 17.9 2.1 59.7 2.9 93 5.4 216.8 5.4 215.6 8.7 239 1.8 13.5 6.9 39.1 12.5 63 7.8 33.5 11.6 52.3 17.4 87.5 7.9 48.4 14.8 77.1 28 116.5 20 60.1 42.1 108.1 86.5 188 28.6 51.5 37.4 70 47 98.5 8.2 24.6 15.5 59 18.7 88.5 2 19 1.7 78.3-.5 97.5-4.5 38.5-12.6 73.9-26.9 117.5-12.7 38.5-23.2 65-57 143-33.1 76.3-44 103.5-56.2 140.7-10.1 31.1-14.3 47.1-22.2 86.1-.4 2-1 2.2-6.9 2.2H513v-3.4z"/>
  <path
    d="M544 1597.2c0-3.8 5.2-29.4 9.1-44.7 11.6-46.2 23.1-71.1 60.9-131.5 26.2-42 39.4-65.6 53.5-96 26.2-56.3 39.6-103 45.9-159 3.7-33.4 4.1-40.1 4-84.5 0-49.8-1.1-64.4-7.5-98-8.7-46.1-17.5-68.8-42.4-110.5-40-66.7-71-132-114.4-240.5-34.4-85.9-40.7-105-49-147.5-12.2-62.9-17.2-149.6-17.5-304-.3-97.8.2-89-10.1-176.2l-.6-4.8h13.7l3.2 25.3c6.9 54 6.5 44.7 6.7 149.2.4 181.8 6.4 265.2 24.1 332.5 7.6 29.2 17.9 57.6 44.7 124 42.1 104.3 74.9 172.9 110.6 231 11.8 19.2 20.3 35.4 25.9 49.5 24.4 61.3 32.1 138.8 23.6 237.4-6.6 77.6-22.3 133.1-57.5 203.2-14.4 28.9-30.6 57.1-49.9 86.9-33.8 52.2-48.5 87-59.6 141-2 9.6-3.8 18.1-4 18.8-.2.8-2.5 1.2-6.9 1.2-6.5 0-6.5 0-6.5-2.8zM579 1598.2c0-4 14.1-40.5 26.5-68.7 14.8-33.8 58.4-118.8 77.8-152 13.2-22.6 37.7-57.5 41.3-58.9 2.7-1 8.1-.6 9.2.7 2.2 2.6 3.4 15.8 3.4 36.7.1 24.4-1.1 36.3-7.7 79.5-7.2 47.8-7.5 51.6-8.5 110.5-.5 29.4-.9 53.6-.9 53.8-.1.1-3 .2-6.5.2h-6.5l.5-26.7c1.9-100 1.8-97.7 9.8-149.8 5.9-38.6 8.7-70.5 6.9-76.9-.9-2.9-1.2-2.6-11 12-18.5 27.4-36.4 60.1-69.7 126.4-23.8 47.7-32.8 67.7-45.2 100.5l-5.2 14-7.1.3c-6.4.3-7.1.1-7.1-1.6z"/>
  <path
    d="M636 1598c0-1.1 3.3-10.4 7.4-20.8 11.7-29.4 19-50.7 42-121.7l2.3-7 5-.3c7.7-.5 7.8-.1 7.6 21.2-.1 13.3-.8 23.1-2.8 37.1-5.5 39.5-5.6 41.3-4.9 68.3l.7 25.2h-13.1l-.7-25.2c-.7-24.4.1-40.4 2.5-55.5 1.7-10.3 1-9.1-5.1 8.7-7.3 21.4-17.5 49.2-22.7 62l-3.8 9.5-7.2.3c-6.7.3-7.2.1-7.2-1.8zM731 1579.8c0-11.2.7-27.9 1.5-37.3 2.3-25.8 3.5-36.5 11.5-99.5 14.6-113.9 13.3-98.3 20-233 2.9-57.3 5.2-81.4 13.4-137 5.6-37.8 8-62.5 10.6-108 3-51.2 3.7-103.1 1.6-123-4.7-43.8-10.1-69.1-32.7-153-31.5-116.8-36.1-132.4-80.4-270-34.6-107.4-46.7-146.8-61.5-200-16.7-59.8-25.5-97.4-37.5-160-3.6-19-7.7-39.2-9.1-44.8C564.9-.6 564.8 0 572.5 0h6.4l1 3.8c2.4 8.9 6.3 27 9.5 44.2 18.2 96.3 39.3 174.8 86.6 322 4.9 15.1 15.1 47.1 22.8 71 28.2 87.4 37.5 118.8 66.1 223.5 20.6 75.6 23.6 87.5 28.5 111.3 10.6 51.4 12.2 80 9.1 159.3-2.5 62.6-4.8 90-12.5 147.4-9.6 71.2-11.3 90.6-15 172.5-3.1 69.1-5.8 101.2-12.9 157.5-15.5 121.3-17.1 136-17.8 164.8l-.6 22.7H731v-20.2z"/>
  <path
    d="M782.7 1568.3c.6-31.5.1-46.2-3.2-92.3-2.4-33.3-3.5-77.4-2.5-103.1 1.3-31.6 2.5-41.6 16-129.4 15.5-100.8 16-106.4 18.5-195 1.5-55.5 1.7-60.2 4.1-88.5 5.7-69.4 7.2-111.2 5.6-148.8-3-66.5-7.7-95-31.7-191.2-5.7-22.8-14-57.9-18.5-78-24.5-109.9-33.8-142.9-60.3-215.5C692.6 277 686 256.8 670.5 204c-4.7-16.2-14.4-47-21.5-68.5-7.1-21.4-15.4-47.4-18.4-57.6C622.4 49.8 615 15.2 615 4.3V0h12.8l.7 5.3c3 22.7 12.4 58 29.9 111.2 6.3 19.3 14 43.6 17.1 54 24.1 81.4 29.2 97.2 44.2 137.5 21.3 57.2 29.6 83.8 43.2 137.6 7.4 29.4 11.2 46 26.5 113.9 5.2 23.1 13.7 59.1 18.9 80 10.5 42 12.7 51.6 15.6 68.5 5.6 31.6 8.6 61.2 10.2 99.5 1.6 39.5.3 76-5.6 157-1.9 26-3.3 54.5-4 82.5-2 80.6-5.3 117.4-17.1 192.5-18 114.7-20.5 139.3-18.5 181.3.7 13.6 1.6 29.9 2.1 36.2 4.3 51.8 5.6 85.4 4.5 119.3l-.7 23.7h-12.7l.6-31.7z"/>
  <path
    d="M816 1598.8c0-.6 2.2-12.4 4.9-26.2 11.8-59.9 15.9-96.1 18.2-160.5 1-25.8 1-41.1 0-68-1.4-42.2-1.5-98-.1-119.6 1.3-20.7 3.4-43.3 7-77.5 4.1-38.9 5.7-59.6 7.5-99 .9-19 2.5-46.6 3.6-61.5 7-95 6.9-110-.6-205.5-9.3-116.3-22.9-201.8-43.4-273.2-8.7-30.3-15.4-50.1-38.6-113.8-5.6-15.5-15-44.7-28.5-89-11.5-37.5-19.5-60.7-30.5-88-5.7-14-14.7-36.3-20-49.5-18-44.5-28.2-79.2-34.5-117-2.5-14.9-6-43.9-6-49.1 0-1 1.7-1.4 6.4-1.4h6.5l.5 4.2c.3 2.4 1.1 8.8 1.6 14.3 3.2 29.6 11.1 65 21.1 94 6.3 18.5 10.1 28.5 28.2 73C736 226.8 747.8 260.7 763 311c9.3 30.8 16.8 53.2 33.8 100.5 7.7 21.5 16.5 46.9 19.6 56.5 22.6 71.1 37.6 150.3 48.1 254 12.1 119.5 13.1 160.7 6.5 261.5-1.7 26.5-3.9 62.4-5 83.5-1.4 25.9-3.2 46.9-7.5 88.5-8.7 83.1-9.2 96.7-7 167.7 1.8 59.5 1.6 86.7-1.1 131.7-2.9 48-7.4 81.8-16.6 125.2l-4.3 19.9h-6.7c-4.5 0-6.8-.4-6.8-1.2zM872.4 1590.8c6.5-91.9 7.4-118.3 5.7-185.3-2.1-83.5-2.4-132-1.2-163.7 1.1-28.3 3.5-72.4 4.6-83.8.3-3 1-12.9 1.5-22 .6-9.1 1.5-23.2 2-31.5 4.1-64.3 4.5-74.7 4.4-136.5 0-44.1-.5-72.2-1.7-95.5-4-76.9-4.9-111.7-5-176.5-.1-84 1.7-121.5 8.9-187.5 7.2-66.3 12.9-88.8 37.9-149 18.2-43.8 27.6-77.3 35-125.2 5.5-35.3 11.1-56.4 32-118.8 19.4-58.3 26-80.2 30.4-101.7l2.7-13.3 13.7-.3c10.6-.2 13.7 0 13.7 1 0 .7-.4 4-1 7.3-.5 3.3-2.1 16.4-3.5 29-3.2 29.2-4.5 36.9-10.5 64.5-6.7 31.1-7.8 37.1-9.2 52.5-3.5 38.8 7.5 79.6 35.3 130.5 26.4 48.5 34.3 67.7 38.9 94.5 2.9 17.2 12.1 97.4 15.5 135 6.4 70.9 7 173.6 2 310.9-2.2 59.2-3.3 76.5-9.5 148.1-8.2 94.2-7.5 78.6-7.2 158 .3 80 0 87.5-7.3 174-.8 9.4-2 24.7-2.7 34-1.6 22.1-1.6 98.7.1 126.5 1.6 28.1 5.7 86.7 7.6 109.5.8 9.9 1.5 19.5 1.5 21.3v3.2h-12.8l-.6-3.7c-.3-2.1-.8-8.1-1.1-13.3-.6-10.4-2-29.5-3.6-49-2.1-26.6-3.8-61-5-97.5-1.5-47.8-.3-87.8 4.6-146.5 6.6-79 6.5-78 6.3-158.5-.3-79.6-.4-77.1 5.8-144 8.2-89 9.7-114.1 12.9-209.5 1.9-57 1.9-154.9 0-196.2-2.5-54.7-5.2-83.4-17-178.8-3.9-32.4-7.8-44.4-24.9-78-27.5-54.1-31.4-62.1-36.5-75-11.2-28-14.1-42.6-14.8-73.9-.8-32.3 1-47.1 11.1-90.6 1.4-6 3.2-15.9 4.1-22 2.2-15.5 5.6-45.7 5.2-46.1-.2-.2-.9 2.7-1.7 6.4-2.9 15.2-11.9 45.3-26.6 89.2-24.6 73.4-29.2 90.4-35.4 131-8.2 53.2-15.6 78.4-38.8 133-11.8 27.8-15.2 37.1-19.7 54.5-9.7 37.5-15.3 80.8-21.5 168.5-.6 8-1.3 38.6-1.7 68-.5 54 .3 96.7 3.2 156.7 5.9 123.3 6 168.9.5 266.3-.5 10.2-1.2 21-1.5 24-.3 3-1 13.2-1.5 22.5-.6 9.4-1.9 31.9-3 50-4.3 72.5-4.7 118.3-2 204 2 63.8 1.2 104-3.5 171.6-1.4 19.7-2.5 36-2.5 36.3 0 .3-3 .6-6.6.6h-6.7l.7-9.2z"/>
  <path
    d="M912 1599.3c0-.5 2-18.8 4.5-40.8 6.7-60.6 7-67.5 5.6-113-2.6-81.6-3.1-93.7-5.6-118-6.3-62.8-5.8-78 5.5-163.5 9-67.6 11-85.2 14.7-125.5 2-23.1 2.3-93.7.5-125.5-2.9-49.3-4.2-86.1-4.2-121.6 0-49.6 1.2-64.6 10-124.9 5.7-39.2 8.2-60.3 17-145 7.4-71.1 14.9-122 23.5-159.5 1.3-5.8 4-17.5 6-26 2-8.9 4.8-18.1 6.5-21.7 3.5-7.1 10-14.6 16.9-19.7 4.1-3 5.7-3.6 10-3.6 4.9 0 5.2.2 8.5 4.8 12.8 17.5 23 42.9 28.9 72.2 5.6 27.6 7.6 51.6 12.2 150 2.2 46.8 4.2 77.4 7 111 4.8 56.1 5.4 64.6 6.5 93 1.4 39.6-.3 194.9-2.4 214.5-2.9 27.4-5.7 47.2-14.5 104.5-3.6 23.1-8.6 59.7-10 73-8.1 74.7-8.2 189.9-.1 341 .5 10.2 1.4 28.6 2 41 .6 12.4 1.5 31.1 2 41.5.5 10.5 1.3 28.8 1.6 40.8l.7 21.7h-13l-.7-19.7c-.6-17.9-3-68.3-5.6-120.3-.5-10.7-1.4-29.6-2-42-.5-12.4-1.6-33.1-2.2-46-.8-14.4-1.2-54.7-1.3-104.5 0-67.8.3-85.2 1.8-106.5 4.1-58.5 7.1-84.6 16.2-142.5 14.5-91.7 14-83.6 14-210.5 0-79.1-.3-111.5-1.3-122.5-.7-8.2-2.4-26.9-3.7-41.5-4.4-48-7.3-96-10-167-3.4-86.4-13.7-135.4-35.4-167.9-2.2-3.3-12.7 9.2-16 19.1-3.3 10.2-13 54.2-17.5 79.8-5.8 32.7-10.3 67.6-17.1 133-7.8 75-7.4 71.4-17.9 143.5-6.8 46.7-7.1 51.6-7 109 0 36.1.5 60.7 1.7 80.5 3.9 66.5 4.5 126 1.7 163.5-2.2 29.1-6.6 69.1-13 116.5-5.7 42.5-10 79.1-11.1 93.3-1.3 16.7-.5 35.5 2.7 65.7 2.9 27.1 3.5 37.1 4.4 66 .5 16.2 1.4 46.4 2.1 67 1.5 45 .6 66-4.5 107-1.9 15.1-3.7 30.7-4.1 34.5-1.2 13.2-.7 12.5-8.1 12.5-3.5 0-6.4-.3-6.4-.7z"/>
  <path
    d="M958 1585.8c0-7.9.5-26.4 1-41.3.5-14.8 1.4-41.6 2-59.5 1.8-56.9 6.2-176.4 8-219 .5-12.9 1.4-35.4 2-50 .6-14.6 1.7-42 2.5-61s2.2-50.7 3-70.5c.8-19.8 1.7-39.8 2-44.5.3-4.7 1.2-23.8 2-42.5 7.4-170.6 14.3-261.6 25-328.5 6.6-41.7 7.3-61.7 3.6-109.4-3.2-40.7-4-66.9-3-87.7.9-18.2 4.1-39.1 7.6-49.9l1.8-5.5h11l1.3 4c2.7 8.2 11.2 42.5 14.6 59 11.5 56.4 16.4 110.7 17.3 190 1 98.5-.8 115.4-24.6 224.5-10.2 46.8-13.9 69-16.6 101-2.2 25.3-3.8 83.7-3.1 111.5.3 13.2 0 64.7-.6 114.5-1.2 98-.6 133.3 3.3 181.5 2 25.3 2.6 31.6 7.9 79.5 5.2 46.5 7.1 69.9 7.7 94.3l.6 23.8-6.4-.3-6.4-.3-.7-19c-.7-21-3.2-51.3-7.8-94-4.3-39.7-7.8-74.7-9-91-2.2-29-3.2-85.4-2.5-140 .4-30.2.9-93.5 1-140.5.4-106.2 1.6-128.2 10-177.7 3.3-19.2 5-27.7 17.9-87.3 15-69.5 17.2-92.8 16.3-174.5-1-89.5-7.6-151.5-22.4-213l-2.7-11-1 6c-1.6 9.8-1.2 59.6.7 82.5 4.8 59.4 4.5 82.1-1.8 125.5-11.8 82.2-16.7 140.4-22.5 266-.5 12.1-1.7 36.4-2.5 54s-1.9 42.6-2.5 55.5c-.6 12.9-1.7 37.9-2.5 55.5s-1.9 43-2.5 56.5c-.6 13.5-1.5 34.4-2 46.5-.5 12.1-1.4 33.5-2 47.5-.5 14-1.7 41.7-2.5 61.5-3.6 88.6-8 215.5-9 261-.4 14.3-.8 27-1.1 28.3-.4 2-1 2.2-6.4 2.2h-6v-14.2zM1132.6 1598.8c-.3-.7-.7-3.1-1-5.3-.3-2.2-1.9-13-3.6-24-9.7-65.9-15.6-127.8-18.1-192.1-1.4-35.8-.6-109.9 1.6-142.9 3.7-57.3 6.9-111.8 9.5-161.5 5.9-117.2 9.8-160 23.9-268.6 8.8-67.5 9.8-74.8 12.5-98.4 3.7-31.3 6.3-57.9 8.6-88 4.5-56.9 10.3-99.2 21-151.5 8.1-39.7 14.8-53.9 50.8-107.5 19.1-28.3 19.2-28.4 19.2-12.3v10.8l-15.4 23c-34.1 50.9-36.3 57.2-50.6 143-7.9 47.6-8.9 55.9-12.5 104.5-3.1 41.4-8.6 90.6-17.5 158-13.5 102.2-16.2 125.9-20.9 190-2.5 32.6-3.4 48.5-7.6 129-3 58.1-3.6 68.2-5.5 99.5-1.1 17.6-2.5 41.7-3.2 53.5-2 32.6-1.7 113.2.5 147 3.9 59.9 10.2 117.6 19.2 175.3 1.4 8.8 2.5 16.7 2.5 17.8 0 1.7-.8 1.9-6.5 1.9-4.4 0-6.7-.4-6.9-1.2z"/>
  <path
    d="M1157.7 1590.3c-4.9-28-9.1-63.5-13.2-111.8-1.4-16.5-3.2-37.6-4.1-47-3.7-42.3-4.6-62.8-4.6-103-.1-52.2 2.3-89.9 10.3-167 6.8-65.3 9.5-97.1 12-137.5.6-10.5 1.3-55.2 1.4-103 .3-86.4.6-96.7 4.6-126.4 4.5-34.4 7.2-46.7 35.3-164.6 12.3-52 24.8-104.6 27.6-117 6.1-26.9 10-41.8 14.6-56.2 4.5-13.9 10.2-28.1 11.7-29 3.4-2.2 3.7-1 3.7 14.2 0 14.4-.2 15.5-3.6 26.8-4 13-6.8 24.7-31.4 126.7-34.7 143.8-41.1 173.1-45.4 207-.8 6.6-1.8 13.8-2.1 16-.3 2.2-1 45.9-1.4 97-1.1 117.3-1.9 133.2-12.1 236-8.4 85.5-10.3 107.4-12 145-2.2 49.5-.5 88 7.6 170 6.4 65.3 10.1 95.5 14.4 119 2.9 15.6 3.2 14.5-4.8 14.5h-6.9l-1.6-9.7z"/>
  <path
    d="M1196.2 1593.8c-.6-3.5-2.6-14.9-4.6-25.3-4.4-24-6.8-45.5-10.3-91.5-2.5-32.8-2.7-41.7-2.8-87.5 0-32.8.4-56 1.2-65 4.5-50.5 12.1-172.1 17.3-277.5 6.8-138.5 10-163.4 38.5-299 5.7-27.2 11.9-57.4 13.7-67 1.8-9.6 3.6-17.7 4-17.8.5-.2.8-1.2.8-2.3 0-1 .7-1.9 1.5-1.9 1.3 0 1.5 3.7 1.5 27.4v27.4l-9.6 45.3c-25.8 122.6-30.8 159.6-36.4 270.9-2.7 54.4-4.1 81-5 97.3-.5 9.7-1.5 25.9-2 36-3.3 58.3-8.9 138.4-12.2 174.2-1.8 19-1.5 78.3.5 105 .9 12.1 2.2 31 2.8 42 .6 11 1.2 20.1 1.3 20.3.2.1.6-15 .9-33.5.3-18.6 1.5-46.8 2.7-62.8 3.4-48.5 4.3-64.9 7-137.5 4.4-115.3 9.9-162.7 28-242 7.5-32.7 13.4-60.6 15.6-74.2 1-6 2.2-10.8 2.6-10.8.4 0 .8-1.3.8-3 0-2 .5-3 1.5-3 1.3 0 1.5 3.9 1.5 28.8v28.7l-4.5 20c-23.4 103-27.6 136.9-32.5 262-3.1 80.4-4.3 102-8.2 145.5-3.6 41.7-3 95.2 1.8 146.5.8 8.8 1.7 19.3 2.1 23.3l.6 7.2h-19l-1.1-6.2zM1238.4 1575.3c-1.4-39.1-1.1-154.7.4-176.8 2.5-36.8 5.4-61.6 12.9-112.7.3-2.1 1-3.8 1.4-3.8.5 0 .9-1.1.9-2.5 0-1.6.6-2.5 1.5-2.5 1.3 0 1.5 4.7 1.5 35.9 0 24.8-.5 40-1.5 49.3-4.1 37.9-4.9 56.2-5 117.3 0 33 .4 73.6.8 90.3l.8 30.2h-12.9l-.8-24.7zM0 1548.8v-9.3l8.3-8.5c22.4-23.2 30.7-33.8 37.3-47.5 2.4-4.9 5-11.7 5.9-15 6.4-25.1-6.7-57.5-40.9-101.5L0 1353.5v-10.3c0-9.6.1-10.3 1.9-10 1 .2 7.2 7.1 13.7 15.3 29.1 37 39.5 54.4 47 79 2.6 8.4 2.8 10.2 2.8 27.5.1 18.2.1 18.6-3 27.2-6.5 18.1-16.2 31.6-42.5 59.1-9.8 10.2-16.8 16.7-18 16.7-1.7 0-1.9-.8-1.9-9.2zM401.5 1527.4c-4.6-2.4-8.3-6.3-13-13.9-8.1-12.9-12.5-27.5-16.5-53.9-3.9-25.4-7.8-37-23-68.1-8.2-16.8-12.2-23-22.8-35.5-17-19.8-18.9-22.8-26.8-41.1-11.7-27.2-16.7-34.7-30.4-44.7-4.1-3-10.5-8.2-14.1-11.6-3.7-3.4-9-8.1-11.8-10.5-10.2-8.6-20.3-26-24.9-42.8-2.4-9.2-2.6-11.2-2.6-31.8 0-24.6 1.1-32.4 8.1-54 6.9-21.7 11.9-32.7 38-83.5 17-33.1 25.1-50.8 36-78.5 20.1-50.8 36.7-106.9 47.3-159.5 2.2-11.3 4.8-22.7 5.7-25.5 4.4-14 12.3-23.9 22-27.5 6.7-2.5 20.5-2.8 26-.5 7.7 3.2 9.7 6.6 12.4 21.2 2.5 12.8 4.4 17.3 14.1 32.8 13 20.8 15.3 26.4 19.7 48.5 5.9 29.5 9.4 35.6 28.6 51 17.2 13.7 24.6 22.4 30.6 35.6 3.7 8.4 11 32.4 18.3 60.9 6.8 26.3 13.6 50.5 21.1 75 11.3 36.8 13.6 49.3 14.2 76.3.4 15.8.2 23-1.2 32.5-4.7 33.6-11.8 52.6-33.1 88.2-13.1 22-33.3 61.7-43.7 86-20.6 48.4-38 99.1-43.8 127.7-8.3 41-12.4 48.8-25.9 48.8-3 0-6.8-.7-8.5-1.6zm12.5-19.8c3.5-7.8 6.1-17.9 10-38.5 2.3-12.1 5.2-22.6 10.9-39.5 24.1-71.4 47.8-124.5 77.8-174.9 20.7-34.7 29.3-59.1 32.3-92 1.9-21.4-1.4-42.5-12.6-79.4-8.4-27.9-15.8-54.2-23.8-84.8-9-34.8-13-47.6-18.1-58-5.4-11.2-11.1-17.7-27-30.5-22.3-18.1-23.7-20.9-32.8-63.3-2.9-13.3-6.4-21.2-16.1-36.5-11.4-17.8-14.7-25.5-16.5-38.5-1.3-9.4-3-13-7.1-14.7-6.7-2.8-15.3 1.4-21.4 10.3-4.8 7-6.8 13.1-11.1 34.2-17.4 86.5-46.6 171.4-81.5 238-33.9 64.6-42 84.1-47 113.3-4.5 26.1-1.1 47.8 10.7 68.2 5.1 8.8 25.7 28.8 39.5 38.4 12.8 8.9 21.7 22.3 31.8 47.5 5.3 13.3 8.2 17.9 23.5 36.2 15.3 18.5 20.3 26.4 30.8 49.9 10.5 23.4 14.1 34.4 17.2 53.5 5.7 34.2 7.9 42.1 15.5 55.2 4.3 7.5 9.7 13.6 11.2 12.7.6-.4 2.3-3.4 3.8-6.8z"/>
  <path
    d="M377.5 1375.6c-7.4-2.4-12.9-5.8-19.4-12-7.7-7.4-12-13.8-24.1-36.6-18-33.8-21.9-39.6-41.3-61.5-21.4-24.2-38.2-60.1-44.2-94.6-2.2-12.1-2.9-33.7-1.6-45.1 2.7-23.9 10.8-39.4 38.1-73.8 16.2-20.3 23.8-31.6 29.1-42.8 6.6-14.1 8.8-18.1 16.4-29.7 22.5-34.1 54.1-60.7 81.5-68.6 4.9-1.4 9.7-1.9 19.6-1.9 18.4 0 25.7 2.3 37.4 12.1 15.9 13.2 29.2 39.1 33.5 65.2.9 5.3 1.9 21.9 2.5 39.2 1.3 41.8 2.5 48.4 15.7 89.5 12.1 37.7 15.3 52.3 15.3 70.3 0 16.8-4.1 28.9-13.9 41.9-2.7 3.6-12.1 13.1-20.8 21-29.6 27.1-33.5 32.6-46.8 66.3-14 35.7-24.2 50.1-41.5 58.7-6.2 3.1-7.1 3.3-19 3.5-8.3.2-13.9-.2-16.5-1.1zm26.8-14.9c7.5-3.4 17.9-13.8 23.6-23.5 2.4-4 8.1-16.4 12.6-27.6 14.7-36.2 20.3-45 40.5-63.6 28.9-26.5 34.1-32.6 39.1-45.5 1.9-5.1 2.3-7.8 2.2-17.5 0-10-.5-13.3-3.6-25-4.7-17.4-14.8-47.7-14.2-42.5.2 2.2.7 11.2 1.1 20 .7 18.7-.8 30.4-5.6 41.7-4.1 9.9-15.7 26.7-32 46.3-24 28.9-30.1 39.1-38.9 65.5-9.4 27.8-18.3 42.9-28.5 48.3-6 3.1-20.2 3.1-26.8-.2-11-5.4-18.8-15.9-20.7-28.1-.5-3.6-1.2-11.9-1.5-18.5-1.1-25.1-6.8-38-30.6-69.5-18.3-24.2-29.4-43.9-34.2-60.5-1.8-6.4-2.3-10.6-2.3-20.5 0-14.7 1.6-20.7 9.9-37.2 7.7-15.4 13.9-24.1 26.2-36.9 13.2-13.8 17.2-20.1 25.4-40.7 10.6-26.8 16.9-37.5 29.4-49.7 8.8-8.6 15.8-13.3 25.2-16.7 4.8-1.8 8.1-2.2 17.9-2.2 13.9 0 19.2 1.5 29 8.5 15.6 11.2 32.4 41.8 41.9 75.9l3.4 12.5-.4-19.5c-.9-34.8-2.7-47.3-9.3-64.7-7.6-19.5-21.3-36.9-34.1-43.1-9.6-4.7-16.1-5.6-25.2-3.6-33.4 7.4-73.4 45.6-95.2 90.9-7.5 15.4-16.3 28.7-32.1 48.5-20.3 25.4-29.1 39.9-34.2 56.7-2.3 7.9-2.6 10.4-2.6 23.8 0 11.6.5 17.4 2.2 25.5 3.3 15.5 9.3 32.7 17 48.5 9.9 20.2 14 26 33.4 48 10.6 12 16 20.5 32.6 50.9 7.8 14.3 15.8 28.1 17.6 30.7 4.6 6.1 10.9 11.2 18.7 15 7.8 3.7 14.4 3.6 23.1-.4zm-10.3-37.2c7.8-5.8 13.5-16.7 23-44 9.5-27.6 13.8-34.7 38.4-64.9 8.1-9.8 16.6-20.6 19.1-24 16.6-23.3 20.9-39.8 17.1-66.2-2.2-15.1-5.7-32.4-5-24.4.7 7.7-1.2 29.2-3.5 40-4.4 20-14.4 44-26.5 64-8.1 13.2-27.7 39.2-35.5 47.1-4 4-9 7.7-12.6 9.5-5.6 2.7-6.8 2.9-17.5 2.9-9.9 0-12.1-.3-15.6-2.2-5.7-3-11.9-10.4-15.9-18.8-3.9-8.3-10-27.1-11.5-35.8-2-11.2-6.9-29.3-9.7-35.8-1.5-3.5-4.9-10.4-7.6-15.3-9.5-17.6-12.2-26.5-11.5-38.4.5-9 2.5-13.8 7.6-18.5 14.6-13.5 17.2-16.3 21.4-23.4 5.3-8.9 7-12.5 13.9-30.6 10.2-26.8 15.6-37.1 24.6-46.7 8-8.7 13-11 23.8-11 5.3 0 9.9.6 12.1 1.5 5 2.1 14.4 11.4 22.1 21.9 3.7 5 11.2 15.2 16.7 22.6 5.6 7.4 12 17.3 14.3 21.9 2.4 4.7 4.3 8 4.3 7.5 0-.6-1.5-6.7-3.4-13.6-14.3-52-40.2-84.3-63.2-78.7-9.1 2.2-18.4 7.9-27 16.4-12 11.9-18.8 23.4-27.8 46.8-8.4 21.7-12.9 28.9-27.2 43.7-11.4 11.7-19.1 23-26.4 38.2-6.6 13.8-8.5 22.1-7 30.6 3.1 17.9 12.9 36.1 36.4 67.7 13.6 18.2 16.4 22.6 21.5 33.6 5 10.7 8.1 23.1 8.1 32.9 0 11.5 1.8 24.9 4.1 29.9 2.4 5.5 5.9 9.4 11.8 13.2 5.5 3.6 9.7 3.7 14.1.4zm4.6-74.9c8.5-3.9 13.8-9.5 31.6-33.1 24-31.8 39.1-67 42.8-99.5 2.8-23.9-4.6-48.6-20.7-69.5-3.8-5-10.9-14.6-15.8-21.4-13.6-19-21.8-26.2-28.1-24.7-3.6 1-15.1 12.7-19.2 19.8-3.9 6.6-9.9 20.3-14.9 33.8-5.4 14.7-14.7 32.8-20.6 40-2.9 3.5-8.2 8.8-11.7 11.7-3.6 2.8-7.4 6.8-8.4 8.8-1.7 3.3-1.7 4.3-.7 9.1.7 3 5 12.9 9.7 22.1 9.2 18.3 13 28.9 16.4 45.8 6.6 32.5 15.3 51.9 25.9 57.5 4.8 2.5 7.6 2.5 13.7-.4z"/>
  <path
    d="M387 1234.8c-5.5-3-10.2-9.1-15.7-20-5.4-11-7-18.3-8.3-36.6-1.1-17.7-2-22-6.7-32.2-4.4-9.7-6.7-22.9-5.9-33.5.9-10.9 4.7-18.5 17.9-35.9 13-17 16.3-23.6 22.2-44.1 5.9-20.3 6.7-21.9 12.4-22.3 4.1-.3 4.7 0 9.6 5 12.7 13.2 35.9 54.1 45.6 80.3 3.3 8.9 3.4 9.2 3.4 26.5 0 17.4 0 17.5-3.2 25.5-1.8 4.4-6.5 13.6-10.4 20.5-3.9 6.9-11.4 21-16.6 31.5-15.4 30.8-20.3 36.4-33 37.2-5.8.4-7.4.1-11.3-1.9zm13.9-14.3c3.6-3.1 9.4-12.1 15.6-24.5l4.7-9.3-4 3.2c-5.8 4.5-12 7.1-17.5 7.1-8.7 0-10-1.6-11.7-15.6-1.2-9.8-3-14.7-6.6-18.5-6-6.3-11.8-50-8.4-64.4l.9-4-2 2.5c-1 1.4-3.3 5.3-5 8.6-4.5 9-4 19.3 1.3 29.8 4.6 9.1 5.9 14.9 7.4 34.4 1.6 21.1 2.9 26.5 9.2 38.6 3.6 7 9.9 14.6 12 14.6.6 0 2.4-1.1 4.1-2.5zm8.5-44.8c5.9-5.9 10-15 13.1-29 2.7-12.1 1.9-18.8-3.3-27.6-5.3-8.9-14.7-19-20.5-22.1-4.2-2.2-4.4-2.2-7.1-.5-1.5 1-3.5 3.2-4.4 4.9-4.4 8 .3 44.3 6.7 52.4 3.8 4.6 5.9 11 6.8 20.4.4 4.9 1 6.8 2 6.8.8 0 3.8-2.4 6.7-5.3zm35.7-35.2c4.9-12.1 5.1-21.8.9-34.9-4-12.3-8.7-22.5-18.6-40.2-8-14.3-20.2-33.4-21.4-33.4-.3 0-2.1 5.4-3.9 12-3.7 13.4-8.1 23.4-14.5 32.5l-4.3 6.1 8.8-.4c7.7-.4 9.3-.1 14.3 2.1 9.9 4.6 21 16.9 27.6 30.8 2.8 6 3 7.1 3 18.1 0 10-1.2 19.4-3.6 28.3-1.1 4.2 8.7-13.4 11.7-21zM0 1507.3v-8.6l9-9.3c14.4-14.9 23-30.2 23-41 0-9.6-7.2-21.3-22.4-36.4l-9.6-9.5v-11.2c0-10.2.2-11.3 1.8-11.3 1 0 2.6 1.6 3.7 3.7s8 9.9 15.2 17.5c19.9 20.6 23.2 26.8 24.1 44.8.7 15.4-2 24.3-11.5 38.8-5.5 8.3-28.2 31.2-31 31.2-2.2 0-2.3-.3-2.3-8.7zM0 1188.5c0-8.1.2-8.7 3.5-13.4 1.9-2.7 5.6-9 8.1-14 7.9-16 10.8-26.8 16.8-63.2 34.6-209.5 40.5-369.7 18-489.4-8.5-45-17.4-66.8-38.9-95L0 503.6v-9.9c0-9.6 0-9.8 2.2-9.5 1.5.2 5.3 4.1 11 11.2 29.3 36.6 39.3 62 49.2 125.2 16.5 105.3 13.2 246.2-9.4 407.9-6 42.8-13.6 90.1-17 105.7-5.6 26-18.9 52.9-29.9 60.7-5.4 3.9-6.1 3.1-6.1-6.4z"/>
  <path
    d="M0 1077.5c0-12.1.4-16 2.4-23.9 3.4-13 5.5-27.7 7.2-51.1 1.3-19 2.7-35.4 5.9-72.4 4.9-55 9-205.4 6.6-239.8-2.7-37.9-10.4-76-19.7-97-2.1-4.8-2.4-7-2.4-16.9C0 566.1.2 565 1.8 565c2.1 0 9 10.1 12.7 18.5 8.3 18.6 16.6 56.4 19.5 88 1.8 19.6 2.4 68.9 1.1 101.5-.7 16.8-1.6 50.3-2.1 74.5-.9 41.7-2.2 63.9-6.5 108-.8 8.3-2.2 25.6-3 38.5-3.2 50-6.7 69.2-16.2 90.3-2.6 5.6-4.1 7.7-5.4 7.7-1.8 0-1.9-1-1.9-14.5zM757.5 888.1c-15.7-7.1-39.6-34.7-82.2-95.1-51.2-72.7-56.5-83.4-83.9-169.5-32.3-101.4-44.7-146.1-55.9-202-14.1-70.6-17.9-110.8-23-247-3.6-94.9-5-118.7-10.1-167.8l-.7-6.8 15.8.3 15.8.3 9.9 48c5.4 26.4 12.7 62.2 16.3 79.7 10.8 53.2 13.9 73.8 17.5 117.3 6.7 81.5 10.5 101.8 32 169 14.9 46.6 23.5 67.2 44.3 105.7 6.3 11.7 12.6 23.6 14.1 26.3 5.6 11 1.6-.4-12-34.2C622.3 430 603.6 352 578.5 192c-12.3-78.6-19.9-121.9-28.9-165.4-2.5-12.1-4.6-23-4.6-24.3 0-2.3.2-2.4 6.7-2.1l6.8.3 3.2 15.5c8.2 39 16.8 88.2 27.8 158 14.9 94.9 22.8 138.1 34.1 187.3 11.7 50.7 23.3 88 44.1 141.7 15.3 39.5 20 53.1 36.7 106.5 21.1 67.6 26.2 81.3 46.3 125.5 14.9 32.7 22.3 50.6 26.8 65.5 7.1 23.7 10 42.8 9.3 63.3-.5 15.6-2.5 22-7.9 24.7-4.1 2.2-16.4 1.9-21.4-.4zm14.2-14.3c1.5-2.7 1.8-5.6 1.7-16.8-.2-28.7-8.9-56.5-36.7-117-13.5-29.5-20.9-48.3-32.4-82.5-3.5-10.4-6.1-17.6-5.8-16 .3 1.7.9 9.1 1.5 16.5 1.7 24.3-.2 43.5-4.9 50-1 1.4-3.3 3.5-5.2 4.8-3 2.1-4.3 2.3-11.9 2-9.8-.4-16.7-3.1-24.3-9.8-10.1-8.9-14.9-19.9-19.7-45.2-6.4-33.6-20.7-81.9-44.5-150.3-10.3-29.8-16.6-50.2-23.4-76.5-14.9-57.9-25.2-122.9-29.1-183.5-3-46.9-7.4-95.2-12-132.5l-1.9-15.5.4 13.5c5.3 156.5 7.8 195.4 16.1 250 10.7 70.9 24.5 124.6 65 252.5 25.3 79.8 31.9 93.4 77.5 158.5 34 48.7 50.3 69.6 66.9 86.1 7.3 7.3 17.6 14.9 20.2 14.9.4 0 1.5-1.5 2.5-3.2zM682.4 699c3.8-4.5 4.9-10.1 4.9-23.5-.1-46.5-12.5-84.8-49.3-152-18.2-33.3-30.3-63.7-46.6-117.5-16.7-55-20.6-76.1-25.9-139.3-3.1-37.8-5-55.8-7.5-71.7-2.7-16.7-22.3-114.5-22.8-113.1-.2.5 1 13.3 2.7 28.3 6.7 59.5 8.9 83.9 11.6 127.3 4.6 74 16.4 144 35.6 211 4.5 15.8 8.9 29.3 24.9 76 16.8 49.2 30 94.5 35.5 122.5 5.1 26.2 8.8 36 16.7 44.6 3.4 3.6 14.3 10.4 16.9 10.4.4 0 1.9-1.4 3.3-3zM100.9 503.1c-49-13.6-82.5-70.6-94.5-160.6-2.4-18.3-3-62.6-1.1-79.5 4.2-35.5 13.7-67.3 26.2-87.7 7-11.3 19.9-23.8 30.2-29.1 12.1-6.3 20.8-8.2 37.1-8.2 16.5 0 23 1.4 36.7 8 28 13.3 53.1 40 69 73.3 7.5 15.5 9.5 24 10.2 41.8.9 23-1.3 38.7-12 85.9-2.5 10.7-5.5 25.4-6.7 32.5-11.3 66.2-32.1 106.4-62.8 121.6-5.9 2.9-7.8 3.3-16.2 3.6-6.9.2-11.3-.2-16.1-1.6zm23.9-14.7c8.8-4.3 21.2-15.9 28.1-26.4 13.6-20.9 23.3-49.2 30.1-88 1.7-9.6 4.9-25.4 7.1-35 12.1-52.4 14.3-74 9.4-92.2-7.4-27.4-32.2-61.9-57.6-79.7-28.3-20-53.3-21.4-78.3-4.2C36.8 181.4 17 237.5 17 295c0 36.9 6.2 75.8 17.1 107.7 5 14.7 15.3 36.1 22.5 47 13.8 20.7 32.2 35.1 52.4 40.8 6.7 1.9 7.6 1.8 15.8-2.1z"/>
  <path
    d="M94.2 465c-19.3-9.7-32.5-38.1-41.1-88.6-6.8-40-9.6-70.9-8.8-95.9.7-20.1 1.6-26.3 6.3-40.7 3.7-11.4 7.1-16.3 13.2-18.7 12.4-4.9 58.2-7.9 72.6-4.7 15.5 3.5 31.2 14 36.5 24.5 4.9 9.6 6 22.9 4.1 47.8-.6 7.1-1.2 32.8-1.4 56.9-.3 44.8-.7 50.9-4.7 66.9-4.5 18.1-16.2 35.2-31.6 46.2-10.5 7.4-16 9.2-28.4 9.3-9.8 0-11-.2-16.7-3zm22.9-11.1c6-2 16.4-9.6 23.5-17.1 7.5-8 12.2-15.8 16-27.1 5-14.6 5.6-21.6 6.5-76.2.4-28 1.1-55 1.5-60 1.5-19.6-5.5-31.6-23.1-40-3.8-1.8-9.4-3.8-12.3-4.4-8.2-1.7-23.9-1.3-39.5 1-18.7 2.8-21.6 4.3-25.1 13.6-6.4 17.2-8.1 29.6-7.2 51.8 1.5 36.6 9.9 89.9 18.2 115.3 4.5 13.8 12.5 29.2 18.3 35.1 8.1 8.3 15.1 10.7 23.2 8z"/>
  <path
    d="M101.4 416.8c-24.9-16.8-34-74.3-21.8-137 4.3-22.4 8.4-33 14.9-38.6 3.4-3.1 4-3.2 12.1-3.2 9.4 0 13.4 1.3 17.8 5.6 4.8 4.8 5.9 8.7 6.4 22.9.4 11.4.9 14.5 4.2 25.5 2.1 6.9 5.1 17.9 6.6 24.5 2.7 11.3 2.9 13.3 2.9 35 0 21.5-.2 23.8-2.7 34.2-4.2 17.5-10.6 29.1-18.2 32.7-2.1 1-6 1.6-10.4 1.6-6.2 0-7.5-.4-11.8-3.2zm17.3-14c3.2-3.4 7-12.3 10-23.5 2.4-8.7 2.7-11.6 2.7-26.8.1-19.2-1.2-26.5-8.6-50.5-3.9-12.4-4.2-14.7-4.8-28-.6-15.8-1.3-18-6.3-21-4.2-2.6-5.1-2.5-8.2.8-4.9 5.2-11 26.9-14.1 49.9-2.3 17.5-2.3 43.9-.1 55.8 3.9 20.1 10.6 35.2 19.3 43.2 4.9 4.6 5.9 4.6 10.1.1zM839 398.5c-12.8-3.6-21.1-9.9-28.4-21.9-10.9-17.7-16.6-39.2-26.1-99.1-8.3-52.1-11.7-59.3-55.4-116.5-24-31.5-33.6-53.8-40.7-94.9-2.1-11.7-2.7-19.2-3.1-37.8-.3-12.7-.3-24.3.1-25.7.6-2.5 1-2.6 6.9-2.6h6.4l-.5 16c-.5 18.6.7 32.6 4.9 53 5.1 25.7 11.1 41.7 22.1 59.5 3.1 5 14.1 20.3 24.5 34.2 26.3 35.2 35.5 51.1 40.4 70.3 2.2 8.6 5.6 26.9 9.4 51.5 9.8 62.4 20.5 89 39.9 98.5 3.6 1.8 8.6 3.3 11.7 3.7 18 1.8 34.7-17.3 45.9-52.4 4.2-13.3 16.9-67.7 31-132.3 21.3-97.9 37.6-161.5 50.2-196.2l2.1-5.8h6.8c5.6 0 6.9.3 6.9 1.6 0 .8-2.9 10.7-6.5 21.9-15.1 47.5-26.3 92-46 182.5-8.7 39.9-22.6 100.7-27.1 119-10.4 41.4-23 63-42 71.7-5.1 2.3-7.4 2.7-16.9 3-7.6.2-12.7-.2-16.5-1.2zM1136.5 327.3c-18.5-3.9-34.8-13.5-51-29.8-5.5-5.6-12.5-13.7-15.7-18.1-11.2-15.8-20.6-35.7-25-53-2.2-8.7-2.3-10.1-2.3-58.4 0-53.7.7-63.1 6.1-81.8 6.4-22 18.6-38.5 35.4-47.6 10.8-5.9 42-11.3 70.5-12.3 37.7-1.3 47.4 4.4 65.4 38.1 35.9 67.1 43.9 112.6 28.6 163.1-18.7 61.5-42.1 93.4-73.3 100.1-8.7 1.8-29.6 1.7-38.7-.3zm35.6-13.6c9.9-3.4 17.3-8.4 26-17.5 13.4-14.2 23.4-33.7 34.9-68.2 7.6-22.6 9.4-32 9.4-48.5-.1-26.4-8.1-52.9-28.1-92.9-10.2-20.4-15.6-29.6-20.8-35.4-4.8-5.3-12.6-9.6-20.7-11.3-10.5-2.3-45.7 1-65.8 6.1-12.6 3.2-18.5 6.5-27.1 15.1-6.3 6.1-8.6 9.3-12.3 17-10.3 21.2-12.6 38.1-12.6 91.2 0 41.4.4 45.1 6.2 61.5 9 25.7 28.3 52.6 48.3 67.5 20.3 15.2 45.2 21.3 62.6 15.4z"/>
  <path
    d="M1133 264.1c-14-2.1-24-6.8-32.5-15.5-10.1-10.3-14.9-21.5-22.5-53-4.5-18.6-7-26-12.1-35.7l-3.4-6.4v-25c0-23.1.2-25.6 2.3-33 7-24.1 22-38.7 46-44.7 7.5-1.9 11.5-2.2 29.2-2.3 18.7 0 21.1.2 28 2.3 12 3.8 20.6 8.9 28.5 16.8 11.1 11.2 18.5 25.6 23.1 45.1 2.3 9.6 2.7 13.5 3.1 35 .6 26.6-.4 38.9-4.2 53.7-5.2 20.8-13 35.3-24.6 46.1-11.9 11.1-25.3 16.2-44.4 16.9-6 .3-13.5.1-16.5-.3zm27-14.7c12-3.4 22.6-10.5 29.7-19.9 13.4-17.5 20.6-44.2 20.6-75.5-.1-51.1-19.1-83.1-54.1-91.5-5.9-1.4-10-1.6-20-1.2-20.8.9-33.2 5.6-44.3 16.6-13.1 13.1-18.5 32.2-16.7 58.8.6 8.3 1.2 11.1 3.2 14.5 4.1 7.1 7.5 17.2 13 39.3 9.5 37.7 15.5 47.8 33 56.1 11.6 5.5 22.8 6.4 35.6 2.8z"/>
  <path
    d="M1126.2 205c-5.4-2.2-9.1-6.3-10.3-11.5-1.6-6.9-6.3-16.9-14.8-31-4.5-7.5-8.1-15.1-9.8-20.3-2.3-7.5-2.5-9.3-2.1-21 .4-9.9 1-13.9 2.7-18.2 3-7.7 8.2-14.4 13.8-17.7 4.1-2.4 6-2.8 14.3-3.1 12.2-.5 18.2 1.6 26.6 9.2 6.7 6.1 10.6 12.4 13.1 21.7 2.8 10 2.5 49.8-.4 62.9-3.4 15.3-8 24-14.7 28.1-3.4 2.1-14.1 2.6-18.4.9zm12.1-16c6.7-7.9 11-29.1 10.4-50.5-.5-18.3-2.6-25-10-33.1-5-5.5-13-10.4-17-10.4-2.5 0-8.8 3.4-11.4 6.2-1.2 1.2-3.4 5-5 8.3-2.3 5-2.8 7.3-2.8 14 0 9.5 1.8 14.4 10 28.5 7.6 13 15.2 28.7 16 33.3.7 3.6 3.5 6.7 6.1 6.7.7 0 2.4-1.3 3.7-3zM850 208.5c-48-6.6-76.9-25.6-106.3-70-13.9-21-19.7-34.6-23.3-55-2.5-14.2-2.3-39.6.5-57.8 1.2-7.6 2.1-16.5 2.1-19.8V0h13v8c0 4.4-1 14.6-2.2 22.8-3.6 24.7-2.4 44.7 3.9 63.7 8.8 27.1 37.1 64.5 60.7 80.5 19.9 13.4 46.6 21.3 72.6 21.4 20.5.1 29.4-4 35.9-16.7 3.1-6 3.5-7.7 3.9-17.1.3-6.3-.2-16.8-1.3-26.7-1.9-17.9-1.6-29.8 1-46.6 3.9-24.2 14.3-57.6 25.7-82.6l3.1-6.7h7.3c6.8 0 7.4.2 7.4 2 0 1.2-1.1 4.3-2.5 7-7.1 14-18.7 46-23.4 64.6-6.4 25.3-7.6 37.6-5.6 58.9 2.7 29.4 1.6 47.4-3.5 57.4-4.6 9.2-14.5 16-26.9 18.7-8.2 1.7-29.2 1.7-42.1-.1zM0 186.8v-11.1l7.8-13.1C32 122.2 50.3 83 63.5 43.5 67 33.1 70.8 20.7 72 16c1.2-4.7 2.6-10.2 3.1-12.2l1-3.8H89v3.3c0 3.8-6.5 29.1-11.6 44.9-9.7 30.5-31.6 79.1-49.8 110.6C12.6 184.9 4 198 1.9 198c-1.8 0-1.9-.8-1.9-11.2z"/>
  <path
    d="M837.5 174.5c-34.9-7.2-61.9-47.5-79.4-118.5-4.5-18.3-7.7-35.9-8.7-48l-.7-8h12.9l2.7 16.3c11.8 71.6 37 124.6 66.4 140 27.7 14.5 45.6 2.6 45.7-30.3 0-5.8-.3-20.2-.8-32-.8-19.9-.7-22.2 1.3-31.8 3-14.4 7.1-25.1 17.1-44.7l8.7-17 7.7-.3c7-.3 7.6-.1 7.6 1.7 0 1.1-4.9 11.5-10.8 23.3-11.3 22.2-14.9 31.5-17.8 45.8-1.4 7.2-1.5 11-.8 26 1.3 25.9 1 44.3-.9 51.7-3.3 12.8-9 20.3-18.1 24.4-6.4 2.8-22 3.5-32.1 1.4z"/>
  <path
    d="M833.4 147.6c-6.5-2.9-16.1-19.8-26.9-47.1-12.2-30.6-26.8-79.6-28.2-93.9l-.6-6.6h13.2l1.1 5.8c3.6 18 16.2 59 25.7 83.2 5.5 14.3 17.3 38.5 20.6 42.5l2.5 3 2.7-2.5c5.3-5 9.7-16.3 11.5-30 .5-4.1 1.6-19.9 2.5-35 1.8-33.4 3.1-46.9 5.3-58l1.7-8.5 7.3-.3c8.2-.3 8.3-.3 5.7 8.2-3.6 11.9-4.5 20.1-7.5 73.1-2.2 39.3-7 55.7-18.6 63.8-4.9 3.4-13.2 4.5-18 2.3zM.2 103.8c.3-16.6.6-18.5 6-44.8 3.2-15.1 7.7-34.5 10-43L20.5.5l7.3-.3c3.9-.2 7.2.1 7.2.6s-2.5 10.1-5.6 21.3C26.4 33.3 21.7 53.5 19 67c-5.4 27.6-6.8 32.8-11.7 45.3-2.7 6.7-3.9 8.7-5.4 8.7-1.9 0-2-.7-1.7-17.2zM328.8 102.3c-7.7-8-14.1-19.4-25.8-45.8-7.1-16-12-26-16.6-33.6C282.7 16.7 278 5.1 278 2c0-1.8.7-2 7-2 6.8 0 7.1.1 8.1 2.8.6 1.5 3.7 7.4 6.9 13.2 3.2 5.8 9 17.5 12.8 26 7.4 16.6 14.2 31 14.6 31 .1 0-.1-2.8-.5-6.2-.4-3.5-1.7-17.8-2.8-31.8-1.2-14-2.3-27.7-2.6-30.3l-.6-4.8 6.8.3 6.8.3 2.2 27.5c1.2 15.1 3.4 36.1 4.9 46.5 3.7 27.1 3.7 27.1 3 29.9-.6 2.4-1.1 2.6-5.9 2.6-5 0-5.5-.3-9.9-4.7zM1253.5 65.2c-.5-.4-3.4-5.6-6.3-11.5-2.9-6-8-15.2-11.4-20.5-7.6-12.1-16.8-29.3-16.8-31.5 0-1.4 1.2-1.7 7.5-1.7 7.4 0 7.6.1 9.3 3.1.9 1.7 6.1 10.6 11.4 19.7l9.8 16.7v13.3c0 13.2-.4 14.7-3.5 12.4z"/>
  <g fill="#fff">
    <path
      d="M14.2 1592.1c8.1-10.2 16.1-23.1 28.3-45.6 5.4-9.9 15.3-26.3 22-36.5 19.1-28.9 24.3-40.7 25.2-57.1.9-15.3-2.1-23.6-17.2-47.4-9.9-15.6-11.2-18.3-16.5-31.6-5.8-14.7-16.9-37-23-46.4-6.3-9.6-13.6-18.8-24.7-31.2l-8.3-9.2.2-19.2.3-19.2 13 11.4c17.8 15.5 43.3 41.2 53.5 53.9 20.9 26.1 32.5 49.1 38.2 75.3 2 9.1 2.2 13.2 2.2 36.7 0 35.7-3.1 55.5-12.6 79.6-5.1 12.9-9.7 20.6-37.8 62.4l-21.4 32H8l6.2-7.9z"/>
    <path
      d="M55.1 1583.3c6.1-9.3 13.4-20.2 16.2-24.3 2.7-4.1 8.5-12.7 12.9-19.2 13.1-19.4 21.3-39 25.7-61.1 3.8-18.9 4.4-26.9 4.4-53.2-.1-28.9-1.2-37.4-7.3-55.6-6.4-19.1-21-43.7-38.1-64.4-10.8-13-39.2-41-55.7-55l-13.1-11v-22.7l-.1-22.7 3-2.1c11.1-7.9 24.4-34.7 30-60.8 3.4-15.6 11-62.9 17-105.7 15.1-107.9 21.9-213 19.1-292.2-2.1-56.9-6.4-97.4-15.1-140.2-8.8-42.8-20.9-68-48.4-100.4L0 486.1v-38.4l6.9 10.4c3.8 5.7 11.9 16.3 17.9 23.5 20.4 24.6 32.2 45.3 47.8 84.2 17.5 43.5 20.3 64 22 157.7.9 49.6-1 80-9.1 149-7.3 61.6-15.7 117.6-29.4 196.5-2.7 15.5-6.7 42.9-8.2 57-1.7 15.2-1.7 56.9-.1 68.5 5.3 37.1 12.7 55.5 45.2 112 16.2 28.2 23.5 41.8 29.6 55.5 23.7 53.3 27 103.8 10.2 160-4.7 15.9-17.8 50.2-24.9 64.9l-6.2 13.1H44l11.1-16.7z"/>
    <path
      d="M116 1585.8c15.5-32.4 26.4-66.4 31.7-98.3 2.5-15.4 2.5-54.8-.1-68.5-6.6-35.7-17.2-61.2-48.4-116.1-38.1-67.2-44-84-45.8-130.5-1.3-33 1.4-55.5 18.2-152.9 2.3-13.5 17.1-119.1 21.3-152 5.8-45.8 8.4-81.6 8.5-119.5.1-25.8-1.7-84.6-3-101C94.9 604.7 86 574.1 64 529.5c-10.6-21.6-18.6-33.9-35.6-54.5-13.5-16.4-17.3-21.8-22.2-31.6C-.3 430.5 0 436.8 0 310.7V196.3l8.4-13.4C29.8 148.6 49.6 110 62.8 76.8c9.5-24 14.8-40.5 20-61.4L86.5 0H110l-.7 12.3c-1.4 29.2 3.9 57.2 15.1 79.5 10.8 21.4 21.3 35 55.2 71.5 27.4 29.4 35.6 40.6 47 64.2 7.5 15.4 12.5 30.2 15.9 46.9 8.5 42.2 4.1 84.9-15.6 150.7-12.4 41.7-19.6 55.4-55.9 106.4-33.8 47.6-43.4 79.6-45.5 152-1.4 48.1-2.8 70.1-9.1 143-7.3 85.7-12.1 130-20 186-2.8 19.9-4 25.8-11.9 58.5-3 12.4-6.1 26.6-7 31.5-2.3 12.9-3 34-1.6 47 4 36.5 17.2 86.3 31.6 119.1 6.9 15.5 10.2 21.7 26.1 48.6 19.9 33.5 27.8 50.6 33.2 71.6 2.6 10.2 2.7 11.8 2.7 34.2-.1 20.9-.5 26.8-3.9 54-7.5 61-13.2 85.8-25.8 112.3l-5.2 10.7h-25.5l6.9-14.2zM130.3 498c30.6-15 51.4-55.4 62.7-121.5 1.2-7.1 4.2-21.8 6.7-32.5 10.4-46 12.9-63 12-82.5-.8-15.1-3.3-24.7-10.2-39.2-12.1-25.4-31.3-48.8-51.7-63.3-9.1-6.5-25.2-14.3-33.9-16.4-9.3-2.3-25.6-2.1-35.3.4-23.5 6-42.8 24.3-54.7 52.1-8 18.5-14.5 44.8-17.6 70.9-1.2 10.3-1.4 19.2-1 37.5.7 31.8 3.6 54.1 10.7 82 14.2 55.8 39.6 94.3 72.6 109.7 16.4 7.6 28.2 8.5 39.7 2.8z"/>
    <path
      d="M110 494.4c-44.8-9.2-78.5-60.9-91.4-140.4-6.6-40.7-6.4-80.1.5-113 13.2-62.3 39.6-93 79.9-93.3 11.1-.1 21.3 2.4 31.8 7.7 26.5 13.4 53.4 43.5 66.7 74.5 5.1 12 6.5 18.2 7.2 31.7 1 19.7-1.5 36.6-11.6 80.4-2.2 9.6-5.4 25.4-7.1 35-6.8 38.8-16.5 67.1-30.1 88-6.9 10.5-19.3 22.2-28 26.3-9.6 4.5-10.2 4.6-17.9 3.1zm14.2-31.8c8.1-3.3 17.5-10.4 25.7-19.3 11.4-12.3 17.6-26.9 21.2-49.8.9-5.4 1.4-21.3 1.4-48.5.1-22.3.8-49.5 1.5-60.5 1.5-22.4.8-29.8-3.5-39.3-5.2-11.3-20.7-22.1-37.1-25.8-10.1-2.2-34.7-1.5-51.9 1.5-14.4 2.6-16.4 3.3-20.9 7.7-2.8 2.7-4.2 5.7-7 14.2-4.4 13.7-5.5 20.3-6.3 37.7-.9 21.4 2.2 54 8.8 92.9 8.6 50.5 21.8 78.9 41.1 88.6 8 4 18.3 4.2 27 .6z"/>
    <path
      d="M105.5 458.1c-12.9-3.2-24.6-19-33-44.5-9-27.4-18-88.5-18.4-124.1-.2-21.4 1.5-32.7 7.5-48.8 2.2-5.7 3.2-7.1 6.7-9.1 8.8-5.1 48.7-8.6 63.2-5.6 7.7 1.5 18.8 6.8 24.3 11.6 9.7 8.3 12.8 17.5 11.8 35.9-.4 6.6-1 35-1.5 63-.9 54.6-1.5 61.6-6.5 76.2-3.8 11.3-8.5 19.1-16 27.1-8.2 8.6-18 15.4-25.5 17.6-5.8 1.7-7.9 1.8-12.6.7zm15.1-42.7c7.6-3.6 14-15.2 18.2-32.7 2.4-10.2 2.6-13 2.6-31.2 0-18.4-.2-20.9-2.8-32-1.5-6.6-4.6-17.7-6.7-24.7-3.4-10.9-3.9-14-3.9-22.1 0-22.2-5.4-30.7-20-31.5-6.4-.4-6.9-.3-10.4 2.9-6.6 5.7-10.6 16.2-15 38.7-8.7 44.4-6.5 85.1 5.9 110.7 9.2 18.9 21.2 27.1 32.1 21.9z"/>
    <path
      d="M105.6 405.8c-8.6-8.1-15.3-23.1-19.3-43.3-2.3-12.2-2.3-43.9.1-61.8 3.1-23 9.2-44.7 14.1-49.9 3.6-3.8 6.5-4.3 11.8-2 7.3 3.2 8.1 5.3 8.8 22.2.5 13.4.8 15.5 4.7 28 5.2 16.9 8.1 30.7 9.1 43.3 2 25-5.1 56.4-14.6 64.7-5 4.4-8.9 4.1-14.7-1.2z"/>
    <path
      d="M144.4 1596.8c15.9-36.1 20.8-57.5 28.3-122.3 3.1-27.1 3.7-35.3 3.8-53.5 0-17.1-.4-23.2-1.8-30-5-23.2-15.4-46.2-36.6-80.4-23.2-37.6-34.9-65.2-45-106.6-8.9-36.9-11.6-55.9-10.8-76.5.7-17 3-30.8 10.1-61.5 8.5-36.8 11.9-56.9 17.5-103 8.5-70.1 19.9-206.8 21.6-258.5 1.2-38.9 1.7-48.5 3.1-62.2 4.5-44.7 15.3-70.1 50.4-118.8 30.4-42.2 36.7-55.3 51.5-106.6 8.1-28.2 13.2-53.4 15.5-75.8 1.3-13.3 1.3-40.5-.1-52.9-3.1-28.6-14.7-60.2-32-86.7-10.3-15.8-19.8-27.3-46-55.5-34.1-36.7-49.7-62.7-55.5-92.5-1.4-6.8-1.8-14.3-1.8-31l-.1-22 8.2-.3 8.1-.3.7 8.8C135 30 139 48.5 145 61.6c7.4 16.4 20.4 31.1 51.7 58.5 32.5 28.5 42.5 40 51.8 59.3 10.9 22.9 20.9 61.1 25.1 96.6 2.4 20 2.5 64.9.1 84.5-4.6 37.5-12.8 73.6-25.3 112-11.6 35.4-22.1 57.2-47.9 100-19.4 32.1-29.8 51.8-38.4 72.1-16.7 39.9-27.7 85.7-31 129.4-1 12-1.5 24.2-3.6 82-1.2 31.1-4.7 64-14.1 131.8-11.8 86.1-14.5 110.7-14.5 135.2-.1 20.4 1.4 32.7 6.1 52.5 6.5 27.3 13.6 46.3 37.7 101 25 56.5 30.8 74 39.8 119.5 6.4 32.8 7.9 47.2 7.9 79 .1 30-.3 34.4-5 53.4-3 11.8-7.9 24.1-20.4 51.4l-9.4 20.2H143l1.4-3.2z"/>
    <path
      d="M163 1599.5c0-.5 3.3-7.8 16.8-37 13.6-29.4 19.2-54.4 19.2-85.6 0-33.9-9.3-89.4-22.2-132.9-5.7-19.2-11.7-34.5-28.8-73-30.3-68.5-38.6-95.3-42.1-135.5-2-23.3.1-43.7 17.5-170.5 7.9-57.7 11.2-94.5 12.1-136 .4-15.1 1-34.8 1.6-43.6 2.3-40.4 10.9-82.6 24.6-120.4 10.8-30.1 18.4-45.1 45.8-91 11.3-19 23.7-40.8 27.5-48.5 22.9-46.5 39.6-108.4 46.1-171 1.9-17.8 1.6-57.9-.5-76-5.8-50.5-18.9-94.3-35.5-118.8-6.8-10.2-21.1-24.9-39.6-41C162 80.9 151.3 67 145.1 40c-1.8-7.5-2.8-15.2-4.6-34.7L140 0h31.6l1.8 7c2.1 8.2 9.1 22.4 16.3 33 2.8 4.1 11.4 15.6 19.2 25.5 7.8 9.9 17.4 23 21.5 29 41.9 62.9 62.7 133 72.8 246 1.9 21.6 1.6 72.5-.5 92.5-3.8 35-11 69.2-20.9 100-11.2 34.7-23.1 61.6-60.1 135.5-25.1 50.3-38.6 81.7-47.2 110-6.7 22-9.3 35.2-15.4 76-4.6 30.6-7.5 49.5-14 92-12.5 80.8-18.4 126.7-22.6 173.5-5 56.4 2.3 87.9 42.7 184.9 26 62.3 33.3 84.8 39.8 123 7 41.4 10 99 6.5 123.9-1.8 12.6-3.4 19-8.7 35.5l-4.2 12.7h-17.8c-9.8 0-17.8-.2-17.8-.5z"/>
    <path
      d="M209 1588.6c4.5-13.2 8.5-29.2 10-39.1 2.2-15.2.9-57.4-2.6-89-6.4-57.3-16-91.4-44.2-157.5-25-58.6-34.6-86-40.8-116.2-3.5-17-4.3-44.8-2-71.3 3.7-41.5 8.6-78.1 23.1-172.5 4.6-30 10.2-67.3 12.5-83 6.4-44.8 10.3-62.9 19.7-91 10-29.7 19.5-51 48.6-109.5 12.1-24.2 24.9-50.3 28.4-58 31.9-68.6 45.8-123 49.5-193.3 2.4-45.2-2.8-101.7-15.3-164.7-10.8-54.6-26.9-98.3-51.6-139.7-4.1-7-15.4-23.2-25.1-36-26.5-35.3-33.4-46.1-38.6-60.6L178 0h66.6l5.8 13.7c36.1 84.4 57.2 147.2 70.5 209.9 5.9 27.6 11.3 64.2 13 88.9.9 12.9.5 57.8-.8 79-1.2 20.9-1.3 61.4-.1 82.5 1.5 25.9 1.5 59.1.1 71.5-2.7 22.7-9.2 44.6-21 70.3-3.2 7-10.2 22.4-15.6 34.2-12.1 26.6-18.1 44.6-28.4 85.7-11.3 44.8-15.1 55.4-37.2 103.5-42.5 92.7-62.7 156.8-71.5 226.8-2.1 16.2-2.9 62.1-1.5 80 5.4 67.8 26.1 137.9 63.3 214 26.8 54.8 31 69.9 38.3 137 1.5 12.9 3.8 31.4 5.2 41 4.3 28.4 3.6 42.8-2.6 59.3l-1.1 2.7h-55.8l3.8-11.4z"/>
    <path
      d="M269 1599.7c0-.2.9-3.9 2.1-8.3 3.9-14.8 3.7-28.5-.9-63.9-2.3-17-5.3-40.6-6.7-52.3-4.7-38.9-11.4-65.3-22.6-90.2-2.6-5.8-9.8-21.1-16.2-34-36.4-74.8-56.4-145.3-60.8-215-2.9-47.2 4.9-104.4 22.2-162.5 12.6-42.1 27.9-81 52.6-134 20.3-43.3 23.8-53.2 34.3-95.5 13.2-52.9 17.8-66.2 40.7-116 15.2-33.1 20.5-48.2 24.4-70.5 2.7-15.6 3.6-52.1 1.9-79.5-1.8-30.3-2-62.2-.4-86 2.4-35.6 1.9-77.6-1.2-104-9.9-84.2-35-169.2-82.8-279.8L252.1 0h28.6l2.3 6.3c1.2 3.4 3.9 9.1 6 12.7 5.2 9.1 10.1 18.8 17 34.5 11.7 26.4 18.1 37.8 25.8 45.8 5 5.1 8.6 6.1 9.7 2.7.3-1.1.4-2.8.1-3.7-1.3-4.4-5.7-41-7.5-63.3-1.1-13.5-2.3-26.9-2.6-29.7L331 0h12c7.7 0 12 .4 12 1s.9 9.1 2 18.8c7.4 66.1 8.3 121.4 3 181.7-1.1 12.7-2 28.1-2 34.3 0 7.5-.7 14.7-2.2 21.9-1.9 9.5-2 11.5-1 18.7 1 7 .9 9.7-.7 19.6-4.7 28.2-5.6 43.1-5.6 93.5 0 29 .5 55.9 1.3 68 .7 11 2.2 33.1 3.3 49 4.7 69.6 5.8 107.5 3.9 138.5-4.8 77.1-24.7 148.1-67 239-8.9 19-14.6 32.9-21.7 52.4-6.9 19.2-12.2 29.3-26.2 49.4-14.4 20.7-19.8 29.6-27.6 45.7-15 31.1-27.9 70.6-32 97.9-1.8 12.6-2.1 34.5-.4 46.2 3.6 26.2 13.5 52.4 32.1 84.9 49.5 86.4 55.4 95.8 77.3 123 21.9 27.1 31.2 41.6 41 63.4 16.5 36.9 22.5 70.8 22.5 127.7v25.4h-43c-23.6 0-43-.2-43-.3z"/>
    <path
      d="M361.4 1570.2c-.1-38.3-2.5-60.8-9.3-88.1-9.7-38.6-23.9-64.6-58.4-107-17.2-21.2-27.5-37.2-53.3-83.1-7.5-13.5-16.2-28.5-19.2-33.5-8.9-14.6-19.6-37.4-24.6-52.3-6.4-19.4-8.8-33.7-8.8-53.7 0-27.8 5.6-52 20.5-89 12.5-31.2 20-45.1 40.2-75 6.7-9.9 13.8-20.9 15.7-24.5 3.5-6.4 4.5-8.9 15.2-36.6 3-7.7 11.5-27.8 18.9-44.6 21.7-48.8 29.4-68.4 37.6-94.3 22.4-71.8 30.9-134.4 28.1-206.8-1-26.4-1.9-42-5.5-99.2-2.8-44.7-3.5-62.3-3.5-95 0-40.9 1.7-65.6 6.5-95 1.1-7.2 1.2-10.3.3-15.7-.9-5.1-.9-8.2 0-13 1.6-8.5 2.9-23.2 4.3-47.3 1.5-27.2 4.6-63.4 4.8-55.9.1 6.6 5.7 103.1 6.6 112.9.2 3.3.7 9.4 1 13.5 3.1 44.9 7 86.4 13.5 145 9 80.6 13.2 124.4 15.5 161.5 2.3 37 5.3 72.8 7.5 91.9 6.8 57.4 18.6 100.9 37.7 138.9 6.9 13.9 11 20.7 29.3 48.7 21.8 33.4 24.8 39.1 35.5 68.3 8.5 23.2 12.1 31.7 27.9 64.4 16.3 33.9 23.5 51.6 28 69.3 6.5 25.3 6.7 46 1 80.6-6.7 40.9-18.8 76.1-52.4 152.9-54.4 124.1-79.6 202.7-91.1 283.3l-1.1 8.2H361.5l-.1-29.8zm54.3-46.1c6.9-4.3 10.7-14.5 17.2-46.9 5.8-28.6 23.2-79.3 43.8-127.7 10.4-24.3 30.6-64 43.7-86 21.3-35.6 28.4-54.6 33.1-88.3 1.3-9.3 1.6-16.3 1.2-29.5-.7-23.9-3.4-37.9-14.2-73.2-7.5-24.5-14.3-48.7-21.1-75-7.3-28.5-14.6-52.5-18.3-60.9-6-13.2-13.4-21.9-30.6-35.6-19.2-15.4-22.7-21.5-28.6-51-4.4-22.1-6.7-27.7-19.7-48.5-9.7-15.5-11.6-20-14.1-32.8-2.7-14.6-4.7-18-12.4-21.2-13-5.4-30.1 2.5-37.5 17.3-4.2 8.3-5.6 13.3-10.2 36.2-10.6 52.6-27.2 108.7-47.3 159.5-10.9 27.7-19 45.4-36 78.5-26.1 50.8-31.1 61.8-38 83.5-6.7 20.8-8.1 29.7-8.1 51 0 17.4.3 19.8 2.7 28.8 4.5 16.8 14.6 34.2 24.8 42.8 2.8 2.4 8.1 7.1 11.8 10.5 3.6 3.4 10 8.6 14.1 11.6 13.7 10 18.7 17.5 30.4 44.7 7.9 18.3 9.8 21.3 26.8 41.1 10.6 12.5 14.6 18.7 22.8 35.5 15.2 31.1 19.1 42.7 23 68.1 4 26.4 8.4 41 16.5 53.9 8.6 13.9 16.5 18.3 24.2 13.6z"/>
    <path
      d="M403.4 1515.1c-2-2.2-5.4-6.8-7.4-10.3-7.6-13.2-9.8-21-15.5-55.3-3.1-19.1-6.7-30.1-17.2-53.5-10.5-23.5-15.5-31.4-30.8-49.9-15.3-18.3-18.2-22.9-23.5-36.2-10.1-25.2-19-38.6-31.8-47.5-13.8-9.6-34.4-29.6-39.5-38.4-8.9-15.4-12.7-30.3-12.7-49.9 0-30.6 8.7-59.5 31.2-103 24.9-48.5 33.8-66.5 41.2-84 24.5-57.8 43.3-117.7 56-178.6 6.2-29.5 6.8-31.9 9.7-38.1 3.3-7 9.5-13.9 14.4-16 4.2-1.7 13.5-1.8 17-.2 3.6 1.6 5.3 5.4 6.6 14.5 1.8 13 5.1 20.7 16.5 38.5 9.7 15.3 13.2 23.2 16.1 36.5 7.1 33.2 9.3 39.6 16.9 48.9 2 2.4 9.2 8.9 15.9 14.4 26.1 21.2 29.2 27.2 45.1 88.5 8 30.6 15.4 56.9 23.8 84.8 11.5 37.9 14.8 59.8 12.7 83.9-3 34.1-11.4 58.3-32.4 93.5-30 50.4-53.7 103.5-77.8 174.9-5.7 16.9-8.6 27.4-10.9 39.5-3.8 19.8-6.5 30.6-9.7 37.9-4.5 10.3-7.8 11.5-13.9 5.1zm6.6-144.9c17.2-8.6 27.4-23 41.5-58.7 13.3-33.7 17.2-39.2 46.8-66.3 22.1-20.2 29.9-31.2 33.2-47 3.8-17.5.7-35.1-13.8-80.2-13.2-41.1-14.4-47.7-15.7-89.5-1.3-40.7-3.6-53.2-13.5-74.1-7.7-16.1-21.1-31.6-32.3-37.3-10.7-5.4-28.7-6.8-41.2-3.2-27.4 7.9-59 34.5-81.5 68.6-7.6 11.6-9.8 15.6-16.4 29.7-5.3 11.2-12.9 22.5-29.1 42.8-21.5 27.1-29.3 39.6-34.4 55.8-13.3 42.4 5.5 110.2 42.1 151.7 19.4 21.9 23.3 27.7 41.3 61.5 12.1 22.8 16.4 29.2 24.1 36.6 10.8 10.3 18.9 13.5 32.9 13.1 8.4-.3 10.3-.7 16-3.5z"/>
    <path
      d="M386.9 1366.9c-9.2-1.4-20.9-9.1-27.4-17.8-1.8-2.6-9.8-16.4-17.6-30.7-16.6-30.4-22-38.9-32.6-50.9-19.4-22-23.5-27.8-33.4-48-7.7-15.7-13.7-32.9-17-48.5-1.8-8.6-2.2-13.7-2.2-28.5-.1-16.7.1-18.6 2.6-26.8 5.2-16.8 13.9-31.3 34.2-56.7 15.8-19.8 24.6-33.1 32.1-48.5 22.1-45.9 62.2-83.8 96.2-91.1 10.8-2.3 20.2-1.1 30 3.7 13 6.3 26.7 23.6 34.3 43.2 6.8 17.8 8 27.1 9.8 75.7 1.2 31.4 2.7 39.2 14.1 74.5 4.5 13.8 9.7 31.1 11.7 38.5 3.4 12.5 3.6 14.6 3.7 28 0 12.9-.2 15.2-2.3 20.5-5.1 12.9-10.3 19-39.1 45.5-20.2 18.6-25.8 27.4-40.5 63.6-4.5 11.2-10.1 23.5-12.4 27.3-11.6 19.6-27.9 29.6-44.2 27zm11.2-32.9c9.6-5 18.8-20.6 28-48 8.8-26.4 14.9-36.6 38.9-65.5 16.3-19.6 27.9-36.4 32-46.3 5.8-13.6 7.3-31.6 4.5-52.6-2.3-17.7-11.3-63.4-15.1-77.3-9.3-34.2-26.3-64.9-41.9-76.2-9-6.4-15.4-8.5-26-8.4-15 0-26.3 5.3-40.1 18.8-12.5 12.2-18.8 22.9-29.4 49.7-8.2 20.6-12.2 26.9-25.4 40.7-12.3 12.8-18.5 21.5-26.2 36.9-7.8 15.5-9.9 22.8-9.9 34.2.2 21.1 10.9 44.2 36.5 78 23.8 31.5 29.5 44.4 30.6 69.5.3 6.6 1 14.9 1.5 18.5 2.3 14.5 13 26.7 26.4 30.1 4.1 1.1 11.2.1 15.6-2.1z"/>
    <path
      d="M381.9 1328.7c-7.3-2.7-13.7-8.7-16.8-15.8-2.3-5-4.1-18.4-4.1-29.9 0-9.8-3.1-22.2-8.1-32.9-5.1-11-7.9-15.4-21.5-33.6-19.4-26.1-28.3-41.1-33.3-56.2-6-17.9-5.1-29.3 3.9-48.1 7.3-15.2 15-26.5 26.4-38.2 14.3-14.8 18.8-22 27.2-43.7 9-23.4 15.8-34.9 27.8-46.8C400 967 418.2 962 434 969.7c10.3 5 21.9 19 31.3 37.8 9.8 19.7 15.7 39.9 23.1 78.5 6.8 35.9 7.9 44.6 7.3 59-.9 24.3-6.4 35-37.3 72.6-24.6 30.1-28.9 37.3-38.4 64.7-7.4 21.4-10.7 29.1-16 36.5-6.7 9.6-14.1 12.9-22.1 9.9zm23.6-71.1c8.1-4 16.6-12.7 30.7-31.6 13.8-18.5 21.1-30.3 29-46.8 21.1-44 23.9-87.3 7.8-120.7-2.1-4.4-8.7-14.6-14.7-22.6-5.9-8-13.6-18.3-17-23-7.2-10-16.8-19.4-21.7-21.4-2-.8-6-1.5-9.1-1.5-7.5 0-13.7 3.2-20.8 11-9 9.6-14.4 19.9-24.6 46.7-6.9 18.1-8.6 21.7-13.9 30.6-4.2 7.1-6.8 9.9-21.4 23.4-11.3 10.5-10.2 24.8 3.9 50.9 2.7 4.9 6.1 11.8 7.6 15.3 2.8 6.5 7.7 24.6 9.7 35.8 1.5 8.7 7.6 27.5 11.5 35.8 5.3 11.1 12.1 17.9 20.5 20.6 1.4.5 5.7.7 9.5.6 5.4-.2 8.4-.9 13-3.1z"/>
    <path
      d="M381.9 1252c-10.6-5.6-19.3-25-25.9-57.5-3.3-16.7-7.3-27.9-15.4-43.7-8.6-16.7-11.6-24.8-11.6-31.5 0-6.6 2.4-10.5 10-16.6 3.5-2.9 8.8-8.2 11.7-11.7 5.9-7.2 15.2-25.3 20.6-40 9.4-25.6 15.3-36.6 24.8-46.2 9.8-9.9 16.5-10.9 25.7-3.5 5.3 4.2 9 8.5 19.9 23.7 4.9 6.9 11.5 15.9 14.7 20 7.3 9.4 14.8 25 17.5 36 9.5 39.5-5.8 91.2-40.7 137.5-17.8 23.6-23.1 29.2-31.6 33.1-6.4 3-14.5 3.1-19.7.4zm24.6-21.8c5.8-4 11.1-12.2 21.8-33.7 5.2-10.5 12.7-24.6 16.6-31.5 3.9-6.9 8.6-16.1 10.4-20.5 3.1-7.7 3.2-8.5 3.1-22.5 0-13.9-.1-14.9-3.3-23.5-4-11.1-13.3-30.5-20.2-42.8-13.2-23.1-28.6-43.6-32.1-42.5-2.4.8-4.7 6.2-9.3 22.3-5.9 20.5-9.2 27.1-22.1 44.1-12.3 16.2-16.2 23.3-17.6 32-1.3 8.5 1 21.5 5.5 31.4 4.7 10.2 5.6 14.5 6.7 32.2 1.3 18.3 2.9 25.6 8.3 36.6 10.3 20.6 20.5 26.5 32.2 18.4z"/>
    <path
      d="M392.3 1225.1c-5.2-3.2-12.1-14.7-16.2-26.8-1.4-4.3-2.5-11.8-3.5-25.5-1.5-19.9-2.4-24-8-35.8-1.4-3-3-8.7-3.6-12.7-2-12.7.9-21.5 11.1-34.2 16.3-20 21.2-29.2 27.5-50.8 2.5-8.7 4.7-15.9 4.9-16.1 1.1-1.1 16.1 21.6 25.9 39.2 9.9 17.7 14.6 27.9 18.6 40.2 2.7 8.3 3.2 11.4 3.3 19.4 0 12.8-2.8 20.9-14.7 42-5 9.1-12.9 23.9-17.4 33-8.9 18-13.6 25-18.5 28-4 2.5-5.4 2.5-9.4.1zm14.2-33.5c6.1-2.9 12.9-8.6 15.9-13.5 6.3-10.2 11.6-30.6 11.6-44.8 0-7.7-.4-9.6-3-15.2-6.6-13.9-17.7-26.2-27.6-30.8-10.8-4.9-21.2-1.4-25.6 8.5-4 9-3.4 28.2 1.7 50.7 1.8 8 3.1 11.6 4.9 13.4 3.6 3.8 5.4 8.7 6.6 18.5 1.2 10 2.2 13 4.7 14.5 2.8 1.6 5.3 1.3 10.8-1.3z"/>
    <path
      d="M398.7 1184.3c-.3-1.5-.9-5.4-1.2-8.7-1-8.6-3-14.4-6.6-18.8-2.5-3.2-3.6-6.1-5.6-15.6-2.9-14.2-4.1-32.8-2.3-39.1 2.6-9.8 11.2-12.9 20.1-7.3 6 3.8 14 12.9 19.2 21.5 4 6.8 4.2 7.6 4.5 16.4.6 14.8-5 35.2-11.9 43.6-3.3 4-10 9-13.6 10.1-1.8.6-2.2.2-2.6-2.1z"/>
    <path
      d="M437 1599.2c0-.4 1.1-7.5 2.5-15.7 12.1-74.2 37.1-152.7 80.2-252.5 25.2-58.1 32.3-75.2 38.6-92 24.8-66.2 31.9-116 23.1-160.5-3.4-17.2-10.3-34.7-27.9-71-9.4-19.4-17.8-38.6-24.6-56.1-2.3-6-6.2-16.1-8.7-22.4-8.1-21-14.4-32.2-44.2-79.4-19.1-30.3-29-51.3-37.4-79.4C431 744.9 425 713.1 421 677c-1.8-16.4-6.8-77.8-8.5-104.5-1.8-28.5-5.2-63.8-14.4-148.5-9-81.7-13-130.8-17.6-212.5-.3-5.5-.8-13.4-1-17.5-4.1-65.9-4-162.5.1-190.3l.6-3.7H401l-.7 4.3c-.5 2.3-.8 29.2-.8 59.7 0 59 .8 75.3 6 127.5 4.1 41.2 7 64.3 15.6 126 18.3 131.6 20 146.7 27.9 250.5 5.1 67.3 11.4 102.5 26.5 147.5 7.5 22.4 13.8 37.5 32.7 78 14.1 30 21.7 47.3 33 74.5 12.3 29.6 16.3 37.7 50.1 101.6 17.7 33.5 28.5 59.1 35.1 83.1 6.8 24.7 8.8 45.2 6.7 69.8-3.1 35.5-9 57.4-33.8 126-4.4 12.1-10.1 29.2-12.7 38-13.3 44.9-15.9 53.3-20.1 64.9-6 16.6-11.1 27-24.5 50.5-21 36.8-32.7 60.9-45.5 93.5-14.5 37-21 61.6-27.1 101.4l-.5 3.2H453c-8.8 0-16-.4-16-.8z"/>
    <path
      d="M476.5 1595.3c7.6-56.1 30.5-117.6 69-185.8 10.5-18.4 21.3-39.6 24.7-47.8 4.5-11.3 11.3-32.5 18.8-58.7 8.5-29.4 11.9-39.9 25.4-77.4 19.9-55.2 25.9-83.6 25.8-121.6-.1-46.1-11.9-80.7-55.2-161.5-16.5-30.7-25.8-49.8-35-71.5-18.3-43.5-22.4-52.6-35-79.5-22.7-48.2-33.3-74.6-41.5-104-9.5-33.9-13.2-59.8-18.5-130-6.9-91.1-9.7-115.9-26.5-236-11.7-83.9-17.9-138.3-20.1-175-.3-6-.7-12.3-.9-14-.2-1.6-.9-18-1.6-36.3-1-26.5-1-39.4 0-63.9.6-16.8 1.4-31 1.7-31.5.3-.4 11.3-.8 24.5-.8H456v2.8c0 1.5.5 11.3 1 21.7 1 20.2 3.5 99.1 4.5 139 2.5 111.2 5 188.9 6.5 202 2.4 21.6 6.1 40.8 14.6 77 9.3 39.2 13.1 57.9 18.3 89.8 8.1 49.5 14.3 75 28 114.9 21.1 61.7 39.6 101.3 90.4 193.8 28.3 51.5 35.9 68.1 44.6 97 16.3 54 21.2 119.6 13.6 179.2-8.2 64-28.9 127.1-78.5 238.8-44 99.1-64.4 155-76.8 210.6-2.2 9.8-4.6 21.4-5.3 25.7l-1.3 7.7h-39.7l.6-4.7z"/>
    <path
      d="M523.5 1595.3c2.7-19.3 12.1-55.8 22.1-86.6 12.2-37.2 23.1-64.4 56.2-140.7 33.8-78 44.3-104.5 57-143 14.3-43.7 22.4-79.1 26.9-117.5 2.2-19.1 2.5-72.8.5-91.5-3.2-29.5-10.5-63.9-18.7-88.5-9.6-28.5-18.4-47-47-98.5-44.4-79.9-66.5-127.9-86.5-188-13.2-39.4-20.1-68.1-28-116.5-5.8-35.2-9.6-54-17.4-87.5-5.6-23.9-10.7-49.5-12.5-63-3.3-23.4-3.3-22.2-8.7-239-.8-33.3-2.1-75.1-2.9-93-.8-17.9-1.5-34.7-1.5-37.3V-.1l8.2.3 8.2.3 2.3 20c8.1 71.5 8 69.9 8 163 0 45.1.3 88.3.6 96 .4 7.7.9 21.2 1.2 30 3.5 96.2 9.5 151.4 22.1 201.7 6.5 26.2 14.2 47.8 42.5 118.3C599.5 738 630.5 803.3 670.5 870c24.9 41.7 33.7 64.4 42.4 110.5 6.5 34.1 7.5 47.8 7.6 101 0 47.6-.3 53.7-4.1 87.5-6.3 56-19.7 102.7-45.9 159-14.1 30.4-27.3 54-53.5 96-8.1 12.9-18 29.1-22 36-22.9 39.5-35.7 74.6-45.7 125.8l-2.7 14.2h-23.8l.7-4.7z"/>
    <path
      d="M554.5 1595.8c1.8-11.2 8-38.3 12-52 10.9-38.1 23.8-65.1 51.5-107.8 46.7-72.2 78.3-139.9 92.9-199 9.7-39.1 14.6-77.2 17.2-133.5 2.8-61-3.7-120.8-18.3-166.4-8.5-26.6-16.9-44.4-33.9-72.1-35.7-58.1-68.5-126.7-110.6-231-26.8-66.4-37.1-94.8-44.7-124-17.7-67.3-23.7-151.1-24.1-332-.2-103.9.2-96.1-6.5-149-1.6-12.9-3.1-24.7-3.3-26.3l-.4-2.7h18.5l.6 4.2c1.8 12.8 5.7 62.7 7.1 91.3.3 6.6.7 16.5 1 22 .3 5.5.7 16.8 1 25 3.4 96.4 4.4 116.9 7 152.5 3.3 43.2 8.4 80.6 17 123.5 11.2 55.9 23.6 100.6 55.9 202 27.4 86.1 32.7 96.8 83.9 169.5 42.6 60.4 66.5 88 82.2 95.1 4.9 2.2 11.6 2.4 15.4.4 11.3-5.8 10.7-42-1.4-82-4.5-14.9-11.9-32.8-26.8-65.5-20.1-44.2-25.2-57.9-46.3-125.5-16.7-53.4-21.4-67-36.7-106.5-36.5-94.2-50.5-153.1-78.2-329-11.6-73.5-19.5-118.4-27.9-158.5-2-9.3-3.6-17.3-3.6-17.7 0-.5 3.1-.8 6.9-.8h6.9l2.6 10.8c1.4 5.9 5.5 26.3 9.1 45.2 20.5 107 37.8 169.9 99 360 44.3 137.6 48.9 153.2 80.4 270 22.6 83.7 28.1 109.7 32.6 152.4 2.9 27.7 1.3 97.5-3.6 163.6-1.8 23.7-4.7 48.7-9.3 80-7.4 50.3-9.7 74.5-12.6 131-.6 11.3-1.9 38.5-3 60.5s-2.3 43.2-2.6 47c-1.6 20-4.8 50.9-7.9 75-11.9 93.3-13.1 102.8-14.9 119-3.2 28.3-4.6 48.4-4.6 66.8v18.7h-16.9l.5-32.7c1.1-82.7 1.2-84.2 8.9-134.8 6.3-41 7.6-54.3 7.6-76 0-26.7-1.8-36.7-6.4-34.9-2 .7-15.8 19-26.4 34.9-13.9 21-26 42.3-48.3 85.5-34.7 67.2-52.8 106.7-66.7 145.3l-4.5 12.7h-28l.7-4.2z"/>
    <path
      d="M593 1589c11.1-30.9 23.3-58.4 47.6-107 38-75.9 57.2-109.9 79.3-140.2 3.1-4.3 5.9-7.7 6.2-7.8 1.2 0 2.1 21.7 1.4 32.2-1 16.2-3.3 35.4-7.1 60.3-7.7 49.9-7.5 47.4-8.5 100-.5 27-1.2 54.5-1.5 61.3l-.6 12.2h-19.6l-.7-25.5c-.8-27.2-.5-31.4 5-71.5 2.9-20.9 3.6-47.9 1.4-50.6-2.7-3.2-5.1-1.2-7.5 6.1-23 70.9-30.2 92-42.2 122.3l-7.6 19.2h-49.5l3.9-11z"/>
    <path
      d="M646.3 1598.8c10.1-23.9 17.8-44.8 32.4-87.8l11.3-33.5-.5 8.5c-.3 4.7-1.9 18.2-3.7 30-3.1 21-3.2 22.2-3 52.8l.2 31.2h-18.6c-14.5 0-18.5-.3-18.1-1.2zM741.3 1575.8c.7-30.4 2-42.6 17.8-166.3 7.1-56.3 9.8-88.4 12.9-157.5 3.7-81.9 5.4-101.3 15-172.5 7.7-57.5 10-84.6 12.5-147.9 3-74.1 1.4-101.1-8.6-150.6-5.3-25.9-7.9-36.1-29-113.5C733.3 562.8 724 531.4 695.8 444c-43-133.7-52-162.7-67.8-218-18.2-63.8-28.7-108.4-42.9-181.5-2.3-11.6-5.4-26.3-7-32.7L575.3 0h42.3l1.2 9.7c3.4 26.4 12.2 59.4 32.7 121.3 7.4 22.3 17.3 53.8 22 70 15.5 52.9 22.1 73 40.2 122.5 26.5 72.6 35.8 105.6 60.3 215.5 4.5 20.1 12.8 55.2 18.5 78 23.3 93.5 28.4 123.6 31.5 186 2.1 41.9.8 82.5-5 154-2.7 34.2-2.9 37.5-4.5 94.5-2.5 88.3-3.1 94.5-18.5 195-13.3 86.6-14.8 98.4-15.9 128.5-.8 19.5 0 64.2 1.4 83 .3 4.1.7 10.7 1 14.5 3.3 44.3 4.4 87.3 2.8 115.3l-.6 12.2h-44l.6-24.2z"/>
    <path
      d="M792.3 1582.3c.7-16.3.2-68.4-.7-74.3-.2-1.4-.7-7.7-1.1-14-.3-6.3-1.3-19-2-28.1-.8-9.1-1.9-28.7-2.6-43.6-2.1-45.8.3-69.6 18.5-185.8 11.8-75.1 15.1-111.9 17.1-192.5.8-30.1 2.1-55.6 5-97 1.3-19 2.9-41.7 3.4-50.5 4.1-65.3 1-128.7-9-185.5-2.9-16.9-5.1-26.5-15.6-68.5-5.2-20.9-13.7-56.9-18.9-80-32.5-144.2-40.3-172.6-69.7-251.5-15-40.3-20.1-56.1-44.2-137.5-3.1-10.4-10.8-34.7-17.1-54C637.5 65 629.6 35.4 625.6 8.9L624.3 0h33.6l.5 4.2c.3 2.4 1.3 10.7 2.1 18.5 5 45.5 16.5 88.7 38 141.8 5.3 13.2 14.3 35.5 20 49.5 11 27.3 19 50.5 30.5 88 13.5 44.3 22.9 73.5 28.5 89 23.2 63.7 29.9 83.5 38.6 113.8C839 584.6 853.4 682.5 863 825c.5 8.5 1.3 19.1 1.7 23.5.8 10.2.8 60.8-.1 74-.3 5.5-1.1 16.8-1.6 25-.5 8.3-1.8 27.2-2.9 42-1.1 14.9-2.5 37.6-3 50.5-2.3 50.7-3.5 66.8-8.1 110-3.7 34.4-5.7 56.9-7 77.8-1.2 19.6-1.1 80.7.3 120.2.7 20.5.7 38.6-.2 64.5-1.7 51.7-4 78.9-10.2 118.5-2.7 17.3-11.1 62.6-12.5 67.3-.5 1.5-2.1 1.7-14.2 1.7h-13.7l.8-17.7z"/>
    <path
      d="M826.4 1597.8c13.3-61.4 17.7-91.6 21.1-145.9 2.4-38.7 2.6-78.5.8-132.9-2.2-65.6-1.4-84.5 7.2-166.5 4.3-41.6 6.1-62.6 7.5-88.5 1.1-21.1 3.3-57 5-83.5 6.5-99.2 5.6-136.3-6.5-255.5C851 621.3 836 542.1 813.4 471c-3.1-9.6-11.9-35-19.6-56.5-17-47.3-24.5-69.7-33.8-100.5-15.2-50.3-27-84.2-43.7-125.5-5.8-14.3-13.2-32.5-16.3-40.5-18.4-46.2-28.6-86.2-33.5-130.7-.8-7.8-1.5-14.9-1.5-15.8 0-1.3 1.8-1.5 11.8-1.5h11.7v23.3c.1 24.6 1 33.3 6.1 56.5 6.6 29.7 16.8 51.1 37.5 78.2 27.8 36.4 33.6 45 41 60.5 6.3 13 9.7 26.3 14.4 56 9.5 59.9 15.2 81.4 26.1 99.1 10 16.3 25.3 24.4 43.1 23.1 25.4-1.9 42.2-24.9 54.7-74.7 4.5-18.3 18.4-79.1 27.1-119 19.8-91 31.3-136.6 46.6-184.2l6-18.8h20.9c12.7 0 21 .4 21 1 0 .5-1.4 7.4-3 15.4-4.6 22.2-11.4 44.7-30.9 103.2-20.5 61.3-26.2 82.5-31.6 117.7-7.4 47.9-16.8 81.4-35 125.2-25 60.2-30.7 82.7-37.9 149-7.1 65.3-8.9 103-8.9 184 .1 62.2 1.1 98.2 5 174 1.2 23.7 1.7 51.4 1.7 98.5.1 65.1-.2 74.4-4.4 139.8-.6 8.3-1.5 22.3-2 31-.6 8.6-1.4 21.8-2 29.2-4.8 68.1-6.1 126.3-4 186.5 3.2 94.2 1.9 164.1-4.6 238.3l-.6 7.2H826l.4-2.2z"/>
    <path
      d="M882 1597.8c0-1.3 1.1-18 2.5-37.3 4.1-59.2 4.8-81.2 4.1-131-.4-25.3-1.1-57-1.6-70.5-2-49.4-.7-115.1 3.5-182.5.8-13.7 1.9-32.6 2.5-42 .5-9.3 1.2-19.5 1.5-22.5.3-3 1-13.8 1.5-24 5.5-96.8 5.4-137.6-.5-260.3-2.9-60.3-3.7-102.8-3.2-159.7.3-31.1 1.1-63 1.6-71 6.4-88.4 11.9-131 21.6-168.5 4.5-17.4 7.9-26.7 19.7-54.5 23.2-54.6 30.6-79.8 38.8-133 6.2-40.6 10.7-57 35.9-132.5 18.4-55.4 25-78.7 29.5-104.7.6-3.6.9-3.8 4.2-3.8 2.9 0 3.4.3 3 1.8-.3.9-1.5 9.6-2.6 19.2s-2.7 23.4-3.6 30.5c-1.9 16.6-4.9 33.4-7.9 45.5-7.4 29.6-10 51.4-9.2 78.9.7 28.5 4 44 14.8 71.1 5.1 12.9 9 20.9 36.5 75 17.1 33.6 21 45.6 24.9 78 16 130.3 18.5 166.3 18.5 273.5 0 54-1.7 132.8-3.5 161.5-.2 4.7-.7 15.3-1 23.5-.3 8.3-.7 18.4-1 22.5-.3 4.1-.7 11.8-1.1 17-.7 11.3-4.4 54.7-7.8 92.5-6.2 66.6-6.1 64.4-5.8 144 .3 80.4.3 78.8-6.3 158.5-4.9 58.8-6.1 96.3-4.6 142.5.7 20.3 1.4 38.8 1.6 41 .2 2.2.6 9.4 1 16 .6 12.5.9 16.6 2.5 38 .5 7.2 1.4 19.8 2 28 .6 8.3 1.5 20.5 2 27.3.6 6.8 1 12.7 1 13.3 0 .5-7.1.9-17.3.9h-17.4l-.7-20.2c-.3-11.2-1.1-28.8-1.6-39.3-.5-10.4-1.4-29.1-2-41.5-.6-12.4-1.5-30.8-2-41-8.1-151.9-8.1-272 .1-347 1.4-13.3 6.4-49.9 10-73 8.8-57.3 11.6-77.1 14.5-104.5 1.1-10.3 1.7-36.2 2.4-97.5 1.2-103 .6-123.9-5.5-193-4.7-53.8-4.7-52.8-9-143.5-4.5-94.1-7.4-120.4-17.1-152.2-7.4-24.5-22.8-53.3-28.5-53.3-2.8 0-10.7 5.9-16.3 12.1-6.7 7.5-10.1 15.4-14.1 32.9-2 8.5-4.7 20.2-6 26-8.6 37.5-16.1 88.4-23.5 159.5-8.8 84.7-11.3 105.8-17 145-8.7 59.6-10 75.5-10 121.9 0 32.9 1.3 70.4 4.2 118.6 1.9 32.5 1.6 107.4-.5 131-3.6 40-5.9 59.5-14.2 122.4-11.7 87.4-12.1 99.8-6 161.1 2.8 27.7 3.1 34.4 4.6 82 2 70.3 2.2 83 1 98.5-1.1 14.8-8.7 88.1-9.7 92.8-.4 2.2-.6 2.2-16.9 2.2-16.4 0-16.5 0-16.5-2.2z"/>
    <path
      d="M922 1598.8c0-2.5 3-28.6 6-52.3 1.7-13.2 3.4-30.1 3.9-37.5 1.9-29.3-1.7-151.9-5.4-184.4-2.2-19.2-4.5-49.9-4.5-60.7 0-17 3.2-46.7 12-112.9 13.5-101.1 16.4-144.4 14.1-213.5-.6-19.2-1.4-37.5-1.6-40.5-2-23.9-3-60.2-3-105.5 0-58.5.3-63.3 7.1-110 10.5-72.1 10.1-68.5 17.9-143.5 10.1-96.7 15.2-129.8 29.5-193 5.5-24.5 9-31.6 19.4-39.6 5.4-4.3 4.5-4.9 12 7.6 12.1 20.3 20.9 51.2 26.1 91.2 2 15.5 4.2 49.1 5.5 82.3 1.1 30.2 2.7 63.6 3.5 73.5.2 3.6.7 10.6 1 15.5 1.1 19.4 2.7 39.9 4.5 60 5.8 62.5 6 70.4 6 175.5 0 118.6-.1 119.1-14.5 210.5-9.1 58-12.1 84.1-16.2 142.5-2.5 36-2.5 165.2 0 217 .9 19.5 2.2 45 2.7 56.5.6 11.6 1.5 29.1 2 39 .5 9.9 1.2 23.2 1.5 29.5.3 6.3 1 20.5 1.5 31.5s1.3 29.6 1.6 41.3l.7 21.2h-24l-.6-22.2c-.7-23.1-2.7-47.6-7.7-92.8-5.3-47.9-5.9-54.2-7.9-79.5-3.8-47.8-4.5-85.3-3.3-184 .5-50 .8-102.5.5-116.5-.3-14 0-41.2.6-60.5 2-63.9 5.1-89 19.2-153.5 23.7-108.5 25.7-126.7 24.6-221.5-1.1-92-8.4-155.9-25.7-223-6.7-26.4-7-27-10-27-2.1 0-2.8.8-4.3 5.5-3.4 10.7-6.7 31.9-7.5 48.8-1 20.1-.1 43.9 2.9 82.2 3.9 50.2 3.2 73.5-3.6 116-10.7 66.9-17.6 157.9-25 328.5-.8 18.7-1.7 37.8-2 42.5-.3 4.7-1.2 24.7-2 44.5s-2.2 51.5-3 70.5c-1.4 32.1-1.9 44.8-4.5 111.5-.6 13.8-1.2 30.9-1.5 38-1.7 40.9-4.9 129.4-6.5 180.5-.6 17.9-1.5 44.7-2 59.5-.5 14.9-1 32.7-1 39.8v12.7h-19.5c-14.9 0-19.5-.3-19.5-1.2z"/>
    <path
      d="M967.4 1594.8c.3-2.9.8-16.1 1.1-29.3 1.1-47 5.5-173.2 9-260 .8-19.8 2-47.5 2.5-61.5.6-14 1.5-35.4 2-47.5.5-12.1 1.4-33 2-46.5.6-13.5 1.7-38.9 2.5-56.5s2.4-52.5 3.5-77.5 2.2-49.8 2.5-55c.2-5.2.7-14.9 1-21.5 1.6-35.1 4.3-87.6 5-98.5 3.9-56.2 5-70.1 8.6-104 2.4-23.1 4.7-41.9 9.4-74.5 6.2-42.9 6.5-60.8 1.8-119-2.4-30.1-2.4-78 0-93.5 1-6.3 2.2-11.9 2.6-12.3 1.6-1.6 11.3 41.2 16.5 72.8 8.4 50 11.5 92.1 12.3 165 .9 85.2-1.2 107.5-16.3 177.5-12.9 59.6-14.6 68.1-17.9 87.3-4.1 24.6-7.3 51.6-8.1 69.7-.3 7.4-.8 14.2-1.1 15-.5 1.7-1.8 205.3-1.7 273.5.1 73.4 1.2 90.4 11.4 185 4.2 39.3 7 71.5 7.6 88.5.2 8 .6 17.5.9 21.3l.4 6.7h-58l.5-5.2zM1104 1598.3c0-1-.7-9.9-1.5-19.8-1.9-22.6-6-81.1-7.6-109.5-1.7-28-1.7-110.3-.1-132.5.7-9.3 1.9-24.6 2.7-34 7.3-86.1 7.6-93.9 7.3-174-.3-79.4-1.1-63.3 7.2-158 1.6-18.7 3.6-42.8 4.4-53.5 8.1-103.5 10.7-297.5 5-375-3-41.8-13.2-134.9-17.4-159.5-4.6-26.8-12.5-46-38.9-94.5-24.9-45.6-35.5-80.4-36-117.5-.3-20 1.5-32.9 9.9-71.5 5.9-27 7.4-35.9 10-60.1 2.4-21.6 3.8-33.5 4.5-36.7l.5-2.2h167.8l5.5 10.3c3 5.6 8.3 14.7 11.7 20.2 3.5 5.5 9 15.4 12.2 22l5.8 12v273.4l-15.3 22.8c-20.9 31.1-27.4 41.7-34.6 56.2-8.2 16.3-12.1 28.4-17.1 52.6-10.7 52.3-16.5 94.6-21 151.5-2.3 30.1-4.9 56.7-8.6 88-2.7 23.6-3.7 30.9-12.5 98.4-14.1 108.5-17.8 149.8-23.9 267.6-.6 11.3-1.5 29.3-2 40-1.1 21.7-1.8 33.1-2.5 43.5-.7 9.3-3.1 49.4-4.5 73-.6 10.5-1.3 21-1.6 23.5-1.2 11.9-1.6 92.9-.5 119.4 2.8 70 10.1 143.8 21.2 212.1 1 6.6 1.9 12.3 1.9 12.8 0 .4-7.2.7-16 .7-14.6 0-16-.2-16-1.7zm68.2-1273.7c27.5-5.9 49.2-31.7 66.3-79.1 14.9-41.4 17.4-64.8 10.4-98.5-4.2-20.5-15.9-49.5-32-79.6-14.2-26.5-22.8-34.3-41.4-37.5-19.5-3.3-74.1 3.9-88.5 11.7-16.8 9.1-29 25.6-35.4 47.6-5.3 18.4-6.1 28.3-6.1 78.8 0 45.1.1 46.8 2.3 55.4 2.9 11.5 7.8 23.7 14.3 35.6 15 27.9 40 52.1 62.6 60.8 15.5 6 33.2 7.8 47.5 4.8z"/>
    <path
      d="M1138.6 316.9c-23.2-5.7-45.5-23-62.7-48.6-8.4-12.6-13.6-22.7-17.7-34.5-5.9-16.6-6.2-19.8-6.2-64.5 0-56.4 2.2-72.6 12.6-94.2 3.7-7.7 6-10.9 12.3-17 8.6-8.6 14.5-11.9 27.1-15.1 20.8-5.3 60.1-8.7 71.8-6.1 8.1 1.7 15.9 6 20.7 11.3 10.1 11.3 32.3 56.1 40.8 82.3 6.1 19 8.1 30.8 8.1 49 0 19.7-1.4 27.7-9.4 51.5-11.5 34.5-21.5 54-34.9 68.2-8.7 9.1-16.1 14.1-26 17.5-8.7 3-24.9 3.1-36.5.2zm26.8-58.1c24.9-6.9 41.7-27 50.1-60.4 3.7-14.5 4.8-27.4 4.2-50.8-.4-18-.9-22.7-3.1-31.9-7.9-33.4-24.6-53.4-51.6-61.9-6.7-2-9.4-2.3-25-2.3-14.6.1-19 .5-26.2 2.3-24 6-39 20.6-46 44.7-2.1 7.3-2.3 10-2.3 30v22l3.4 6.4c5.1 9.8 7.6 17.2 12.1 35.7 7.6 31.5 12.4 42.7 22.5 53 14.3 14.6 38.3 19.8 61.9 13.2z"/>
    <path
      d="M1134 253.9c-7.3-1.3-18.7-6.8-24-11.5-9.4-8.5-14-18.9-21.6-48.9-5.5-22.1-8.9-32.2-13-39.2-4.7-8-5.1-36.9-.8-53.6 5.3-20.8 19.3-34.8 40.2-40.2 19.5-5 43.8-3.4 58.6 3.9 20 9.9 32.7 30.2 38.1 61.1 2.2 12.1 2.5 42.9.6 55-7.4 47.8-28.5 72.4-63.6 74-4.9.2-11.5 0-14.5-.6zm7.6-52.8c6.7-4.1 11.3-12.8 14.7-28.1 2.9-13 3.1-47 .4-56.9-2.5-9.3-6.4-15.6-13.1-21.7-7.8-7.1-14.7-9.8-23.8-9.1-16.1 1.1-26.4 14.5-27.6 35.9-.6 13.1 2.1 21.9 11.9 38.3 8.5 14.1 13.2 24.1 14.8 31 2.3 10 14.5 15.6 22.7 10.6z"/>
    <path
      d="M1129.4 194.1c-2.3-1.4-3.3-2.9-3.8-5.8-.9-4.6-8.4-20.3-16.1-33.3-8.9-15.2-10-18.7-10-31.5 0-10 .3-11.6 2.8-17 3.3-7.1 5.9-10 10.9-12.6 12.4-6.4 30.7 4.3 35.8 20.9 6.9 22.3 2.3 65.8-8.2 77.8-3.5 3.9-6.7 4.4-11.4 1.5zM1143 1599.6c0-.2-1.1-7.5-2.5-16.3-14.1-90.6-21.5-178.2-21.5-255.3 0-38 .7-55.4 5-126 1.9-31.7 2.4-41.1 5.5-100 3.7-70 6.2-113.9 7-122.5.2-2.7.7-8.4 1-12.5 3.2-47.3 7.8-88.2 20.5-184 8.9-67.4 14.4-116.6 17.5-158 3.6-48.6 4.6-56.9 12.5-104.5 9.8-58.7 12.9-72.7 19.9-90 6-14.5 13.1-26.8 31.9-54.9l16.7-24.9.3 38.5.2 38.5-2.6 5.9c-8 17.9-14.9 41-23.4 77.9-3.4 14.9-16.3 69.5-28.7 121.5-28 117.9-30.7 130.3-35.2 164.6-3.9 29.3-4.3 40.2-4.6 126.4-.1 47.7-.7 92.6-1.4 103-2.5 40.5-5.3 72.3-12 137.5-4.8 45.4-7.5 78.6-9.7 119-2.1 35.7-.4 94.7 4 145 .9 9.4 2.7 30.5 4.1 47 2.7 31.6 5.6 59.4 8.1 78.5 1.6 11.9 6.1 39.8 7.1 43.8.5 2.2.4 2.2-9.6 2.2-5.6 0-10.1-.2-10.1-.4z"/>
    <path
      d="M1170 1599.7c0-.2-.9-5.2-2-11.2-4.3-23.7-8-54-14.5-119.5-6.7-68.1-8-90.2-8-134.5 0-42.5 1.9-78.7 7-130 16.8-170.9 17.3-179.1 17.4-296.9.1-85.5.8-95.6 8.6-138.7 5.4-29.6 11.4-55.6 40.5-176.4 24.9-103.6 28.4-117.6 33.4-132.5l4.4-13.5.1 106 .1 106.1-4 21.4c-2.3 11.8-8.8 43.8-14.5 71-27.4 130.7-31.8 163.4-37.5 279-2.2 44.5-5.5 108.5-6.5 124-.3 4.7-1 16.2-1.5 25.5-3.6 60.1-6.5 102.8-9.7 140.5-1.4 16-1.8 31.2-1.8 69 .1 43.2.4 52.5 2.8 85 4.2 55.6 5.8 68.3 13.2 107 1.9 10.2 3.5 18.6 3.5 18.7 0 .2-7 .3-15.5.3s-15.5-.1-15.5-.3z"/>
    <path
      d="M1212.7 1594.8c-4.2-36.7-6.1-70.5-6.1-111.3 0-31.9.4-43.5 2.2-63.5 3.8-42.8 5-64.6 8.2-145.5 4.7-121.3 9.5-160.8 29.9-250.5 3.3-14.6 6.9-30.8 8-36l2-9.5v148.9l.1 148.8-2.5 14.7c-5.7 34.2-10.2 73.2-12.7 110.6-1.4 22-1.7 115-.5 165.3l.8 33.2h-28.8l-.6-5.2z"/>
    <path
      d="M1248.4 1578.3c-.4-12-.8-53.3-.8-91.8-.1-58.2.2-73.7 1.7-92 1.7-21.8 6.5-67.1 7.2-69 .2-.5.4 61 .4 136.8l.1 137.7h-7.8l-.8-21.7zM.1 1576.8v-21.3l15.5-16c26.4-27.2 37.3-42.2 43.8-60.3 2.9-8.3 3.1-9.4 3.1-23.7 0-12.6-.4-16.3-2.3-22.8-7.4-25.6-17.6-43-47.6-81.2l-12.6-16v-18.7c0-10.4.2-18.8.4-18.8 1.1 0 19.6 22.6 24.7 30.2 6.9 10.1 16.7 29.4 23.4 45.8 6.2 15.2 9.2 21 18.2 35.3 13.6 21.7 16.2 28.4 16.3 41.1 0 14.1-5.8 28.1-21.7 51.9-12.6 18.7-15.9 24.2-24.4 40-10.6 19.6-19.4 33.9-27.6 44.9-4.1 5.3-7.8 10-8.3 10.3-.6.4-1-7.3-.9-20.7zM1201.6 1565.5c-6-33.2-7.8-47.7-9.6-79-.5-9.9-1.8-28.1-2.7-40.5-2-27.5-2.3-92.1-.5-111.5 3.3-35.3 8.9-115.3 12.2-174.5.6-10.2 1.5-26.4 2-36 .6-9.6 1.4-26.5 2-37.5.6-11 1.2-24.3 1.5-29.5.3-5.2 1-18.7 1.5-30 4.6-91 9.2-133.1 21.9-199.8 3.8-19.5 23.3-113.9 26.4-127.7.3-1.1.5 52.1.6 118.2l.1 120.2-3 17.5c-3.3 19.4-7.3 38.7-16 76.6-15.9 69.4-21.2 108.3-25.4 187.5-1.6 28.1-1.7 30.9-4.2 93-1.6 42.1-2.4 56.5-5.4 99-3.7 52.3-3.7 107.4.1 148.7 1.4 15.4.8 17.7-1.5 5.3z"/>
    <path
      d="M0 1529.9v-15.5l13.3-13.5c22.1-22.4 29.7-37 28.4-54.9-1.1-15.1-5.2-22.4-23.6-41.4-7-7.2-14-15.2-15.5-17.8-2.6-4.5-2.6-4.6-2.4-22.1l.3-17.5 12 15.5c16.4 21 24.5 33.5 32.1 48.8 8.4 17 11.6 29 11.5 43.5 0 12.6-1.6 19.3-7.5 31.5-6.7 14-15.2 24.7-38.8 49l-9.8 10v-15.6z"/>
    <path
      d="M0 1450.3V1396l11.8 12.1c18.5 19.2 23.2 27.2 23.2 40.3 0 14.3-7.4 28-24.6 45.5L0 1504.5v-54.2zM0 1137.6v-47.7l3.1-6c4.5-9 9.5-25 11.8-37.6 2.1-11.5 4.6-36.4 5.6-55.8.3-6 1.7-23.1 3-38 4.5-48.9 5.4-62.7 6-85 .3-12.1 1.1-41.3 1.8-65 1.5-54.9 1.5-107.8-.2-126.5-2.9-33-11.1-70.4-19.6-89.6-1.4-3.1-4.5-8.7-7-12.4L0 567.2l.2-34.9.3-34.8 7.8 10c18.9 24.2 29.3 45.6 36 74 20.5 86.2 24 207.8 10.1 348.5-7.4 75.2-25 193.6-31.9 214.6-5.2 15.8-14.5 33.5-20.4 38.8l-2.1 1.9v-47.7z"/>
    <path
      d="M.1 826V579.5l3 5.9c10.2 19.7 19.2 61.4 22 101.8 2.4 35.8-1.7 190-6.6 245.9-3.2 37-4.6 53.4-5.9 72.4-1.7 23.4-3.8 38.1-7.2 51.1C-.2 1078.3.2 1094.3.1 826zM762 877.9c-10.9-5.5-31.2-27.4-54.1-58.4-14.8-20.1-47.2-66.6-55.7-80-24.8-39.2-31.2-55.6-67.7-173.5C546.2 442.2 532 367.7 526 258.5c-1.7-30.6-1.9-37.3-3-71-2.7-83.7-5.9-139.7-10-176.5-1.3-11.2-1.3-11 1-11s2.1-1.5 5.5 33c1.4 14.6 5 48.6 8 75.5 5.5 49.6 8.9 84.6 10 101 .3 5 .8 11.5 1 14.5.3 3 1 12.9 1.5 22 3.6 59.7 14.1 125.7 29.1 184 6.8 26.3 13.1 46.7 23.4 76.5 23.8 68.4 38.1 116.7 44.5 150.3 3.5 18.6 6.7 28.4 11.7 36 9.8 14.8 29 23.4 38.2 17 8.1-5.5 10.2-12.8 10.2-35.3.1-47.8-11.7-86.2-46-150-22-40.7-30-59.7-45.1-107-21.5-67.2-25.3-87.5-32-169-3.7-44.5-6.6-64-18.6-122.4C536.6 34.4 530 1.8 530 .9c0-.5 4.1-.9 9-.9 5 0 9 .4 9 .8 0 .5 2.1 10.7 4.6 22.8 9 43.5 16.6 86.8 28.9 165.4 25.1 160.3 43.8 238 77 320.7 13.3 33.1 18.5 48 35.1 101.3 20.7 66.1 28.7 88.1 45.9 125.5 27.7 60.3 36 86.4 37.2 117.5.6 15.6-.3 21.6-3.8 25.1-2.5 2.5-3.5 2.4-10.9-1.2z"/>
    <path
      d="M669.3 702c-14.4-7.2-20.2-18.5-26.8-52-5.5-28-18.7-73.3-35.5-122.5-16-46.7-20.4-60.2-24.9-76-18.2-63.7-30.8-136.3-35.1-202.5-.5-8.5-1.2-19.5-1.5-24.5-2-31.1-4.2-53.1-13-133.5-7.5-68.7-8.7-80.2-8.2-80.6.2-.2 2.2 8.7 4.5 19.8 2.3 11.2 9.8 48.2 16.7 82.3 17.1 84.4 17.8 89 23 151.2 5.3 63.2 9.2 84.3 25.9 139.3 16.3 53.8 28.4 84.2 46.6 117.5 37.5 68.6 49.3 105.5 49.4 155 0 16.4-1 21.7-5 26.5-3.4 4-8 4-16.1 0zM842.3 388.5c-23.4-7.3-35.2-33.4-45.8-101-3.8-24.6-7.2-42.9-9.4-51.5-4.9-19.2-14.1-35.1-40.4-70.3-20.4-27.3-28-38.7-33.8-51.3-7.2-15.5-13.4-39.8-16.4-63.4-1.5-12.2-2.1-44.3-.9-48.8.6-2.2.9-2.2 15.5-2.2H726v7.4c0 4.1-.9 13.7-2 21.3-5 33.3-1.4 62.6 10.5 86.3 5.1 10.2 17.9 29.7 26.2 40 24.5 30.4 53.6 45.8 96.3 51 24.9 3 42.7-.7 53-11 10.5-10.5 12.7-24.4 9.4-59.7-1.6-17.9-1.3-29.4 1.2-44.3 4.1-23.7 14.8-56.7 26.6-82.3l4.1-8.7h32.6l-1.3 4.3c-.8 2.3-3.2 9.8-5.4 16.7-13.2 40.2-26.3 92.6-46.2 184-14.1 64.6-26.8 119-31 132.3-5.9 18.6-13.8 33.5-22.1 41.8-4.8 4.9-8 7.2-12.3 8.8-6.6 2.4-16.7 2.7-23.3.6z"/>
    <path
      d="M858 199.4c-34.1-4.2-58.1-14.9-79.3-35.3-13.1-12.6-30.2-36.1-38.9-53.6-10.5-20.9-13.7-50.8-9-82.7 1.2-8.2 2.2-17.7 2.2-21.3V0H751.7l1.2 10.3c2.6 21.5 10.7 55.9 18.2 77.4 11.1 31.8 26.9 58.1 42.4 70.6 20.2 16.3 48 19.2 61.3 6.4 1.9-1.8 4.5-5.3 5.8-8 5.7-11.1 6.6-22.2 5-59.7-.8-17.8-.7-21.6.8-29 2.9-14.2 6.1-22.5 17.8-45.7L915.4 0H943.1l-.7 2.3c-.3 1.2-1.5 3.8-2.5 5.8-6.3 12.5-16.5 41.6-21.4 60.9-6.8 27.2-8.3 42.7-6 63.5 2 17.9 2.2 34 .6 41.5-2.5 11.7-9.9 20.3-20.5 23.6-5 1.6-27 2.7-34.6 1.8zM0 150.7v-31.3l3.5-8.3c5-11.7 7.7-22.2 13-49.1 2.5-12.9 6.9-32 9.8-42.5l5.2-19L55.7.2 79.8 0l-3.9 15.2c-10.4 40.5-29 86-52.4 128.3C14.6 159.7 1.2 182 .4 182c-.2 0-.4-14.1-.4-31.3z"/>
    <path
      d="M841.3 164.6c-31.7-7.3-56.8-45.8-73.3-112.6-3.9-15.9-9-43.7-9-49.1V0H780.7l.7 5.3c1.9 14.8 16.8 63.8 28.1 92.2 11 27.7 20.5 44.4 27 47.1 4.3 1.7 8.9.5 14.1-4 11-9.4 15.2-28.2 17.4-78.6 1.4-31.2 2.9-44 6.5-56.7l1.6-5.3H907.8l-8.4 15.8c-9.7 18.5-15.5 32.2-18.6 44.7-2.4 9.7-2.6 18.1-1.7 59.5.4 18 .2 20-1.8 26.5-4 12.5-11 18.3-23.1 19-3.8.3-9.4-.2-12.9-.9z"/>
    <path
      d="M836 135.3c-3.9-4.6-15.2-27.7-21.3-43.3-9.9-25.3-20.7-60.2-25.2-81.2L787.2 0h81.6l-1.3 4.4c-3.2 10.4-5.5 32.8-7 68.1-1.9 41.7-6.7 59.4-17.7 65.1-3.5 1.8-3.2 2-6.8-2.3zM.1 50.3 0 0h12c6.6 0 12 .4 12 .9 0 .4-2.3 9.1-5 19.2-2.8 10.1-7.2 29.7-10 43.4-2.7 13.8-5.8 27.7-6.9 31l-2 6V50.3zM328.6 83.4c-5-8.5-11-20.8-19.2-39.2-3.6-8.1-8.9-19-11.9-24.3-4.7-8.3-9.5-18.1-9.5-19.5 0-.2 8.1-.4 18-.4 13.6 0 18.2.3 18.4 1.2.2.7 1.3 13.7 2.5 28.8 1.2 15.1 3.1 34.6 4.2 43.4 1.1 8.7 1.9 16 1.7 16.2-.2.2-2.1-2.6-4.2-6.2zM368.1 67c-.1-6.1-2.4-30.9-4.6-50-2.2-18.4-2.5-17 4.1-17h5.6l-.6 5.3c-1.1 9.5-2.6 37-2.7 50.2 0 7.2-.4 13.9-.9 15-.6 1.5-.9.5-.9-3.5zM1247 30.7c-5.2-8.8-11.2-19.2-13.2-23.1L1230 .5l13.2-.3c7.2-.1 13.2-.1 13.5.1.2.2.2 10.8.1 23.5l-.3 23-9.5-16.1z"/>
  </g>
</svg>
