<svg xmlns="http://www.w3.org/2000/svg" viewBox="0 0 8850 3940" id="{{ logoId }}">
  <title>Studnice fest</title>
  <g fill="var(--logo-color)" style="transform:none">
    <path
      d="M5 1970V10h2420v3920H5V1970zm1240 1877 6-22 6 13 5 12 11-7 10-6-6 17-7 18 16-6c8-3 20-6 25-6h9v-47l52 13c29 8 56 18 62 24l10 10h24c28 0 122-32 122-41v-6l28 5 27 5 7 12 8 13h47c27 0 53 1 58 2 6 1 14 2 19 1s44-4 85-5c42-2 89-7 104-11l28-8-3 18-3 18 13 4 12 5v-42h30v10c0 15 17 12 35-6l16-17 55 2 54 1v-20l-24-6-23-6-84 6-83 6-8-13-8-12-9 15c-13 19-14 16-39-55-32-93-40-115-58-180l-17-60-39-39c-22-22-43-47-49-57l-9-18 28-21 27-22-2-69c-1-37-4-77-7-87l-6-19 37-17c21-9 49-17 63-18s31-6 38-11l13-10 11 11 12 12h36v-20l-27-11-28-11-80 5-80 6-60 28-60 28-95-1-95-2-93-16-94-17-19-12-19-12v-45h63l44-45c23-25 47-45 53-45 5 0 9-3 8-7-1-5 5-21 12-38l14-30 1-64 1-63 39-15c22-8 69-23 105-34 36-10 89-29 117-41l53-23-4-10c-1-5-9-11-17-11-8-1-20-2-27-3l-13-1 6-10 7-11-12-15-13-14 23 2 23 3 4-12 5-13h-61l10-30 11-30h8c5 0 20 4 33 9l25 10 21-6 21-5v-13c0-7-7-18-15-25l-14-12-73-11-73-10-15-13c-8-6-46-26-83-44l-68-32 6-17c4-9 10-24 12-33l5-18h28v-15c0-8 10-35 22-60l22-45-15-15-15-15-87 29c-48 16-87 27-87 24s9-16 20-30l20-25-6-9-5-9h21l6-27c11-44 51-119 79-147 14-14 24-29 23-33-2-12 20-63 43-94l20-29h37l61-41 61-41v-20l-17 5c-10 3-55 15-101 27l-83 22-6-6-6-5 22-18 21-18 6-32 7-33h-21c-11 0-32 4-46 10l-26 10v-8c0-13 32-56 63-84l29-27 50-10c27-6 58-16 69-21l19-11v-22l-44 6c-24 4-62 13-85 20l-41 15-1-22c-1-11-1-43 0-71l2-50 19-81 19-81 31-69c18-38 40-80 49-94 10-14 20-35 24-47l5-23-11-25-12-25h-25l-10-24c-5-13-14-27-19-31-6-3-25-35-42-71-16-36-45-88-63-117s-36-63-40-77-12-35-18-47l-11-22 13-16 13-16 14 5 13 5v-9c0-6 4-10 9-10h8l13 63c7 34 16 67 20 72 4 6 15 33 25 60l19 50 28 39 28 39v35l15 12c8 7 15 16 15 20 0 5 16 24 36 44l36 36 9-6 9-5-19-37c-11-20-25-50-31-67-7-16-17-39-23-50s-23-45-38-75l-27-55-21-84c-12-47-21-93-21-103v-18l17-20c10-11 21-20 24-20h7l7 52c4 29 16 76 26 106l19 54-6 10-7 10 10 7c5 3 17 27 27 53 9 26 34 72 54 103l36 55 15-15 15-15-12-12c-7-7-12-19-12-26 0-8-15-47-34-86l-34-71-1-70-2-70-14-55c-22-83-11-71 20 22 15 46 33 90 39 98 17 20 30 59 57 163l22 87h17v-57c-1-32-5-76-9-98-16-70-33-159-36-180-1-11-6-41-10-67l-7-48 7-17 8-18 7 30c4 17 8 49 9 73l1 42h27l12 73c6 39 18 100 26 134s15 72 15 86v25l14 11 13 11 12-13 11-14-9-54c-17-95-30-211-37-311l-6-98h39l7 70 7 70h7c4 0 8 10 9 23 4 50 12 184 12 206l1 23 14-5 14-6 5 20 5 19h20l4-77 3-78-7-35-8-35 11-102 12-102 13-5 14-5v55c0 59 17 277 26 332l5 32h7c4 0 12-13 18-28l11-29 1-92 2-92 20-83c11-46 20-91 20-100v-15l14 5 13 5-8 42c-4 23-6 44-4 48 8 13 16 119 16 212l-1 97h40v-19l15 5 15 6v-10c0-6-6-13-12-15l-13-5 10-9 11-8-1-27v-28h-15v-39l10-6 10-6-2-160-1-159h-17v-48l-16-13-16-13-111-7-112-8-505 1c-278 1-530 1-560 0s-219-2-420-3H205l-29 8-29 9-14 44c-8 25-16 63-18 85l-3 40 9 18 10 17h-16l-3 87-2 87 11 7 12 7 38-4c22-3 39-3 39-1 0 3-23 22-50 43l-50 38v96h25l59-75 58-75 37-9c35-9 71-11 71-5 0 2-15 11-33 20l-32 16-58 57-58 56-35 72-34 72v51h38l13-32c7-18 23-47 36-64s23-35 23-41c0-16 58-91 84-108 13-9 59-29 103-44l78-28 14 5 15 5-35 18c-19 10-44 23-56 28-12 6-58 45-102 87l-80 76-32 49-31 49-9 37-8 37-1 206c-1 113-1 320 0 461v256l-6 19c-8 25-24 64-35 86-12 24-11 28 5 28h14l31-50c17-28 31-54 31-59 0-4 7-21 15-38l15-30 15-89 14-89-5 60c-3 33-9 116-13 185l-9 125-30 90-31 90-11 65c-5 36-10 68-10 72s-6 13-14 21l-15 14-2 24c-1 13-1 53-1 88l2 65 9-10c5-5 12-25 14-44l4-35-2 53-2 53 9 5c4 3 8 14 8 25v19h-16l-2 63-2 62-16 12-16 12 7 20c3 12 9 21 13 21h7l-2 73c-1 39-5 141-9 225l-7 153 15-6 14-6 12-33 12-32v-80l10-10 10-10 1-104 2-105-12-90-11-90 12-80 13-80 7 110c9 119 10 335 2 400-3 22-7 132-10 245l-5 205-14 56c-8 31-15 70-15 85v29l-19 42-19 42-3 43-4 43 19 3 18 4 10-10 11-11-17-16-16-16 15-30 16-29h49v-42c0-24-4-60-9-80l-9-38h18v-28l21-5 22-6-5-25-5-25 8-13 9-13v130l-15 80c-7 44-19 93-24 108-6 16-11 32-11 38v9l27-2c16-1 34-6 41-11l12-9v-58h-21l15-16c17-17 21-34 8-34h-9l9-62 8-63 10-3 10-4v-38h-25l15-10 14-9-6-6-7-7 9-24 10-24h-25l13-9 13-8-3-91c-2-51-5-92-8-92s-5-57-5-127v-128l-9-40c-10-49-11-78-3-175l6-75 16-55c16-54 33-125 39-165 18-117 55-225 143-412l24-52 6-71 6-72-16-96c-9-54-21-133-27-177l-10-80 9-32 10-33-5-52c-2-29-4-81-5-116v-63l17-52c9-29 23-59 30-68 8-8 14-20 14-26 0-15 31-72 51-95 9-10 22-37 29-59l14-41 36-24 36-24 58-15c31-8 68-15 81-15h24l-5 15-6 15 11 44c6 24 14 84 17 132l7 89 14 27c7 15 16 48 19 72l6 44-28 15-29 14-85-5-85-5-29-14c-15-8-53-21-84-29l-55-15-10 10-9 9 6 10 6 10 46 11 47 12 41 35 40 34 38 12 38 11 26-11 25-12h80l-20 29-21 29v68l12 12 12 12h26l25 1-25 14-25 14-112 1H700v8c0 13 47 32 78 32 15 0 44 3 64 6l38 7 57 111c31 61 74 145 95 186l38 75 6 32 6 32-23 10c-13 5-53 16-89 25s-94 23-129 33l-64 16-13-18-14-19v-63l15-30c8-16 24-38 34-47l20-18 39 7 40 6 7-11 7-11-18-14-19-14-34-1h-33l-49 27-49 28-25 48-25 49v19c0 11 6 37 12 59l13 40 40 16c22 9 50 18 63 20l24 2 31-11c18-6 38-17 46-24 18-19 25-9 12 15l-11 21v98l20 26c11 14 20 28 20 32v6l-10-6-10-6-22 15-22 15-20-4-21-5-52 30-53 30v29l-36 27-35 27-22 41c-27 52-52 121-60 166l-7 35 11 15 10 15 42-46c51-56 80-75 130-83l38-7-40 36-40 37-16 30c-8 17-15 35-15 39 0 5 21 20 46 35l45 27 44 9 44 9 75 75 75 74 17 37c10 21 20 40 23 43 4 3 14 20 24 37l18 33-17-7-17-6 5 14 5 14 17-1 17-2-9 12-9 11 43 35 43 35v23l1 22h-8c-11 0-34-28-52-62l-13-28h-38l-25-55-25-55h-29l-17-35-17-35h-28l4 8c53 107 68 139 68 151 0 8 11 29 26 48l25 33h-20l-13-23c-7-13-31-47-53-75l-40-51-14-1h-13l7 38c17 93 45 151 104 216l36 38-21-10c-12-7-24-18-28-27l-5-15h-31v49l10 6c6 3 10 11 10 17v11l-35-37c-37-40-41-46-25-46h10v30h23l-8-32c-4-18-8-40-8-48-1-8-13-36-26-61l-23-46-35-17-35-17-5-19-5-20h-28l6 48c3 26 8 54 10 62l5 15-20-21-19-21-139 2-138 2-17 8-18 7v28h-8c-12 0-32 46-32 73v23l-20 39c-11 22-20 48-20 59v19l39 37 39 38 4 19 3 19-38 36c-20 20-37 41-37 46 0 6-14 44-30 85-17 42-30 82-30 90v15l17 7 18 6 3-10 4-11h28v40h20v-42l27 8c16 4 57 8 93 10s65 4 65 4c0 1 12 3 28 5l27 4v-19l23 9 23 9 30-5 29-6 8-13 8-14h48l40 20c21 12 54 23 72 26l34 6 20-19 20-20 13 5 12 4 30-11 30-10 1 12c1 7 1 18 0 25l-2 12h10c5 0 17 3 27 7l17 6-6-17-7-17 11 7 11 7 9-14 9-14 6 22 6 22 17 3c9 2 23 2 33 0l16-4 7-21zm1039-23c8-20 8-19-26-28l-27-6-6 10-7 11 12 14 12 15h36l6-16zM138 2178c-2-6-10-14-16-16l-12-4v32h32l-4-12zm1829-65c27-27 63-69 82-95l33-46v-99l-17-27-17-26h-48v10c0 6 10 31 22 56l21 46-19 37c-10 20-21 38-24 41-7 7-29 43-37 60-3 8-17 28-30 43-21 26-29 47-18 47 2 0 26-21 52-47z"/>
    <path
      d="M876 3478c-16-18-35-43-43-55l-15-22 7-21 6-20 9 5 8 5 5-12c3-7 3 1 0 19l-5 32 32 41 32 40-4 10-3 10-29-32zm-614-738-13-55 11-3 10-4-5-46c-4-26-7-73-8-105l-2-57h15v-60l19-62c10-35 24-85 30-113l12-50 18-15 19-15 13-54 13-53 13-5 13-5v-28h21l-3-12c-1-7 3-22 9-34l12-21 7-66 7-67-14-16-13-16-1-111c-1-62-5-128-8-147-4-19-1-10 7 20 15 63 37 226 44 318l4 62-21 65c-12 36-32 89-45 118-21 49-33 80-77 202l-17 50-21 140c-11 77-24 176-29 220l-8 80-12-55zm1144-85-17-55 6-10c3-6 10-10 14-10h9l15 60 15 59-6 6c-12 12-19 2-36-50zm89 13c-2-7-5-28-8-45l-4-33h18l6 30c3 17 10 33 14 36l9 5-5 10c-9 13-25 11-30-3zm72-31c-4-10-7-31-6-45v-27l10 25 10 24-3 21-3 20-8-18zm51-37 4-30h18v14c0 8 3 21 6 30l6 16h-39l5-30zm-888-53c0-3 15-14 33-25l32-20 38-7 37-7v23l-15 5-15 6 6 9 5 9h-29c-16 0-44 3-61 6l-31 7v-6zm748-34c11-21 24-48 28-60l9-22 11 7 12 7-22 52-21 53h-36l19-37zm72 27-15-10h23l11-30 10-30h32l-15 28c-9 15-19 32-23 39l-9 12-14-9zm77-24 17-36h26l-13 33-13 32-17 3-17 4 17-36zm-234 6 17-19v-33h22l-6-15-5-15h17l7-22 6-23 5 11 5 12-21 36-20 37-2 25-2 24h-39l16-18zm-1197-94-7-46 16-59c9-32 24-77 32-100l16-43h16l-15 35-14 34v76l-19 75-18 75-7-47zm584 14c48-29 106-52 133-52h17v9c0 5-11 19-25 30l-26 20-33-6-33-5-31 16c-50 26-51 18-2-12z"/>
    <path
      d="m274 2138 4-37 21-44 22-45-2-68-3-69 9-53 8-52 8-6 9-5v-33c0-17-11-100-25-183l-25-152-2-133-2-133 18-100 19-100 32-65 32-65 29-14c16-7 48-29 71-47l41-34h14c8 0 19-5 24-10l10-10 44-4 43-4 17-21 16-22 29 12 30 11-70 22c-68 22-89 32-168 85l-39 25-44 57-44 58-6 33c-4 18-13 53-21 77l-14 44-5 86c-2 47-7 103-10 125l-5 39 12 126 11 126 9 9 9 10v55c0 30 5 83 11 119l11 64-12 61-13 62-39 77c-21 42-38 81-38 86s-7 25-15 43l-15 34 4-37zm-29-525c-4-10-9-30-11-45l-5-26 9-6 9-6 6 48c6 52 3 63-8 35z"/>
    <path
      d="m422 1422-2-23-17-17-17-17 17-3c19-4 23-18 6-24l-12-4-1-79-2-80 8-11c4-6 11-33 14-60l6-49 12-10c14-13 36-61 36-81v-15l25-33c14-18 25-38 25-45v-12l26-24 27-25h45l5-22 6-23 33-17c18-9 56-21 83-28l50-11 35 5c19 3 37 5 40 6 10 3-65 28-86 29l-21 1-60 30-61 30-33 33c-69 65-138 195-161 299l-11 53-7 125c-3 69-7 115-8 102zm-189-217v-40l4 23c2 12 2 30 0 40l-5 17 1-40zm7-85c-3-20-6-34-9-40-2-3-4-18-5-35l-3-30 10-12 9-13-10-12-10-13 3-25c2-14 4-32 4-41l1-17 42-62c22-34 61-82 85-105l44-44 43-24c48-26 130-57 155-57h15l-63 33-63 32-67 57-68 56-33 52-33 51-14 57c-8 31-18 91-22 132-5 41-9 68-11 60zm6692 2722-13-9 6-16 7-16-39-20c-21-11-33-20-28-21h10l2-57 2-57 23-18 23-18-17-13-16-13 4-149c2-83 6-171 9-197l4-48-14-27-15-28v-93l16-6 17-6-18-20-17-19 7-30c4-17 11-33 16-36 5-4 9-11 9-17v-10l-15 6-15 5-27-10-28-10-3 11-4 11-14-12-14-11-37 18c-21 10-42 18-48 19h-10l-3 18-3 17 13 1 13 1-35 13c-19 7-40 14-46 14l-10 1-1-35-1-35h6c13 0 27 15 27 29v14l13 5 12 4v-12c0-7-9-25-21-41l-20-29 13 5 13 5 13-20 12-20-9-19-10-18 7-8 7-7-19-14-20-14h43l7-11 7-12-19-10-18-10 119-28c66-16 129-29 140-29h20l-15 10-14 9 5 6 6 5 17-6 16-6v-27l38-6c20-4 47-10 60-16 13-5 37-9 53-9 17 0 38-4 47-9l17-9 27 5 28 5-6 9-5 9-18-10-18-9-7 6-6 6 18 13c9 7 25 14 35 14h17l9-23c5-13 17-31 26-40l16-17 15 15c9 8 20 15 25 15h10l-5-8-5-8 10-14 9-15v25h30v-31l19 10 18 10 8-7 8-7-7 13-7 12h-39v30h22l-12 15-12 15h-70l5 13 4 12 74-3 73-3-8 8c-9 9-13 10-61 12l-35 1v32l33-7c17-4 40-9 50-12l18-5-7 29c-3 15-8 35-10 43l-4 15-50 28-51 27-8 22-8 22-12-22-12-22 26-10 25-10v-32l-47 27-48 26-14-20c-7-12-18-21-23-21h-10l5 13 5 13-20 13-20 12 4 35 4 34h-7c-4 0-11-9-14-20l-6-20-10 5-9 6 7 75 6 76-13 8-13 8 8 12 8 13 3 106 2 106-8 150c-5 83-15 185-21 228l-11 77h-30l5 13 5 12 10-2 11-3-12 28c-6 15-16 30-22 34l-10 8h-120l-13-8zm289-16-12-14 9-6 10-6 6 16c9 23 2 28-13 10zm-2263-57-3-54 29-2c16-1 32-5 35-9l6-6-22-18c-13-10-23-23-23-29v-11h-31l6-117c3-65 8-132 11-149l4-31 25-23c14-13 25-29 25-36v-12l-16-6-16-6 6-16 6-16-20-5-20-5v-33l10 15 9 14 6-6 7-6-7-22-7-21-14 5-14 5v-58l18-10 17-11-14-9-14-9 7-58c4-32 10-61 14-64s8-17 9-32l1-27-14 6-14 5-6-17-7-17 18-66c9-37 22-97 27-133l11-67 36-6c20-3 58-6 85-6h48l-5 21-5 20 19 62c11 34 25 71 31 82l11 20 3 48 2 48 12 14 12 15h-32v33c0 19 3 37 7 41s8 17 8 29v22l-10 7-9 7v73c0 40 3 85 7 100l7 27-13 13-13 13-2 62-3 62 11 41c6 23 14 48 17 56l5 14-16-6-16-6v21l21 12 22 11 43-6c24-3 64-9 89-12l45-7v-18l11 7 11 6-11 11c-6 6-11 15-11 19v8h39l6 10 6 10 9-5 8-5 5 13 4 12-24 1c-13 1-27 5-30 8l-6 6 7 7 7 7h109v8c0 4-4 8-9 8h-10l6 36 6 37-14-5-14-5 3-18 3-17-12 4c-7 2-17 12-23 21l-11 16 20 15c11 9 28 16 38 16h17v19l-20 6-21 7-15-13-16-13-6 11-7 10-55 12c-30 7-66 14-80 17l-25 5 33-15 32-15v-33l-16 6c-9 3-28 9-42 12-15 4-33 11-39 17l-13 9-14-11-14-12-44 11c-24 7-48 16-55 22-7 5-27 11-45 13-18 1-56 6-85 10l-51 7-4-53zm1167-80c-44-4-95-10-112-14l-33-7 6-9 5-9h-92l-22-11c-12-7-37-27-55-45l-32-33-13 5-13 5-2-40-3-39 23-17 23-16-22-16c-13-8-23-19-23-24v-9h31l5-15 6-15-11-14-11-14 20-5 20-5v-20l-35-12c-19-6-35-13-35-14 0-2 7-17 16-35l16-32 20 7 20 6-6-20-7-20 23-16c12-9 30-16 40-16h18v-17l28 2c15 1 30 3 34 3 4 1 21 23 39 50 18 26 44 60 58 76l26 29-19-7-18-6 6 15 5 15h-29v9c0 4 9 20 20 34l20 25v72h20v30h13c6 0 37-13 69-29l56-28 14 8 14 8 13-9 14-8-7-43c-4-24-7-52-7-61v-17l-18-6c-10-3-28-16-41-30l-23-24 12-15 13-15-7-11-7-11-21 2c-12 2-32-1-44-5l-23-7v-19h30v-18l-35-6-35-7-27-37c-43-57-75-92-85-92h-9l7 11 6 11-41-27c-45-31-49-39-24-54l18-9-23-42-22-42v-38h30v-19l-27-3-26-3-4-25c-3-14-6-51-8-83l-3-58 13 11 13 11 5-8c3-4 8-27 12-50l7-43h28v-29l22-7c12-3 28-13 36-20l13-14h38l8-14 8-15 43-9 42-10v26l17 6 16 7 6-9 6-9 41-6 42-7 6 16 6 16 23-5 22-6-19 14-20 15 7 6c5 6 35 6 119 2l37-2 27 27 27 27h27l1-22 1-23 5 15c3 8 11 22 18 30s15 27 17 43l5 27h-8c-9 0-13-15-10-37l2-13h-8c-5 0-20 8-33 17l-25 18-17-3-18-3v30l13 8 12 8 11 40 10 40-25 2-26 1 18-13c9-6 17-14 17-17s-27-6-60-6l-60-1-5 10c-4 5-11 9-16 9h-10l5-18 6-19-26-12-26-12 5 15 5 14-26-10-27-10-35 16c-67 32-110 56-110 62 0 3 8 18 19 32 10 15 22 38 26 52s30 65 58 113l49 89 60 44 60 44h31l34 26 33 25v47l23 29c13 15 26 36 30 45l6 17-9 6-10 6v55l9 10 9 9 3 35c1 19-2 48-6 63l-7 28-14-5-14-5v7c0 5 6 14 13 21l12 12-25 22c-23 21-41 50-53 87l-5 15-1-17-1-18h-22l-5 20-5 20-22 4c-11 3-50 7-86 9l-65 4-80-8zm355-139c0-6-4-10-8-10-11 0-32 22-32 32v9l20-11c11-6 20-15 20-20zm-449-273-11-11-6 7-6 6 7 10 6 11 11-6 10-6-11-11z"/>
    <path
      d="M4940 3668v-21l20 18c11 10 20 20 20 22 0 1-9 3-20 3h-20v-22zm2223-33v-50l4 28c2 15 2 37 0 50l-4 22v-50zm-2927-44c-23-43-19-52 5-13l21 33-5 5-6 6-15-31zm165 4c-18-8-42-15-52-15h-19v20l-22-1-23-1 13-5 12-5v-33l-21-13-21-13-12 10-13 11-17-43-17-42-3-80-4-80 8 25c5 14 8 43 9 64 1 22 6 56 12 75 7 20 14 42 16 50l4 14 9-9 10-10-20-114c-11-63-25-153-31-200l-11-84 11-4 11-4v-44l-12-12-11-11 11-26 12-26-5-9c-9-14-26-162-26-215 1-27-4-86-11-130-13-90-12-149 2-176l10-18 22-3 22-3 7-25 7-25 1 13 1 12h21l-4-7-5-8 76-3c43-1 101-5 130-8l52-6v-18h28l5 13 5 12 10-14 9-13 21 11 21 11h131l1 13c1 6 0 17-1 22-1 6-5 46-7 90-3 44-7 82-9 85-3 2-14-2-26-9l-21-13-8 14c-5 7-9 16-9 21v7h46l20 14 19 15-27 10-27 10-138-1-138-1-23 12-22 12v30l10-6 10-6v10c0 5-4 12-9 15l-8 6-7 39-6 40 10 25 10 26 22 1h23l-22 9-23 9v23l46-7 46-7-6 10-6 10-45 6-45 7v18h28c15-1 68 2 117 6 50 4 102 7 118 7l27 1v28l23-5 22-6-40 20-40 19v25l25 7 25 7-20 1c-11 1-26 5-34 10l-14 9 7 11 7 11 20-11c24-12 24-12 33 24l6 27h-75l-49 15c-27 8-50 14-50 13-1-2-6-12-12-23l-11-20h-46l-4 13-5 12h37l-11 8-11 7-6 35-6 35 10 40c22 84 29 131 33 207l3 79 12 12c6 6 11 14 11 19v7l-15-5-15-6v21l-14-5-14-5-7 10c-8 14-13 13-54-4zm1055-62c-3-4-6-10-6-15v-8h39l6-10 6-10 22 1 22 1-27 10c-16 5-28 13-28 18 0 4-6 10-14 13l-14 6-6-6zm59-73c11-5 26-9 33-9l13-1-6 10-6 10-27-1h-27l20-9zm95-50-25-6 22-6 23-6 6 10c9 14 2 16-26 8zm-300-195v-30l-15-29-16-30 16-8 15-9v-28l-20-6-20-6v-26l25 5 25 4 120-17 119-17 13 8 12 8-34 11-34 11-4 14-5 13 39-6 39-5-37 11-38 11v15l28 4 27 4-33 2-34 1 5 13 4 12 40-2 41-2-12 31-11 31 13 4 12 5v28h-31c-17 0-38-4-47-9l-17-8-65 7-65 7-16-8-16-8-11 11-12 12v-29zm250-14v-9l-22-5c-25-7-33-3-23 12l6 11h39v-9zm-840-112v-30l10 6 10 6v49h-20v-31zm180 0-11-20 5-12 4-12 1 13 1 13 10-6 10-6v25c0 31-6 33-20 5zm1876-11-26-33 10-3c17-6 25 2 36 35 7 18 10 33 9 33-2 0-15-15-29-32zm-96-28-15-10h44l6 10 6 10h-13c-7 0-20-5-28-10zm-24-39c17-4 37-12 45-16l14-9-14 17-13 17-32-1-31-1 31-7zm-1388-138-15-18 4-57 4-58h-21l-1 18-1 17-7-30c-4-16-5-40-3-53l4-23 19 6 19 6-6-15-6-15 13-31 14-30h72l7-7 8-8 103-1h104l-2 20-2 21-17 7-18 7v40l16 9 16 9-31 6-31 7v30h41l-6 11-7 10 18 20 17 19-19 1c-10 1-29 0-41-1-13-1-28 2-34 6l-11 7 13 8 14 9h-35v-20h-55l-50 19-49 19-4 10-3 9 23 7 23 6-15 10c-8 5-22 10-31 10h-16l-15-17zm22-23v-10h-30v20h30v-10zm2118 15c-6-30-3-43 8-33 3 4 4 19 2 35l-3 28-7-30zm-771-20-17-24 11-6c13-9 15-7 23 28 8 33 6 33-17 2z"/>
    <path
      d="M4570 2831v-8l25 5c14 2 25 6 25 8s-11 4-25 4h-25v-9zm-140-10c0-5 6-14 13-20l14-11 6 7c4 3 7 12 7 20v13h-40v-9zm2087-61c-9-11-14-20-11-20s17 9 31 20l26 20h-29l-17-20zm-1576-27c0-12-4-30-7-40l-7-18 12 11 13 12-5 28-4 29-2-22zm-5-118c4-8 10-15 15-15h9v30h-29l5-15zm2504-45v-10h30v20h-30v-10zm-1505-110 6-10 22 1h22l-20 9c-11 5-24 9-28 9l-8 1 6-10zm1552-117-17-5-16-29-15-30 6-9 5-9-22-20c-12-12-25-21-29-21h-7l-1-227-1-227 12-38 11-38h29l-4-12-5-13-20-3-21-3-6-15-5-14h34l-2-63c0-34-5-82-10-107l-8-45 13-39 13-38-13-15-13-16 3-23 3-24h-22l3-37 3-38h20c11 0 26-4 33-8l12-8-5-9-5-8 15-12c8-7 15-17 15-23s12-24 28-40l27-30-25 6c-14 3-40 8-59 13l-34 7 6-10 6-10 63-18c35-10 67-22 72-27 6-4 15-8 22-8 6 0 29-8 50-17l39-16 21 2c11 1 32-3 47-8l27-11v23l18-16 17-15 30-7c17-4 37-9 45-12s24-7 35-8l20-3 13 11 12 10 7-7 7-6 22 21 23 22 16-13 15-12v10c0 6-5 12-11 14l-12 4 13 20 12 20-11 129c-6 72-12 138-13 147l-2 17-27-6-27-5-19 10-19 10-34-7-35-7 3-25c1-13 5-35 8-48l5-24-20 6-21 5v-37l10-6c6-3 10-13 10-21v-15l-22 7-23 7-35 33c-19 19-38 34-42 34s-30 10-58 22l-50 22v38l23-5 22-6-19 14-20 15h18l-12 12c-7 7-12 16-12 21v8l9-6 10-5 5 9 6 9-6 102-7 102-13 13-13 13 4 21 4 21h-39v13c0 6 4 18 9 26l9 13 6-11c4-6 12-11 18-11h11l-17 19-17 19 10 7 11 6v-8c0-9 20 19 20 29v7l-26-2-27-2-2 16c-2 9-6 26-9 37l-7 20 21 7 21 7 9 23 9 24-6 108-6 108-11 8-11 7 18 11 17 10v42l77-6 77-6 12-15 11-16h73v30h13c7 0 18-5 24-11l10-10 30-1 29-1 22 12 22 12v39h-20v38l13 5 12 4-14 17-14 17-14-5-14-6-19 13-20 12v24l-57 6c-32 3-92 11-133 16-83 12-235 19-263 12zm-4299-20-18-4v-10c0-6-16-31-35-56s-35-52-35-59v-13l-31-21-30-22-10-26-10-27 10-3 11-4v-35l-23-34-23-35 3-10 3-10-21-23-22-23-20 23-19 24 16-27 16-27-15-15c-8-8-15-19-15-25v-11h49l9-32 8-32 44-2 45-3 42 20c24 10 45 18 46 17 2-2 11 3 20 10l16 13-5 13-5 12 21 19c11 10 20 22 20 27s10 30 22 56 21 53 19 60l-2 13 27-7c15-4 35-14 45-23 29-26 43-36 72-48l27-13v-20h-48l-51-51c-28-28-51-56-51-61v-10l-14 5-15 6-36-29-36-28-57-74c-32-40-64-86-72-102s-26-41-40-56l-25-28-3-23-3-24-19-15-19-15-7-30c-4-16-11-33-16-36l-8-5 15-46 16-45 37-24c68-44 154-76 302-113l55-14 29 15 30 15 17-10 16-11 13 12 12 12 5-12 4-12 22 12c28 16 71 47 65 47-3 0-22-7-41-15-42-17-47-18-47-6v9l65 27 65 28 16 24 16 25-21-7-21-6v23l-22-5-21-6-19 10-19 10-32-19c-18-10-47-23-64-30l-33-11v19l39 20c22 11 42 24 45 29s35 17 71 26l65 18 11 13 11 14-13 1c-8 1-66 1-129-1l-115-2-10-8-10-9-40 3-39 4-4 11-4 11h-28v9c0 5 6 12 13 15l12 6-22-6-22-5 6 38c6 43 35 108 49 109 5 0 34 24 64 52 30 29 58 52 63 52 9 0 74 66 80 83l5 12 10-14 9-13 19 10c32 17 61 54 104 132l41 75 10 50 10 50-12 42-11 41-28 27-29 28-24 2c-28 3-76 27-134 67-24 16-66 40-95 53l-52 24-23-4c-13-3-35-7-49-11l-27-5 6 15c4 9 5 15 4 15-1-1-10-3-19-6zm-73-43-29-30h11c10 0 34 24 47 48 12 20 2 14-29-18z"/>
    <path
      d="m7397 2273-6-9 8-13 9-13 5 9 6 9-8 13-8 13-6-9zm-363-88-6-15h-28v20h-26l7-52c4-29 8-65 8-80l1-28h-19l-4 18-4 17v-74l13 16 12 17-2-67-1-67h-20l15-11 15-11-14-5-13-5 10-7 10-6 5-147 5-148h-18l-5 23c-2 12-6 40-8 62-3 22-2 6 0-35 3-41 5-102 5-135v-59l-11-4-11-4-1-41c0-23-4-62-8-87l-7-45 7-55 6-55 2 72 1 72 10 6 10 6 1-68v-68l9 20 9 20v-37l1-38h-20v-21l10 6 10 6v-10c0-5-6-12-12-14l-13-5 13-1 12-1V949l-9 5-9 6-6-23c-3-12-6-26-6-31v-8l15 12 15 12v-43l-11 7-12 7 8-54c4-30 8-62 9-71 1-10 6-21 11-25l8-8-6 32-6 32 10 6 10 7 14-12 15-12v-19c0-22 4-23 31-6l20 12 13-18 13-17 16 6 15 5 7-10 6-11h59l-1 77-2 78-9 24-9 24 11 7 11 7 1 94c0 52-3 132-7 178l-7 84 11-7 11-7v37l-11 11-11 11 1 144 1 143-11 84-10 84 11 7 11 7 6 141 6 141-13 16-12 15h-47l-6 10c-3 6-12 10-20 10h-14l-27 25c-31 29-42 31-50 10zm-1714 2c0-3 11-23 25-43s25-40 25-45v-8l-40-12-39-12 4-7c3-4 6-72 7-150s4-137 6-131 8 11 12 11h9l4-32c4-33 1-3-9 100l-6 52h19l11-38 12-38-2-125-1-124 14-23 14-23-23-19-24-19 5-18 5-18 1 18 1 17h20v-52l-20-5-20-5 16-13 17-12-8-19c-11-26-13-38-24-134-6-47-13-102-17-122l-7-38h23v52l13-4 12-5 3-144 3-144 10-6c6-3 10-10 9-15l-1-9 38-9c21-4 56-15 78-24l40-15 36-2c19-1 40-4 46-8l10-6 51 65c29 35 52 67 52 71 0 3 11 16 25 29s25 28 25 34c0 5 4 10 9 10h9l27 88c15 48 33 100 41 115 8 16 14 36 14 44v16l15 11 14 11 6 105 5 105-10-20-10-20 4 84 4 84 10 6 10 6 6 58 5 57-11 32-11 33-56 56c-31 31-70 72-87 90l-30 34-71 42-70 42-21-5-20-6-7 12-8 12 14 9 14 9h-32l-18 20-18 20h-37v-15c0-18-5-18-31-4l-20 10 7 21 6 21-30-6-30-6-26 26c-14 14-26 23-26 20zm199-292 30-26 9 17 9 16 19-4 19-3 9-20 9-20 48-34c27-18 49-37 49-42 0-11-13-12-26-1-5 4 1-2 13-13l23-21 1-19 1-20 5 13c2 6 8 12 13 12h8l8-32 7-33-2-134-2-135-56-105c-56-107-83-150-115-185-10-11-18-23-18-28v-8h-90l-2 58c-1 31-1 68 0 82 3 45 3 331 0 507l-3 173h-7c-5 0-8 7-8 15v15h9c5 0 23-11 40-25zm-57-100-4-25h-20l6 16c3 9 6 22 6 30v15l9-5 8-6-5-25z"/>
    <path
      d="M5696 1543c10-40 14-41 14-5v32h-20l6-27zm-5-113c-13-60-13-70-2-50 10 18 25 100 18 100-3 0-10-23-16-50zm1247 718c5-71 10-77 11-15l1 57h-16l4-42zm1447 22-6-10h-39v-30h-20c-12 0-34 7-50 15l-30 16-30-16c-16-8-33-16-37-18l-8-2 4-10c1-5 3-65 2-132l-1-122 9-5 9-6 12 15 13 15-16-6-16-6v132l8 5 9 5 16-65 16-66-10-19c-6-11-15-20-20-20h-10v-115l10 15 10 15v-55h-23l8-87c4-49 9-152 10-230 2-78 6-165 10-195l7-53 20-22 20-21 4-44c3-23 7-53 10-65l4-22 33-5c17-3 55-7 82-11l50-5 2 37c1 21 5 85 9 142l6 104-9-6-10-6-2 144-2 145h30l7-22c3-13 15-35 25-49l18-26-6-7-6-6h32l6 20c8 24 18 25 39 5 18-18 33-19 38-3l4 12 20-9c10-5 30-9 44-10l25-2 18 18 17 18 15-5 15-6v52h15c19 0 19 5-1 35l-16 25 11 14 12 14-11 7-11 7 3 16 3 17-12-3-13-2v30h-9c-6 0-13-5-16-10l-7-11-18 6-18 6-26-13-27-12-29 18-30 17-60-7-60-7v-45l-13-11-14-11-6 7c-4 3-7 21-7 40v34l-15 5-15 6-1 17-1 16-5-12c-2-7-9-13-14-13h-9v28l11 4 11 4 5 47 6 47h6c4 0 12-5 18-11l11-11-9 49-9 48 10 3 10 4-10 18-10 18 6 31c4 17 8 31 9 31s20-6 41-13l39-14 103 2 102 2 7 6 6 7h-73v18l30 12 30 12v78h22l-7 23c-3 12-7 28-7 35l-1 12h-10c-6 0-25-5-43-12l-31-11-19 8c-11 4-39 10-63 12-25 2-49 7-55 12s-32 12-58 15l-46 7-7-11zm-4420-70-5-8 12-4 11-4 1-175c0-95-2-205-6-244-3-38-11-140-17-225l-11-155 8-3 9-3-13-62c-7-34-13-81-14-103v-42l-20-23-19-24-1 13v12h-13c-8 0-24 9-37 20s-26 20-29 20-13 4-20 9l-15 10 25 21 24 22-15-8c-8-5-19-9-25-9-5-1-18-5-28-9l-18-9-38 13-38 12-19-4-19-3v-20c0-11 4-26 9-34l10-13-17-13c-9-7-17-15-17-19s-7-15-16-24l-17-16 22-10 22-9-5-14-6-13 40-16 40-16v-23l78-47c42-25 156-88 252-138 96-51 196-107 223-126 51-37 67-43 47-19-17 21-8 19 36-7l38-22-8 12-7 12h18l-10 33-11 34-30 14c-17 7-42 14-56 15h-25l-6-9-6-9-7 11-7 11h17l-1 22c-1 25-22 69-39 80l-10 7 6 7 7 6 53-34c29-19 59-38 65-42l13-7-6 14-5 15-20 5-20 5 3 9c1 4-4 19-11 31-19 35-8 36 40 4l43-30 13 13c7 8 13 17 13 22-1 10-179 127-198 129-7 1-21 13-32 26l-20 23 6 40c3 22 12 83 21 135 8 52 15 105 15 118 0 12 3 22 7 22h6l4 68c2 37 4 187 5 333l1 266 13-4 12-5v32l-17 1c-10 1-21 1-25 0l-8-1v13c0 7 7 22 15 33 8 10 15 22 15 26v7l-15-5-15-6v40l-17 13-18 13 13-14c6-8 12-18 12-23v-10l-35 6-35 6-6-11-7-11-9 16-9 16-14-5-15-6v20l-30 10-30 11-5-9zm347-1496c61-45 57-54-8-17l-48 29-4 12-4 12h7c4 0 30-16 57-36zm3568 1452v-15l13 5 13 5 15-28c8-15 20-34 27-41l12-13v15c0 8-5 18-10 21l-11 7 12 14 12 14-8 8-8 7-4-12c-3-7-9-13-14-13h-10l3 18 3 17-22 3-23 3v-15z"/>
    <path
      d="M4210 1865v-15h9c6 0 12 4 15 9l6 9-15 6-15 5v-14zm2410-41v-16l-17 4-18 5-2-46c-3-79-28-254-38-271l-6-10h23l-5-21-5-20 14-6c19-7 18-21-3-26l-18-5 18-1 17-1v-10c0-5-9-14-20-20l-20-11v-109h-29l1 28c1 15-2 41-5 59l-7 32 11 7 11 7-13 7-13 8 14 16 13 16-15-5-15-6-11-25-12-24h-20v-40h-10c-5 0-25-16-45-36l-36-36 6-19 6-19h-51v-31l-15-5-15-6v-28h-12c-7 0-19 4-27 9l-15 9 11 14c16 19 39 118 53 223l12 90-1 139-1 140-13 8-12 8h-104l-6 10c-3 6-13 10-21 10h-15l5-8 5-9-9-34c-5-19-11-45-14-59s-9-41-14-60l-8-35 3-150 3-150-11-50c-6-27-17-66-24-85l-13-36-1-88c-1-48-3-91-5-94-2-4-9-77-15-162s-14-169-16-186l-6-32 46-15 45-16 15 15 15 15 10-6 9-6 29 15 28 14 17-9 17-10 45 95c25 52 45 100 45 106 0 10 64 151 106 233l14 29v50l15-6 16-6 11 25c11 25 28 34 28 15 0-6-7-22-16-36l-17-24 17 6 16 6v-15c0-9-4-18-9-21l-8-6-1-57c-1-32-4-143-6-248l-5-190 5 13c3 6 10 12 15 12h9v-32l23 6c12 3 48 6 79 6h56v104c0 131 13 460 18 465 2 2 7 1 11-2l6-7 1-84v-85l6 5c5 6 11 239 8 364-1 41-1 122 1 180 1 58 3 152 4 210l2 105-37 6-36 6-26 17-26 16v-16zm-1965-3-90-6-42-28-43-27v-23c0-12-6-41-13-64l-12-42 7-118c4-65 11-131 14-148 4-16 10-64 14-105l7-75 1 74 2 75 9-10 9-9 6-50c3-27 10-111 16-185l10-135-10-3-10-4v-57l35-28 35-28v-37l-12 5-13 4v28h-30l-3-31-3-31 18-18 18-18-13-5-12-4v-30l25 6 25 6v-10c0-5-4-10-10-10h-9l5-14 5-14-10-7-11-6-1 13v13l-9-20c-5-11-9-37-9-57l-1-37 10-6 10-6-3 23-2 23h95l-6 43-6 42h19l28-40c15-22 29-40 30-40 2 0 1 18-2 40l-6 40 17 6 17 7 12-12 12-12-2-47-2-47 13 24 13 23-13 77c-17 99-45 321-50 391-2 30-9 89-15 130l-12 75-7 5-8 5-3 108-4 109 20 15 20 14 53-3 52-3 3 9 3 10 13-8 12-8-5-13-5-14 22-7c29-9 49-30 70-77l18-37-7-11-7-11 13-8 12-8 2-126 1-127-10-7c-14-10-15-39-4-97l11-50 2-130 3-130 8-29 8-29-16 6-15 6-18-13-18-13 18-57 18-56h28v-45l8 12 8 12 22-6 23-6-18-21-18-21 16 13 16 12 6-7c4-3 7-14 7-24v-17l15-6 15-5v8c0 5-6 11-12 14l-13 4 12 14 13 13 6-7c3-3 7-17 8-31 1-33 7-33 31 4 11 16 23 30 28 30h7v51l11-6c5-4 14-18 19-31l10-24h32l-6 33c-15 81-52 422-47 445l2 12h-21v28l11 4 12 4-15 14-14 15-1 40c-1 22-6 59-11 83l-10 44 5 70 4 71-12 56c-7 31-13 67-14 81s-3 33-3 43l-2 18-9-5-8-6-22 19c-27 23-27 31 2 32l22 1-18 5-18 5 5 14 5 14h-49v14c0 7 7 19 15 26l15 12-10 19-10 18-15-5-15-6v22h21l-10 18-10 18-63 31c-89 43-129 60-160 68l-28 7 6 9 5 9-13-2c-7-1-53-4-103-7zm453-363c7-7 12-15 12-19v-7l-20 5-20 5v28h8c4 0 13-5 20-12zm0-47 5-13-14 4c-7 2-15 10-17 17l-4 14 13-5c7-2 15-10 17-17zm-4-276 5-15-5-15c-9-22-21-18-27 7l-6 21 5 9c8 13 21 9 28-7zm4-67c-2-6-10-14-16-16l-12-4v32h32l-4-12zm-1968 677c-13-14-22-27-19-29 2-2 14 10 27 25 29 36 24 38-8 4zm2163-50v-60l4 33c2 18 2 45 0 60l-4 27v-60zm-2235-16c-16-11-28-25-28-30v-9l20 20 21 21 11-7 11-7-7 11-6 10 12 5 13 5-10 1c-5 0-22-9-37-20zm-95-124-21-25h25l11 25c14 31 13 31-15 0z"/>
    <path
      d="m4865 1381 6-20-13-21-13-21 14-8 13-9-7-23-6-24 10 15 11 15v115h-21l6-19zm57-26c-1-11 5-42 13-70l14-50v60l1 60-9-14-9-14-5 24-4 24-1-20zm1149-52c-1-26 0-45 2-43 7 7 12 78 6 84l-5 6-3-47zm2610-90c-25-7-66-16-91-19-25-4-46-8-48-9-6-5 10-54 17-52 3 1 7-2 8-7s7-12 14-17l13-7-12-15-13-15 18 2 18 1-3-25-2-25-16-12c-8-6-14-15-13-19 1-5-6-13-15-19l-16-10-20 13c-11 6-24 12-30 12h-10v-30h89l5 8 5 8 58-3c32-1 86-4 120-6l62-4 11 27c6 15 13 46 15 69l4 42-19-6-20-6v11c0 7 10 20 23 31l22 19-20 15-20 16 14 8 14 9-14 14-14 13h-89l-45-12zm-4181-82c0-38 6-40 12-6l5 25-8 6-9 5v-30zm-964-126c4-8 10-15 15-15h9v30h-29l5-15zm4044-89c0-2 8-6 18-8l17-5 20 8 20 8h-37c-21 1-38-1-38-3zm766-25c12-5 25-14 29-20l6-11h43l-14 15-15 15-35 5-35 6 21-10zM4310 687c0-7 72-48 76-44 2 2-14 14-36 26s-40 20-40 18zm1000-142-10-12 8-24 9-23 7 28 7 28 14-6 15-5v8c0 5-9 11-20 14l-19 5-11-13zm3-121 7-7-17-19c-22-24-8-23 16 1l19 19-16 7-16 6 7-7zm-188-97-7-18 5-5c3-4 10-4 15-3l9 4-7 20-8 20-7-18z"/>
  </g>
</svg>
