<?xml version="1.0" standalone="no"?>
<!DOCTYPE svg PUBLIC "-//W3C//DTD SVG 20010904//EN"
 "http://www.w3.org/TR/2001/REC-SVG-20010904/DTD/svg10.dtd">
<svg version="1.0" xmlns="http://www.w3.org/2000/svg"
 width="256.000000pt" height="256.000000pt" viewBox="0 0 256.000000 256.000000"
 preserveAspectRatio="xMidYMid meet">
<metadata>
Created by potrace 1.14, written by Peter Selinger 2001-2017
</metadata>
<g transform="translate(0.000000,256.000000) scale(0.100000,-0.100000)"
fill="#000000" stroke="none">
<path d="M0 1280 l0 -1280 1280 0 1280 0 0 1280 0 1280 -1280 0 -1280 0 0
-1280z m179 1162 c-1 -26 1 -53 5 -60 4 -7 4 -17 0 -24 -11 -17 -13 -71 -4
-83 11 -14 10 -122 0 -162 -5 -18 -5 -35 -1 -37 4 -3 6 -18 4 -33 -3 -15 0
-39 6 -53 8 -22 10 -19 10 25 2 98 31 381 45 425 11 37 18 46 40 48 28 4 31 0
16 -27 -5 -10 -14 -58 -20 -107 -6 -49 -17 -103 -25 -121 -13 -27 -14 -54 -5
-180 6 -81 23 -217 37 -302 25 -159 26 -180 0 -290 -9 -38 -13 -90 -11 -126 4
-48 0 -76 -19 -131 -14 -38 -28 -82 -32 -99 -3 -16 -12 -37 -19 -45 -32 -38
-80 -243 -64 -274 7 -13 6 -42 -3 -95 -14 -83 -16 -198 -6 -416 8 -160 2 -198
-33 -203 l-23 -4 7 89 c4 48 8 138 10 198 4 143 12 255 20 262 3 3 1 14 -4 24
-7 11 -7 33 -1 59 5 23 5 40 0 40 -21 0 9 305 31 320 4 3 10 21 12 40 3 19 15
62 28 95 17 46 24 95 31 210 4 83 11 161 15 174 9 29 -16 281 -28 281 -4 0 -8
-18 -8 -39 0 -22 -7 -46 -15 -54 -9 -9 -11 -17 -4 -19 5 -2 11 -10 13 -18 2
-8 8 -28 14 -43 15 -35 15 -63 1 -124 -27 -122 -68 -224 -110 -273 -23 -27
-24 -32 12 68 18 48 19 80 18 305 -3 607 1 792 18 820 2 4 13 7 24 7 18 0 20
-6 18 -48z m311 39 c0 -4 -9 -19 -19 -32 -10 -14 -25 -44 -32 -69 -8 -24 -21
-52 -30 -61 -9 -9 -19 -40 -22 -68 -4 -29 -11 -58 -16 -65 -5 -6 -8 -63 -7
-126 2 -92 6 -121 20 -142 14 -22 15 -28 5 -28 -11 0 -11 -2 -2 -8 7 -4 14
-35 17 -68 3 -34 10 -72 15 -86 6 -15 6 -56 0 -107 -7 -65 -6 -89 5 -114 8
-18 16 -48 19 -67 4 -36 -15 -126 -32 -143 -5 -5 -7 -16 -4 -24 3 -7 2 -13 -3
-11 -5 2 -11 -2 -12 -7 -2 -6 -9 -16 -15 -24 -15 -18 -37 -81 -37 -108 0 -12
-8 -28 -17 -35 -10 -7 -23 -24 -30 -38 -10 -22 -55 -194 -69 -270 -3 -14 -9
-26 -14 -28 -5 -2 -7 -9 -5 -15 10 -33 13 -206 4 -209 -8 -3 -7 -17 1 -47 6
-23 13 -74 15 -113 3 -39 6 -72 8 -74 2 -2 9 60 16 138 13 146 42 349 65 449
8 30 43 129 79 220 81 203 91 240 84 331 -5 81 -29 260 -50 383 -20 112 -3
379 28 460 28 70 61 136 88 172 29 38 36 42 74 43 l42 0 -29 -52 c-122 -222
-156 -323 -143 -433 3 -27 5 -77 3 -110 -7 -131 2 -259 26 -362 18 -77 20
-194 4 -251 -5 -22 -22 -66 -36 -99 -25 -56 -56 -127 -74 -168 -26 -62 -60
-180 -69 -245 -6 -41 -18 -95 -26 -120 -29 -92 -44 -156 -43 -185 0 -16 -3
-69 -7 -117 -6 -62 -5 -91 4 -101 6 -8 14 -51 18 -96 l6 -81 -60 0 c-59 0 -61
1 -65 28 -2 15 1 99 6 187 6 115 6 172 -3 203 -18 68 -14 227 8 307 11 39 22
98 24 131 3 34 16 90 30 125 14 35 38 96 53 134 15 39 35 81 44 95 34 48 52
134 46 218 -3 42 -8 111 -11 152 -3 41 -10 84 -15 95 -9 20 -14 67 -26 213 -7
83 9 303 27 377 39 158 38 155 94 155 25 0 45 -4 45 -9z m1260 0 c0 -5 9 -13
20 -16 11 -3 20 -13 20 -21 0 -8 5 -14 10 -14 18 0 11 -22 -49 -139 -74 -146
-102 -245 -107 -379 l-5 -103 29 15 c31 16 151 40 160 32 6 -7 -61 -36 -83
-36 -27 0 -81 -27 -105 -51 -25 -27 -60 -80 -60 -92 0 -4 23 -5 50 -1 33 4 50
3 50 -4 0 -6 -5 -14 -11 -17 -6 -4 -8 -13 -5 -20 3 -8 -8 -22 -26 -33 -29 -19
-30 -20 -11 -30 18 -10 75 1 216 43 39 12 -80 -71 -123 -85 -37 -12 -100 -76
-100 -102 0 -5 -12 -27 -27 -51 -46 -73 -104 -188 -98 -197 3 -4 -2 -10 -10
-14 -8 -3 -15 -13 -15 -22 0 -9 -9 -27 -20 -42 -11 -14 -17 -29 -13 -33 5 -5
50 6 101 23 81 28 94 30 106 18 13 -13 11 -22 -11 -70 -14 -30 -28 -57 -33
-60 -11 -8 -40 -67 -40 -82 1 -21 211 -118 256 -119 54 0 108 -21 112 -42 3
-13 -3 -17 -27 -17 -16 0 -41 4 -56 10 -23 9 -27 7 -42 -25 -14 -30 -15 -38
-3 -61 8 -14 13 -36 12 -50 -2 -21 3 -24 31 -24 l32 -1 -35 -18 c-19 -10 -93
-37 -165 -61 -71 -24 -135 -48 -142 -54 -9 -8 -10 -22 -3 -51 16 -68 -13 -135
-88 -211 -44 -43 -61 -54 -87 -54 -27 0 -34 -5 -39 -25 -6 -24 -9 -25 -99 -25
l-92 0 -20 38 c-11 20 -22 39 -25 42 -3 3 -14 24 -24 47 -10 23 -22 40 -26 38
-4 -2 -31 22 -61 54 -65 69 -91 87 -143 96 -37 6 -114 47 -127 68 -10 15 17
59 66 107 25 24 45 47 45 51 0 11 -92 -10 -119 -28 -14 -9 -45 -36 -68 -60
-66 -69 -75 -43 -31 92 26 76 67 142 113 178 19 15 35 34 35 41 0 20 93 66
133 66 20 0 39 5 42 10 3 6 17 10 31 10 30 0 30 2 -1 48 -28 42 -31 87 -10
147 8 22 15 41 15 43 0 8 -31 0 -42 -11 -17 -17 -68 -35 -93 -32 -34 3 -105
28 -115 40 -5 6 -14 31 -21 55 -11 40 -9 51 11 99 37 85 143 142 214 115 9 -3
16 -12 16 -20 0 -10 -12 -12 -47 -8 -43 5 -51 3 -75 -23 -38 -39 -54 -122 -33
-164 19 -36 39 -37 136 -5 41 14 109 32 151 41 42 9 79 23 82 30 10 28 -17 90
-148 340 -38 72 -72 134 -76 138 -4 5 -44 14 -89 21 -114 18 -119 32 -11 28
104 -5 184 15 220 53 13 14 20 28 16 32 -4 4 -15 -3 -25 -15 -26 -35 -72 -27
-83 13 -10 38 -2 68 28 100 18 20 21 27 10 31 -16 6 -82 0 -133 -11 -43 -10
-95 9 -148 55 -31 26 -57 39 -89 44 -43 7 -65 20 -53 33 9 8 105 -16 161 -40
68 -30 233 -32 265 -3 27 24 27 61 1 127 -12 28 -23 84 -26 123 -2 39 -7 88
-9 109 l-5 37 405 0 c244 0 405 -4 405 -9z m120 -12 c17 -31 7 -33 -20 -4 -19
20 -20 25 -7 25 9 0 21 -9 27 -21z m336 -1044 c18 -27 21 -97 5 -135 -5 -14
-21 -38 -35 -53 -14 -16 -26 -32 -28 -35 -2 -4 -23 -25 -47 -47 -26 -24 -38
-31 -30 -17 8 12 17 22 21 22 5 0 8 5 8 11 0 6 20 44 45 83 49 79 52 91 31
121 -7 11 -16 32 -20 48 -5 23 -3 27 14 27 11 0 27 -11 36 -25z m-361 -775 c8
-13 -5 -13 -25 0 -13 8 -13 10 2 10 9 0 20 -4 23 -10z m-854 -522 c8 -18 25
-38 39 -45 l25 -13 -26 0 c-20 0 -29 9 -46 45 -11 25 -17 45 -14 45 4 0 14
-15 22 -32z"/>
<path d="M845 815 c-39 -18 -81 -46 -95 -60 l-25 -26 30 11 c16 6 35 16 41 21
7 6 34 9 61 8 53 -3 86 13 102 47 8 19 6 23 -12 28 -29 8 -23 9 -102 -29z"/>
<path d="M1506 792 c-14 -21 -26 -48 -26 -59 0 -12 -7 -28 -15 -37 -20 -19
-19 -40 1 -32 9 3 19 6 24 6 4 0 11 12 15 27 3 15 15 45 26 67 35 72 19 91
-25 28z"/>
<path d="M1580 756 c-10 -24 -23 -47 -29 -50 -16 -10 -14 -56 2 -56 23 0 44
23 61 68 20 53 20 68 1 76 -12 4 -21 -6 -35 -38z"/>
<path d="M1647 709 l-27 -50 28 3 c20 2 31 13 45 41 10 21 15 42 12 47 -13 22
-34 7 -58 -41z"/>
<path d="M1752 743 c-16 -6 -56 -83 -42 -83 6 0 8 -18 5 -45 -4 -42 -3 -45 20
-45 27 0 31 11 15 40 -7 14 -5 32 10 70 27 69 26 77 -8 63z"/>
<path d="M780 703 c-74 -39 -75 -52 -3 -47 72 6 107 13 100 21 -3 3 1 12 9 20
40 40 -30 44 -106 6z"/>
<path d="M1650 613 c0 -21 3 -48 6 -60 5 -19 8 -20 20 -8 14 13 13 29 -3 88
-8 31 -23 18 -23 -20z"/>
<path d="M1463 625 c-7 -20 28 -137 42 -142 6 -1 16 1 23 6 19 11 -18 145 -42
149 -9 2 -19 -4 -23 -13z"/>
<path d="M1565 593 c13 -81 13 -81 40 -75 29 5 30 10 11 38 -8 11 -16 31 -18
44 -2 14 -11 26 -21 28 -16 3 -17 -1 -12 -35z"/>
</g>
</svg>
